SplineFontDB: 1.0
FontName: Kinnari-BoldItalic
FullName: Kinnari Bold Italic
FamilyName: Kinnari
Weight: Bold
Copyright: KinnariBoldItalic by TLWG, based on Kinnari Bold and Norasi Bold Italic
Version: 001.000
ItalicAngle: -12
UnderlinePosition: -70
UnderlineWidth: 25
Ascent: 800
Descent: 200
NeedsXUIDChange: 1
FSType: 0
PfmFamily: 17
TTFWeight: 700
TTFWidth: 5
Panose: 0 0 0 0 0 0 0 0 0 0
LineGap: 138
VLineGap: 0
OS2WinAscent: 0
OS2WinAOffset: 1
OS2WinDescent: 0
OS2WinDOffset: 1
HheadAscent: 0
HheadAOffset: 1
HheadDescent: 0
HheadDOffset: 1
ScriptLang: 5
 1 DFLT 1 dflt 
 1 thai 4 KUY  PAL  THA  dflt 
 1 latn 1 dflt 
 1 thai 1 dflt 
 1 thai 1 PAL  
ContextSub: glyph 0 4 ' RQD' 0 0 0 1
 String: 15 uni0E0D uni0E10
 BString: 0 
 FString: 0 
 1
  SeqLookup: 0 'nds0'
EndFPST
ChainSub: coverage 0 1 'ccmp' 0 0 0 1
 2 0 0
  Coverage: 19 uni0E4B uni0E4B.low
  Coverage: 7 uni0E4D
 2
  SeqLookup: 0 'amni'
  SeqLookup: 1 'G006'
EndFPST
ChainSub: coverage 0 1 'ccmp' 0 0 0 1
 2 0 0
  Coverage: 19 uni0E4A uni0E4A.low
  Coverage: 7 uni0E4D
 2
  SeqLookup: 0 'amni'
  SeqLookup: 1 'G005'
EndFPST
ChainSub: coverage 0 1 'ccmp' 0 0 0 1
 2 0 0
  Coverage: 19 uni0E49 uni0E49.low
  Coverage: 7 uni0E4D
 2
  SeqLookup: 0 'amni'
  SeqLookup: 1 'G004'
EndFPST
ChainSub: coverage 0 1 'ccmp' 0 0 0 1
 2 0 0
  Coverage: 19 uni0E48 uni0E48.low
  Coverage: 7 uni0E4D
 2
  SeqLookup: 0 'amni'
  SeqLookup: 1 'G003'
EndFPST
ChainSub: coverage 0 1 'ccmp' 0 0 0 1
 1 0 1
  Coverage: 15 uni0E0D uni0E10
  FCoverage: 23 uni0E38 uni0E39 uni0E3A
 1
  SeqLookup: 0 'ndsc'
EndFPST
ChainSub: coverage 0 1 'ccmp' 0 0 0 1
 1 2 0
  Coverage: 39 uni0E48 uni0E49 uni0E4A uni0E4B uni0E4C
  BCoverage: 23 uni0E38 uni0E39 uni0E3A

StartChar: .notdef
Encoding: 0 -1 0
Width: 384
Flags: W
HStem: 0 23<28 384> 568 23<126 482>
DStem: 126 591 144 568 0 0 28 23 482 568 510 591 366 23 384 0
Fore
144 568 m 1
 28 23 l 1
 366 23 l 1
 482 568 l 1
 144 568 l 1
384 0 m 1
 0 0 l 1
 126 591 l 1
 510 591 l 1
 384 0 l 1
EndSplineSet
EndChar
StartChar: exclam
Encoding: 33 33 2
Width: 388
Flags: HW
HStem: -13 146<130 148>
Fore
196 204 m 1
 167 212 l 1
 196 368 215 486 220 565 c 0
 223 609 224 620 231 639 c 0
 246 666 270 684 300 684 c 0
 341 684 371 655 371 611 c 0
 371 584 365 568 338 521 c 1
 283 412 237 312 196 204 c 1
141 133 m 0
 179 133 212 97 212 59 c 0
 212 19 180 -13 139 -13 c 0
 98 -13 67 18 67 59 c 0
 67 100 100 133 141 133 c 0
EndSplineSet
EndChar
StartChar: quotedbl
Encoding: 34 34 3
Width: 553
Flags: HW
Fore
177 398 m 1
 136 398 l 1
 152 612 l 1
 155 650 192 686 230 686 c 0
 256 686 275 664 275 636 c 0
 275 623 275 620 261 589 c 2
 259 584 l 1
 177 398 l 1
437 398 m 1
 395 398 l 1
 412 612 l 1
 415 650 453 686 491 686 c 0
 516 686 536 664 536 636 c 0
 536 623 535 620 521 589 c 2
 519 584 l 1
 437 398 l 1
EndSplineSet
EndChar
StartChar: numbersign
Encoding: 35 35 4
Width: 499
Flags: HW
HStem: 0 21G<-22 56 168 248> 209 74<-14 63 171 253 362 429> 417 74<69 146 253 338 445 513>
DStem: 63 209 141 209 -22 0 56 0 146 417 226 417 92 283 171 283 253 209 333 209 168 0 248 0 264 700 340 700 176 491 253 491 338 417 416 417 284 283 362 283 454 700 532 700 368 491 445 491
Fore
450 283 m 1
 429 209 l 1
 333 209 l 1
 248 0 l 1
 168 0 l 1
 253 209 l 1
 141 209 l 1
 56 0 l 1
 -22 0 l 1
 63 209 l 1
 -34 209 l 1
 -13 283 l 1
 92 283 l 1
 146 417 l 1
 51 417 l 1
 70 491 l 1
 176 491 l 1
 264 700 l 1
 340 700 l 1
 253 491 l 1
 368 491 l 1
 454 700 l 1
 532 700 l 1
 445 491 l 1
 533 491 l 1
 513 417 l 1
 416 417 l 1
 362 283 l 1
 450 283 l 1
338 417 m 1
 226 417 l 1
 171 283 l 1
 284 283 l 1
 338 417 l 1
EndSplineSet
EndChar
StartChar: dollar
Encoding: 36 36 5
Width: 499
Flags: HW
HStem: 0 32<186 213> 637 32<273 303>
VStem: 79 100<488 542> 324 108<157 201>
DStem: 127 7 179 0 98 -100 149 -100 211 303 253 274 138 42 186 32 303 636 352 625 248 437 291 410 331 732 381 732 313 668 360 661
Fore
497 598 m 1
 456 464 l 1
 434 470 l 1
 435 480 435 494 435 499 c 0
 435 568 412 605 352 625 c 1
 291 410 l 1
 353 357 372 338 395 308 c 0
 419 277 432 237 432 201 c 0
 432 86 331 0 201 0 c 2
 179 0 l 1
 149 -100 l 1
 98 -100 l 1
 127 7 l 1
 64 22 34 40 -21 86 c 1
 22 229 l 1
 44 223 l 1
 47 114 67 75 138 42 c 1
 211 303 l 1
 105 384 79 420 79 488 c 0
 79 590 164 669 275 669 c 0
 283 669 291 669 313 668 c 1
 331 732 l 1
 381 732 l 1
 360 661 l 1
 394 655 441 636 479 612 c 1
 497 598 l 1
248 437 m 1
 303 636 l 1
 297 637 294 637 289 637 c 0
 223 637 179 599 179 542 c 0
 179 502 195 476 248 437 c 1
253 274 m 1
 186 32 l 1
 221 32 230 34 248 40 c 0
 294 57 324 101 324 157 c 0
 324 204 308 230 253 274 c 1
EndSplineSet
EndChar
StartChar: percent
Encoding: 37 37 6
Width: 832
Flags: HW
HStem: -10 47<583 617> 294 46<168 202> 584 39<421 441>
VStem: 347 34<565 590> 759 33<245 263>
DStem: 543 612 645 691 193 -7 250 -7
Fore
677 376 m 0
 746 376 792 330 792 261 c 0
 792 185 760 101 706 44 c 0
 674 10 628 -10 583 -10 c 0
 502 -10 450 45 450 127 c 0
 450 192 485 265 539 316 c 0
 582 356 627 376 677 376 c 0
707 325 m 0
 684 327 658 308 636 272 c 0
 605 230 570 138 567 92 c 0
 565 62 587 37 617 37 c 0
 653 37 688 64 718 119 c 0
 746 168 759 214 759 256 c 0
 759 294 738 324 707 325 c 0
193 -7 m 1
 543 612 l 1
 499 595 461 584 423 584 c 0
 415 584 401 587 381 590 c 1
 379 501 363 444 319 382 c 0
 281 325 229 294 168 294 c 0
 92 294 40 352 40 431 c 0
 40 555 151 680 264 680 c 0
 291 680 311 672 340 650 c 0
 368 631 394 623 437 623 c 0
 499 623 549 643 605 691 c 1
 645 691 l 1
 250 -7 l 1
 193 -7 l 1
287 631 m 0
 270 633 246 612 224 582 c 0
 190 532 157 441 154 394 c 0
 152 363 173 340 202 340 c 0
 272 340 347 463 347 577 c 0
 347 599 346 601 318 612 c 0
 311 615 311 615 302 623 c 0
 294 628 291 630 287 631 c 0
EndSplineSet
EndChar
StartChar: ampersand
Encoding: 38 38 7
Width: 777
Flags: HW
HStem: -19 72<198 265> -18 80<529 596> 335 25<479 487.4> 649 34<413 427>
VStem: 4 134<148 190> 234 120<476 530> 478 79<566 582>
Fore
672 101 m 1x7e
 699 81 l 1
 639 7 595 -18 529 -18 c 0x7e
 476 -18 435 0 390 44 c 1
 324 -1 268 -19 198 -19 c 0xbe
 83 -19 4 48 4 148 c 0
 4 193 26 242 63 280 c 0
 97 316 129 334 245 384 c 1
 237 429 234 453 234 476 c 0
 234 598 309 683 419 683 c 0
 499 683 557 634 557 568 c 0
 557 501 499 445 375 395 c 1
 387 322 420 234 461 168 c 1
 519 242 535 270 535 297 c 0
 535 319 521 330 479 335 c 1
 479 360 l 1
 691 360 l 1
 691 335 l 1
 628 324 624 319 486 133 c 1
 524 82 557 62 596 62 c 0
 623 62 645 72 672 101 c 1x7e
253 343 m 1
 168 302 138 261 138 190 c 0
 138 111 193 53 265 53 c 0xbe
 296 53 322 60 362 81 c 1
 306 167 278 231 253 343 c 1
366 434 m 1
 403 456 403 456 415 464 c 0
 453 495 478 538 478 582 c 0
 478 624 458 649 425 649 c 0
 379 649 354 606 354 530 c 0
 354 505 357 488 366 434 c 1
EndSplineSet
EndChar
StartChar: quotesingle
Encoding: 39 39 8
Width: 276
Flags: HW
Fore
168 398 m 1
 127 398 l 1
 144 612 l 1
 146 650 185 686 223 686 c 0
 252 686 268 658 268 637 c 0
 268 620 259 602 250 584 c 2
 168 398 l 1
EndSplineSet
EndChar
StartChar: parenleft
Encoding: 40 40 9
Width: 332
Flags: HW
VStem: 28 94<110 207>
Fore
327 686 m 1
 344 665 l 1
 264 590 226 543 190 461 c 0
 146 366 122 237 122 110 c 0
 122 -6 138 -67 193 -164 c 1
 170 -179 l 1
 69 -41 28 70 28 207 c 0
 28 278 41 344 67 404 c 0
 114 508 174 573 327 686 c 1
EndSplineSet
EndChar
StartChar: parenright
Encoding: 41 41 10
Width: 332
Flags: HW
VStem: 177 94<299 398>
Fore
-26 -179 m 1
 -44 -160 l 1
 32 -89 63 -51 95 15 c 0
 145 114 177 267 177 398 c 0
 177 513 160 580 105 669 c 1
 127 686 l 1
 180 614 201 580 224 524 c 0
 255 450 271 372 271 299 c 0
 271 202 245 114 192 34 c 0
 141 -47 89 -95 -26 -179 c 1
EndSplineSet
EndChar
StartChar: asterisk
Encoding: 42 42 11
Width: 499
Flags: HW
HStem: 334 105<116 144 376 406> 497 106<114 144 376 407>
VStem: 253 15<442 454 482 510>
Fore
253 482 m 1
 253 494 l 2
 253 527 246 552 227 584 c 0
 214 606 209 618 209 633 c 0
 209 664 230 686 261 686 c 0
 291 686 311 664 311 633 c 0
 311 618 308 606 294 584 c 0
 275 552 268 527 268 494 c 2
 268 482 l 1
 278 488 l 2
 308 505 319 517 344 555 c 0
 365 590 382 603 407 603 c 0
 432 603 456 577 456 548 c 0
 456 533 447 519 431 508 c 0
 416 499 406 497 376 497 c 0
 333 497 319 494 287 475 c 2
 275 469 l 1
 287 461 l 2
 319 442 331 441 376 439 c 0
 406 439 417 437 431 429 c 0
 445 420 456 403 456 388 c 0
 456 359 434 334 406 334 c 0
 381 334 365 346 344 382 c 0
 322 417 312 428 278 448 c 2
 268 454 l 1
 268 442 l 2
 268 410 275 387 294 353 c 0
 306 331 311 318 311 303 c 0
 311 272 291 252 261 252 c 0
 230 252 209 272 209 305 c 0
 209 318 215 331 227 353 c 0
 246 387 253 410 253 442 c 2
 253 454 l 1
 242 448 l 2
 209 428 199 417 177 382 c 0
 157 346 141 334 116 334 c 0
 88 334 64 359 64 388 c 0
 64 403 75 420 91 429 c 0
 103 437 116 439 144 439 c 0
 190 441 201 442 234 461 c 2
 245 469 l 1
 234 475 l 2
 201 494 187 497 144 497 c 0
 116 497 105 499 91 508 c 0
 75 519 64 532 64 549 c 0
 64 577 89 603 114 603 c 0
 138 603 155 590 177 555 c 0
 201 517 212 505 242 488 c 2
 253 482 l 1
EndSplineSet
EndChar
StartChar: plus
Encoding: 43 43 12
Width: 569
Flags: HW
HStem: 0 21G<242 330> 209 88<34 242 330 538>
VStem: 242 88<0 209 297 505>
Fore
242 297 m 1
 242 505 l 1
 330 505 l 1
 330 297 l 1
 538 297 l 1
 538 209 l 1
 330 209 l 1
 330 0 l 1
 242 0 l 1
 242 209 l 1
 34 209 l 1
 34 297 l 1
 242 297 l 1
EndSplineSet
EndChar
StartChar: comma
Encoding: 44 44 13
Width: 249
Flags: HW
Fore
-47 -182 m 1
 -60 -158 l 1
 18 -116 59 -78 59 -41 c 0
 59 -26 51 -18 28 -1 c 0
 -1 18 -12 34 -12 62 c 0
 -12 103 18 133 59 133 c 0
 110 133 144 95 144 37 c 0
 144 -45 67 -130 -47 -182 c 1
EndSplineSet
EndChar
StartChar: hyphen
Encoding: 45 45 14
Width: 332
Flags: HW
HStem: 166 117<25 248>
Fore
271 283 m 1
 248 166 l 1
 1 166 l 1
 26 283 l 1
 271 283 l 1
EndSplineSet
EndChar
StartChar: period
Encoding: 46 46 15
Width: 249
Flags: HW
HStem: -13 21G<43.5 84.5>
Fore
66 135 m 0
 105 135 139 101 139 62 c 0
 139 19 105 -13 64 -13 c 0
 23 -13 -9 19 -9 60 c 0
 -9 103 23 135 66 135 c 0
EndSplineSet
EndChar
StartChar: slash
Encoding: 47 47 16
Width: 276
Flags: HW
DStem: 255 686 341 686 -64 -18 23 -18
Fore
255 686 m 1
 341 686 l 1
 23 -18 l 1
 -64 -18 l 1
 255 686 l 1
EndSplineSet
EndChar
StartChar: zero
Encoding: 48 48 17
Width: 499
Flags: HW
HStem: -15 30<161 179> 653 30<321 329>
VStem: 18 102<81 207> 374 104<442 582>
Fore
327 683 m 0
 417 683 478 587 478 442 c 0
 478 286 398 104 297 29 c 0
 259 0 220 -15 177 -15 c 0
 81 -15 18 73 18 207 c 0
 18 354 79 516 171 611 c 0
 217 658 272 683 327 683 c 0
325 653 m 0
 289 653 261 614 223 510 c 0
 176 379 120 145 120 81 c 0
 120 41 141 15 170 15 c 0
 211 15 240 53 272 149 c 0
 296 215 346 409 362 494 c 0
 371 532 374 562 374 582 c 0
 374 627 356 653 325 653 c 0
EndSplineSet
EndChar
StartChar: one
Encoding: 49 49 18
Width: 499
Flags: HW
HStem: 0 23<4 30.6389 350 350>
DStem: 252 557 419 683 125 97 265 123
Fore
4 0 m 1
 4 23 l 1
 78 23 107 42 125 97 c 1
 252 557 l 1
 253 565 256 574 256 580 c 0
 256 602 242 612 209 612 c 0
 190 612 174 612 146 608 c 1
 149 631 l 1
 265 647 328 661 419 683 c 1
 265 123 l 2
 253 83 253 78 253 69 c 0
 253 32 271 23 350 23 c 1
 350 0 l 1
 4 0 l 1
EndSplineSet
MinimumDistance: x8,1 
EndChar
StartChar: two
Encoding: 50 50 19
Width: 499
Flags: HW
HStem: 0 111<105 340> 593 90<220 281>
VStem: 312 133<483 516>
Fore
419 190 m 1
 340 0 l 1
 -26 0 l 1
 -26 23 l 1
 3 53 34 83 63 114 c 1
 250 300 312 393 312 483 c 0
 312 552 277 593 220 593 c 0
 167 593 126 565 86 507 c 1
 64 519 l 1
 92 573 108 598 138 623 c 0
 182 664 229 683 281 683 c 0
 374 683 445 609 445 516 c 0
 445 439 395 357 302 278 c 2
 105 111 l 1
 255 111 l 2
 333 111 356 125 394 190 c 1
 419 190 l 1
EndSplineSet
EndChar
StartChar: three
Encoding: 51 51 20
Width: 499
Flags: HW
HStem: -13 39<119 174> 612 71<234 300>
VStem: 286 123<189 250> 321 129<521 546>
Fore
127 347 m 1xe0
 132 369 l 1
 261 395 321 445 321 521 c 0
 321 577 287 612 234 612 c 0
 187 612 160 595 119 538 c 1
 97 549 l 1
 160 643 220 683 300 683 c 0
 387 683 450 625 450 546 c 0xd0
 450 486 415 438 343 403 c 2
 331 397 l 1
 388 354 409 316 409 250 c 0
 409 104 278 -13 119 -13 c 0
 37 -13 -15 18 -15 67 c 0
 -15 101 9 123 45 123 c 0
 70 123 86 111 110 78 c 0
 127 53 133 42 135 41 c 0
 144 34 160 26 174 26 c 0
 236 26 286 100 286 189 c 0
 286 256 261 305 212 328 c 0
 189 341 170 346 127 347 c 1xe0
EndSplineSet
EndChar
StartChar: four
Encoding: 52 52 21
Width: 499
Flags: HW
HStem: 0 248<53 316> 149 99<53 229 384 426>
DStem: 229 149 357 149 187 0 316 0 335 527 502 683 256 248 384 248 439 683 335 527 13 255 53 248
Fore
453 248 m 1x40
 426 149 l 1
 357 149 l 1x40
 316 0 l 1
 187 0 l 1x80
 229 149 l 1
 -15 149 l 1
 13 255 l 1
 439 683 l 1
 502 683 l 1
 384 248 l 1
 453 248 l 1x40
53 248 m 1x80
 256 248 l 1
 335 527 l 1
 53 248 l 1x80
EndSplineSet
EndChar
StartChar: five
Encoding: 53 53 22
Width: 499
Flags: HW
HStem: -13 39<120 173> 560 109<203 451>
VStem: 308 104<189 250>
DStem: 204 669 196 560 73 372 163 483
Fore
196 560 m 1
 163 483 l 1
 255 464 283 456 316 434 c 0
 378 393 412 328 412 250 c 0
 412 103 284 -13 120 -13 c 0
 41 -13 -12 19 -12 66 c 0
 -12 100 15 123 48 123 c 0
 78 123 95 110 119 70 c 0
 141 37 152 26 173 26 c 0
 243 26 308 104 308 189 c 0
 308 253 271 311 209 341 c 0
 171 362 139 369 73 372 c 1
 204 669 l 1
 486 669 l 1
 451 560 l 1
 196 560 l 1
EndSplineSet
EndChar
StartChar: six
Encoding: 54 54 23
Width: 499
Flags: HW
HStem: -15 33<182 200> 382 40<250 293>
VStem: 23 112<95 195> 319 123<250 315>
Fore
502 680 m 1
 508 655 l 1
 374 603 291 530 231 409 c 1
 261 419 272 422 293 422 c 0
 387 422 442 357 442 250 c 0
 442 103 334 -15 196 -15 c 0
 88 -15 23 64 23 195 c 0
 23 335 98 475 224 568 c 0
 305 628 369 653 502 680 c 1
250 382 m 0
 220 382 209 374 189 319 c 0
 157 237 135 148 135 95 c 0
 135 42 152 18 190 18 c 0
 215 18 237 32 250 56 c 0
 284 119 319 253 319 315 c 0
 319 360 297 382 250 382 c 0
EndSplineSet
EndChar
StartChar: seven
Encoding: 55 55 24
Width: 499
Flags: HW
HStem: 0 21G<53 144> 557 112<144 384>
Fore
83 479 m 1
 57 479 l 1
 144 669 l 1
 524 669 l 1
 144 0 l 1
 53 0 l 1
 384 557 l 1
 250 557 l 2
 146 557 120 543 83 479 c 1
EndSplineSet
EndChar
StartChar: eight
Encoding: 56 56 25
Width: 499
Flags: HW
HStem: -13 31<183 211> 650 33<290 313>
VStem: 3 97<139 154> 108 112<499 554> 306 113<146 193> 382 94<530 556>
Fore
333 381 m 1xf4
 333 376 l 1
 394 309 419 256 419 193 c 0xf8
 419 75 325 -13 196 -13 c 0
 82 -13 3 54 3 152 c 0
 3 237 59 296 183 340 c 1
 183 346 l 1
 127 404 108 441 108 499 c 0
 108 605 190 683 300 683 c 0
 354 683 409 662 442 628 c 0
 464 605 476 576 476 541 c 0
 476 469 437 425 333 381 c 1xf4
209 321 m 1
 193 311 193 311 190 308 c 0
 129 262 100 209 100 141 c 0
 100 64 138 18 199 18 c 0
 261 18 306 72 306 146 c 0
 306 199 294 220 209 321 c 1
311 403 m 1
 368 463 382 494 382 543 c 0xf4
 382 608 352 650 302 650 c 0
 253 650 220 609 220 554 c 0
 220 504 242 469 311 403 c 1
EndSplineSet
EndChar
StartChar: nine
Encoding: 57 57 26
Width: 499
Flags: HW
HStem: 245 44<204 243> 650 33<299 321>
VStem: 53 124<352 412> 363 112<476 582>
Fore
-6 -10 m 1
 -12 15 l 1
 110 53 204 135 265 259 c 1
 242 248 226 245 204 245 c 0
 114 245 53 312 53 412 c 0
 53 564 161 683 299 683 c 0
 349 683 388 668 417 639 c 0
 454 601 475 542 475 476 c 0
 475 334 398 190 272 100 c 0
 193 40 129 15 -6 -10 c 1
313 650 m 0
 283 650 256 630 234 589 c 0
 204 527 177 416 177 352 c 0
 177 311 201 289 243 289 c 0
 286 289 293 297 319 376 c 0
 346 450 346 450 353 491 c 0
 359 524 363 561 363 582 c 0
 363 628 347 650 313 650 c 0
EndSplineSet
EndChar
StartChar: colon
Encoding: 58 58 27
Width: 332
Flags: HW
HStem: -13 148<86 104> 311 147<182 200>
Fore
98 135 m 0
 138 135 171 101 171 62 c 0
 171 19 138 -13 97 -13 c 0
 56 -13 23 19 23 62 c 0
 23 103 56 135 98 135 c 0
190 458 m 0
 231 458 264 425 264 385 c 0
 264 343 231 311 189 311 c 0
 148 311 116 343 116 385 c 0
 116 428 149 458 190 458 c 0
EndSplineSet
EndChar
StartChar: semicolon
Encoding: 59 59 28
Width: 332
Flags: HW
HStem: 311 147<177 200>
Fore
-12 -183 m 1
 -25 -160 l 1
 53 -117 92 -78 92 -42 c 0
 92 -28 86 -18 63 -3 c 0
 34 18 23 34 23 60 c 0
 23 103 53 133 94 133 c 0
 145 133 179 94 179 35 c 0
 179 -45 104 -132 -12 -183 c 1
190 458 m 0
 231 458 264 425 264 385 c 0
 264 343 231 311 189 311 c 0
 148 311 116 343 116 385 c 0
 116 428 149 458 190 458 c 0
EndSplineSet
EndChar
StartChar: less
Encoding: 60 60 29
Width: 569
Flags: HW
DStem: 31 211 154 253 539 -12 539 83 539 519 539 422 31 294 154 253
Fore
539 -12 m 1
 31 211 l 1
 31 294 l 1
 539 519 l 1
 539 422 l 1
 154 253 l 1
 539 83 l 1
 539 -12 l 1
EndSplineSet
EndChar
StartChar: equal
Encoding: 61 61 30
Width: 569
Flags: HW
HStem: 107 88<34 538> 311 87<34 538>
Fore
538 398 m 1
 538 311 l 1
 34 311 l 1
 34 398 l 1
 538 398 l 1
538 195 m 1
 538 107 l 1
 34 107 l 1
 34 195 l 1
 538 195 l 1
EndSplineSet
EndChar
StartChar: greater
Encoding: 62 62 31
Width: 569
Flags: HW
DStem: 31 422 31 519 416 253 539 294 416 253 539 211 31 83 31 -12
Fore
31 -12 m 1
 31 83 l 1
 416 253 l 1
 31 422 l 1
 31 519 l 1
 539 294 l 1
 539 211 l 1
 31 -12 l 1
EndSplineSet
EndChar
StartChar: question
Encoding: 63 63 32
Width: 499
Flags: HW
HStem: -13 148<142 160> 653 31<270 294>
VStem: 79 148<62 68> 119 123<544 557> 343 127<539 573>
Fore
196 208 m 1xd8
 167 215 l 1
 171 270 192 316 237 374 c 2
 278 425 l 2
 324 480 343 526 343 573 c 0
 343 623 316 653 274 653 c 0
 242 653 212 634 212 615 c 0
 212 609 215 603 223 593 c 0
 236 576 242 562 242 546 c 0
 242 516 214 488 180 488 c 0
 146 488 119 517 119 555 c 0
 119 630 193 684 294 684 c 0
 398 684 470 625 470 539 c 0
 470 478 434 428 344 369 c 2
 278 327 l 2
 240 300 224 278 196 208 c 1xd8
154 135 m 0
 193 135 227 101 227 62 c 0
 227 19 193 -13 152 -13 c 0
 111 -13 79 19 79 62 c 0xe8
 79 103 111 135 154 135 c 0
EndSplineSet
EndChar
StartChar: at
Encoding: 64 64 33
Width: 832
Flags: HW
HStem: -18 46<430 464> 144 46<365 407> 646 40<437 452>
VStem: 63 91<301 351> 272 77<256 277> 491 69<215 224> 724 46<365 401>
Fore
545 463 m 1
 557 501 l 1
 627 501 l 1
 562 245 l 1
 560 237 560 233 560 224 c 0
 560 195 574 179 598 179 c 0
 627 179 653 196 677 230 c 0
 706 271 724 330 724 379 c 0
 724 524 595 646 437 646 c 0
 272 646 154 511 154 322 c 0
 154 151 277 28 450 28 c 0
 519 28 568 40 647 76 c 1
 661 41 l 1
 562 -4 511 -18 439 -18 c 0
 229 -18 63 133 63 328 c 0
 63 527 229 686 437 686 c 0
 624 686 770 555 770 387 c 0
 770 255 683 142 583 142 c 0
 535 142 492 176 491 217 c 1
 456 171 409 144 365 144 c 0
 313 144 272 193 272 256 c 0
 272 330 305 409 354 463 c 0
 387 497 431 516 473 516 c 0
 508 516 523 505 545 463 c 1
486 467 m 0
 461 469 428 450 398 417 c 0
 366 379 349 330 349 275 c 0
 349 223 371 190 407 190 c 0
 437 190 466 215 488 256 c 0
 508 297 526 357 527 401 c 0
 530 441 516 464 486 467 c 0
EndSplineSet
EndChar
StartChar: A
Encoding: 65 65 34
Width: 666
Flags: HW
HStem: 0 25<129 129 289 299.667 576.5 593> 208 40<161 353>
DStem: 309 491 413 683 346 248 508 111 388 683 309 491 16 95 161 248 388 683 138 208 16 95 79 105
Fore
593 25 m 1
 593 0 l 1
 289 0 l 1
 289 25 l 1
 353 31 368 42 368 83 c 0
 368 97 366 117 360 157 c 0
 359 163 356 185 353 208 c 1
 138 208 l 1
 79 105 l 2
 69 89 64 73 64 60 c 0
 64 37 83 25 129 25 c 1
 129 0 l 1
 -67 0 l 1
 -67 25 l 1
 -31 34 -16 45 16 95 c 1
 388 683 l 1
 413 683 l 1
 508 111 l 1
 521 35 527 29 593 25 c 1
161 248 m 1
 346 248 l 1
 309 491 l 1
 161 248 l 1
EndSplineSet
EndChar
StartChar: B
Encoding: 66 66 35
Width: 666
Flags: HW
HStem: 0 25<-23 -15.3333> 0 32<248 277> 637 32<116 394> 645 24<116 128>
VStem: 419 154<207 229> 478 146<521 538>
DStem: 179 546 338 593 56 97 277 368 179 546 270 338 56 97 204 94
Fore
116 645 m 1x98
 116 669 l 1
 388 669 l 2
 543 669 624 620 624 523 c 0x24
 624 482 606 442 577 417 c 0
 542 388 511 374 435 354 c 1
 536 322 573 284 573 207 c 0
 573 78 460 0 277 0 c 2x68
 -23 0 l 1
 -23 25 l 1
 23 31 40 45 56 97 c 1
 179 546 l 2
 185 571 189 593 189 603 c 0
 189 615 182 628 173 633 c 0
 161 640 152 642 116 645 c 1x98
270 338 m 1
 204 94 l 1
 201 81 198 72 198 64 c 0
 198 42 217 32 255 32 c 0
 299 32 333 45 360 72 c 0
 395 108 419 171 419 229 c 0x48
 419 267 407 294 385 313 c 0
 365 330 335 335 270 338 c 1
338 593 m 2
 277 368 l 1
 352 371 385 378 416 398 c 0
 456 423 478 472 478 536 c 0
 478 603 448 637 390 637 c 0x24
 357 637 349 628 338 593 c 2
EndSplineSet
EndChar
StartChar: C
Encoding: 67 67 36
Width: 666
Flags: HW
HStem: -18 53<305 335> 650 36<439 466>
VStem: 32 154<209 242>
Fore
677 686 m 1
 625 451 l 1
 595 457 l 1
 596 470 598 479 598 492 c 0
 598 590 546 650 466 650 c 0
 425 650 387 634 349 603 c 0
 258 527 186 354 186 209 c 0
 186 100 242 35 335 35 c 0
 368 35 398 41 426 53 c 0
 469 70 497 94 546 152 c 1
 576 130 l 1
 543 86 527 69 498 47 c 0
 441 4 375 -18 305 -18 c 0
 141 -18 32 86 32 242 c 0
 32 483 217 686 439 686 c 0
 480 686 527 677 571 664 c 0
 586 659 601 656 609 656 c 0
 624 656 633 664 647 686 c 1
 677 686 l 1
EndSplineSet
EndChar
StartChar: D
Encoding: 68 68 37
Width: 720
Flags: HW
HStem: 0 25<-45 -37> 0 34<212.808 244> 639 30<94 388>
VStem: 538 148<395 457>
DStem: 155 543 318 601 34 97 190 126
Fore
94 645 m 1xb0
 94 669 l 1
 384 669 l 2
 573 669 686 567 686 395 c 0
 686 168 495 0 240 0 c 2x70
 -45 0 l 1
 -45 25 l 1
 3 31 19 45 34 97 c 1
 155 543 l 1
 163 576 167 592 167 602 c 0
 167 625 157 634 125 639 c 0
 122 640 108 642 94 645 c 1xb0
318 601 m 1
 190 126 l 1
 190 126 189 125 189 122 c 0
 180 97 177 81 177 67 c 0
 177 45 193 34 231 34 c 0
 327 34 397 70 450 146 c 0
 504 224 538 343 538 457 c 0
 538 579 483 639 374 639 c 0
 341 639 325 627 318 601 c 1
EndSplineSet
EndChar
StartChar: E
Encoding: 69 69 38
Width: 666
Flags: HW
HStem: 0 32<245 527> 637 32<113 423>
DStem: 176 546 335 593 53 97 275 371 176 546 267 338 53 97 209 129
Fore
586 193 m 1
 527 0 l 1
 -26 0 l 1
 -26 25 l 1
 25 34 37 44 53 97 c 1
 176 546 l 2
 182 568 186 590 186 606 c 0
 186 627 174 636 144 639 c 0
 139 640 127 642 113 645 c 1
 113 669 l 1
 653 669 l 1
 609 479 l 1
 583 483 l 1
 583 546 576 571 554 595 c 0
 526 623 472 637 398 637 c 0
 357 637 346 628 335 593 c 1
 275 371 l 1
 407 369 434 382 480 476 c 1
 508 472 l 1
 434 199 l 1
 406 204 l 1
 409 223 410 234 410 248 c 0
 410 316 379 335 267 338 c 1
 209 129 l 1
 208 123 l 1
 207 116 205 108 204 104 c 0
 198 83 195 73 195 66 c 0
 195 42 212 32 256 32 c 0
 341 32 410 51 466 89 c 0
 505 117 526 142 561 199 c 1
 586 193 l 1
EndSplineSet
EndChar
StartChar: F
Encoding: 70 70 39
Width: 666
Flags: HW
HStem: 0 25<268.75 283> 637 32<127 443>
DStem: 190 546 350 593 67 97 289 371 190 546 280 338 67 97 226 138
Fore
516 472 m 1
 441 199 l 1
 413 204 l 1
 416 223 417 234 417 248 c 0
 417 316 387 335 280 338 c 1
 226 138 l 1
 226 135 224 129 223 122 c 0
 214 97 211 81 211 69 c 0
 211 38 226 29 283 25 c 1
 283 0 l 1
 -13 0 l 1
 -13 25 l 1
 40 34 51 44 67 97 c 1
 190 546 l 2
 196 568 201 592 201 606 c 0
 201 627 189 636 158 639 c 0
 152 640 141 642 127 645 c 1
 127 669 l 1
 661 669 l 1
 617 479 l 1
 590 483 l 1
 590 541 584 567 564 590 c 0
 538 621 486 637 413 637 c 0
 374 637 360 628 350 593 c 1
 289 371 l 1
 420 371 439 382 486 476 c 1
 516 472 l 1
EndSplineSet
MinimumDistance: x6,9 
EndChar
StartChar: G
Encoding: 71 71 40
Width: 720
Flags: HW
HStem: -18 39<316 343> 305 25<419 427.4 695.4 706> 649 37<446 470>
VStem: 21 156<208 250>
Fore
706 330 m 1
 706 305 l 1
 653 300 646 291 627 223 c 1
 579 41 l 1
 551 28 l 2
 494 1 394 -18 316 -18 c 0
 142 -18 21 92 21 250 c 0
 21 404 108 555 240 631 c 0
 300 666 372 686 448 686 c 0
 494 686 527 680 573 664 c 0
 590 658 599 655 608 655 c 0
 628 655 639 664 650 686 c 1
 681 686 l 1
 630 464 l 1
 601 469 l 1
 599 536 592 565 570 598 c 0
 548 630 508 649 461 649 c 0
 417 649 374 633 335 601 c 0
 245 524 177 357 177 208 c 0
 177 86 234 21 341 21 c 0
 379 21 420 34 435 50 c 0
 439 56 439 56 461 133 c 0
 489 226 494 242 494 268 c 0
 494 277 486 289 480 291 c 0
 470 297 461 300 419 305 c 1
 419 330 l 1
 706 330 l 1
EndSplineSet
MinimumDistance: x3,0 
EndChar
StartChar: H
Encoding: 72 72 41
Width: 777
Flags: HW
HStem: 0 25<256.25 272 340 356.75 602 658 658 658> 330 44<278 505> 645 24<412 434>
DStem: 179 546 333 573 56 97 278 374 179 546 267 330 56 97 215 148 505 330 718 573 441 97 609 174 564 546 718 573 517 374 609 174
Fore
658 25 m 1
 658 0 l 1
 340 0 l 1
 340 25 l 1
 407 29 428 42 441 97 c 1
 505 330 l 1
 267 330 l 1
 215 148 l 1
 215 144 212 138 212 132 c 0
 204 100 199 82 199 67 c 0
 199 37 209 29 272 25 c 1
 272 0 l 1
 -23 0 l 1
 -23 25 l 1
 26 32 40 45 56 97 c 1
 179 546 l 2
 185 573 189 593 189 603 c 0
 189 625 179 636 146 639 c 0
 142 640 130 642 116 645 c 1
 116 669 l 1
 434 669 l 1
 434 645 l 1
 368 642 349 627 333 573 c 1
 278 374 l 1
 517 374 l 1
 564 546 l 2
 568 564 574 595 574 606 c 0
 574 627 564 636 533 639 c 0
 527 640 516 642 501 645 c 1
 501 669 l 1
 798 669 l 1
 798 645 l 1
 749 637 734 625 718 573 c 1
 609 174 l 1
 603 152 l 2
 589 103 584 81 584 66 c 0
 584 37 602 26 658 25 c 1
EndSplineSet
MinimumDistance: x7,4 x15,12 x18,1 x15,4 x26,1 x18,21 
EndChar
StartChar: I
Encoding: 73 73 42
Width: 388
Flags: HW
HStem: 0 25<-32 -23.6667 245 264> 645 24<397.333 406>
DStem: 171 546 324 573 48 97 209 152
Fore
264 25 m 1
 264 0 l 1
 -32 0 l 1
 -32 25 l 1
 18 31 32 45 48 97 c 1
 171 546 l 2
 176 564 182 595 182 606 c 0
 182 627 171 636 141 639 c 0
 135 640 122 642 108 645 c 1
 108 669 l 1
 406 669 l 1
 406 645 l 1
 354 639 340 625 324 573 c 1
 209 152 l 2
 196 103 192 81 192 64 c 0
 192 37 207 28 264 25 c 1
EndSplineSet
MinimumDistance: x10,1 x7,4 
EndChar
StartChar: J
Encoding: 74 74 43
Width: 499
Flags: HW
HStem: -100 37<82 105> 645 24<515.833 524>
VStem: -45 126<-1 13>
DStem: 289 546 442 573 174 114 315 92
Fore
524 669 m 1
 524 645 l 1
 475 639 460 625 442 573 c 1
 315 92 l 2
 280 -38 214 -100 105 -100 c 0
 18 -100 -45 -56 -45 1 c 0
 -45 41 -18 72 18 72 c 0
 53 72 81 44 81 9 c 0
 81 -4 78 -12 67 -23 c 0
 60 -34 59 -38 59 -45 c 0
 59 -57 67 -63 85 -63 c 0
 122 -63 136 -35 174 114 c 2
 289 546 l 2
 296 573 300 595 300 606 c 0
 300 625 287 636 258 639 c 0
 253 640 242 642 227 645 c 1
 227 669 l 1
 524 669 l 1
EndSplineSet
MinimumDistance: x3,0 
EndChar
StartChar: K
Encoding: 75 75 44
Width: 666
Flags: HW
HStem: 0 25<-21 -12.8333 254.75 268 333 344 602.5 612> 642 27<491 513>
DStem: 182 546 335 573 59 97 272 344 182 546 271 337 59 97 204 88 271 337 393 398 384 95 549 60
Fore
393 398 m 1
 549 60 l 2
 560 37 574 29 612 25 c 1
 612 0 l 1
 333 0 l 1
 333 25 l 1
 344 26 354 26 359 28 c 0
 385 29 397 38 397 53 c 0
 397 63 393 75 384 95 c 2
 271 337 l 1
 204 88 l 1
 204 83 202 78 202 70 c 0
 202 38 215 29 268 25 c 1
 268 0 l 1
 -21 0 l 1
 -21 25 l 1
 28 31 42 44 59 97 c 1
 182 546 l 2
 187 573 192 593 192 603 c 0
 192 625 182 636 149 639 c 0
 145 640 133 642 119 645 c 1
 119 669 l 1
 429 669 l 1
 429 645 l 1
 371 639 352 624 335 573 c 1
 272 344 l 1
 479 520 546 587 546 617 c 0
 546 631 538 639 513 642 c 0
 508 642 499 643 491 645 c 1
 491 669 l 1
 702 669 l 1
 702 645 l 1
 659 639 650 636 608 596 c 2
 393 398 l 1
EndSplineSet
MinimumDistance: x16,13 x19,22 
EndChar
StartChar: L
Encoding: 76 76 45
Width: 610
Flags: HW
HStem: 0 32<249 532> 645 24<421.8 435>
DStem: 182 546 334 573 59 97 205 94
Fore
590 193 m 1
 532 0 l 1
 -22 0 l 1
 -22 25 l 1
 26 32 42 45 59 97 c 1
 182 546 l 2
 186 564 190 595 190 606 c 0
 190 627 182 636 149 639 c 0
 145 640 132 642 119 645 c 1
 119 669 l 1
 435 669 l 1
 435 645 l 1
 369 640 350 627 334 573 c 1
 205 94 l 2
 202 83 201 70 201 62 c 0
 201 41 220 32 264 32 c 0
 346 32 417 53 472 89 c 0
 510 119 532 144 565 199 c 1
 590 193 l 1
EndSplineSet
MinimumDistance: x8,5 
EndChar
StartChar: M
Encoding: 77 77 46
Width: 887
Flags: HW
HStem: 0 25<171.778 179 463 479 755.333 775> 645 24<120 141 908.5 917>
DStem: 182 551 218 546 72 179 117 179 218 546 341 669 286 -12 395 189 688 561 836 573 562 97 713 123 705 669 688 561 395 189 313 -12
Fore
917 669 m 1
 917 645 l 1
 866 639 851 624 836 573 c 1
 713 123 l 1
 712 119 l 1
 710 113 l 1
 705 92 703 78 703 67 c 0
 703 37 716 28 775 25 c 1
 775 0 l 1
 463 0 l 1
 463 25 l 1
 527 29 546 42 562 97 c 1
 688 561 l 1
 313 -12 l 1
 286 -12 l 1
 218 546 l 1
 117 179 l 2
 104 130 98 103 98 86 c 0
 98 45 114 34 179 25 c 1
 179 0 l 1
 -29 0 l 1
 -29 25 l 1
 25 37 32 48 72 179 c 1
 182 551 l 2
 187 576 192 596 192 609 c 0
 192 637 183 642 120 645 c 1
 120 669 l 1
 341 669 l 1
 395 189 l 1
 705 669 l 1
 917 669 l 1
EndSplineSet
MinimumDistance: x23,1 x13,16 
EndChar
StartChar: N
Encoding: 78 78 47
Width: 720
Flags: HW
HStem: 0 25<167 182> 645 24<111 120.167 539 548.833>
DStem: 193 589 218 535 75 179 119 179 218 535 306 669 475 -15 521 204 601 491 646 491 521 204 502 -15
Fore
306 669 m 1
 521 204 l 1
 601 491 l 2
 612 532 620 567 620 584 c 0
 620 623 598 639 539 645 c 1
 539 669 l 1
 749 669 l 1
 749 645 l 1
 690 631 686 623 646 491 c 1
 502 -15 l 1
 475 -15 l 1
 218 535 l 1
 119 179 l 1
 108 138 101 103 101 83 c 0
 101 45 122 29 182 25 c 1
 182 0 l 1
 -26 0 l 1
 -26 25 l 1
 28 37 35 47 75 179 c 1
 193 589 l 1
 174 633 166 639 111 645 c 1
 111 669 l 1
 306 669 l 1
EndSplineSet
MinimumDistance: x3,0 x12,15 
EndChar
StartChar: O
Encoding: 79 79 48
Width: 720
Flags: HW
HStem: -18 34<262 283> 650 36<441 459>
VStem: 26 145<138 221> 546 145<454 532>
Fore
450 686 m 0
 587 686 691 587 691 454 c 0
 691 308 609 149 485 59 c 0
 417 7 341 -18 264 -18 c 0
 122 -18 26 78 26 221 c 0
 26 360 113 521 234 609 c 0
 302 659 376 686 450 686 c 0
445 650 m 0
 381 650 328 609 277 520 c 0
 223 423 171 239 171 138 c 0
 171 63 209 16 272 16 c 0
 327 16 372 45 417 113 c 0
 485 211 546 412 546 532 c 0
 546 603 505 650 445 650 c 0
EndSplineSet
EndChar
StartChar: P
Encoding: 80 80 49
Width: 610
Flags: HW
HStem: 0 25<248.333 267> 316 36<309 340> 637 32<113 391>
VStem: 467 145<514 546>
DStem: 176 546 333 593 53 97 270 354 176 546 259 322 53 97 205 123
Fore
113 645 m 1
 113 669 l 1
 400 669 l 2
 539 669 612 615 612 514 c 0
 612 394 505 316 340 316 c 0
 313 316 294 318 259 322 c 1
 205 123 l 1
 201 107 195 75 195 64 c 0
 195 37 211 28 267 25 c 1
 267 0 l 1
 -26 0 l 1
 -26 25 l 1
 25 34 37 44 53 97 c 1
 176 546 l 2
 182 568 186 592 186 606 c 0
 186 627 174 636 144 639 c 0
 139 640 127 642 113 645 c 1
333 593 m 1
 270 354 l 1
 286 353 297 352 311 352 c 0
 381 352 417 375 444 434 c 0
 458 464 467 511 467 546 c 0
 467 603 437 637 382 637 c 0
 365 637 353 633 344 623 c 0
 340 617 340 617 333 593 c 1
EndSplineSet
MinimumDistance: x11,14 
EndChar
StartChar: Q
Encoding: 81 81 50
Width: 720
Flags: HW
HStem: -208 89<395 479> -161 138<157 198> 650 36<441 459>
VStem: 26 145<136 211> 546 145<453 532>
Fore
634 -40 m 1xb8
 655 -59 l 1
 574 -168 505 -208 395 -208 c 0xb8
 354 -208 322 -202 261 -182 c 0
 208 -166 185 -161 157 -161 c 0
 125 -161 97 -168 42 -189 c 1
 28 -166 l 1
 185 -35 l 2
 192 -28 196 -23 198 -23 c 0x78
 201 -21 201 -19 204 -16 c 1
 201 -12 196 -10 189 -7 c 0
 136 12 123 19 97 44 c 0
 53 86 26 146 26 211 c 0
 26 454 233 686 450 686 c 0
 589 686 691 587 691 453 c 0
 691 319 624 179 514 81 c 0
 437 12 382 -9 252 -18 c 1
 231 -37 207 -62 207 -64 c 0
 207 -67 215 -70 245 -72 c 0
 286 -75 330 -82 354 -89 c 2
 395 -103 l 2
 432 -114 453 -119 479 -119 c 0
 539 -119 576 -100 634 -40 c 1xb8
445 650 m 0
 381 650 328 609 277 520 c 0
 223 423 171 239 171 136 c 0
 171 63 209 18 272 18 c 0
 327 18 372 47 417 114 c 0
 485 212 546 412 546 532 c 0
 546 603 505 650 445 650 c 0
EndSplineSet
EndChar
StartChar: R
Encoding: 82 82 51
Width: 666
Flags: HW
HStem: 0 25<-29 -20.6667 252.5 267 588 602> 637 32<111 389>
VStem: 472 151<524 544>
DStem: 174 546 333 593 51 97 272 363 174 546 264 331 51 97 209 138 293 331 431 343 400 0 514 97
Fore
111 645 m 1
 111 669 l 1
 387 669 l 2
 545 669 623 623 623 526 c 0
 623 470 595 419 543 385 c 0
 511 365 486 354 431 343 c 1
 514 97 l 1
 536 38 546 29 602 25 c 1
 602 0 l 1
 400 0 l 1
 293 331 l 1
 264 331 l 1
 209 138 l 2
 201 107 195 81 195 67 c 0
 195 37 209 29 267 25 c 1
 267 0 l 1
 -29 0 l 1
 -29 25 l 1
 21 31 35 45 51 97 c 1
 174 546 l 1
 179 562 185 595 185 606 c 0
 185 627 174 636 144 639 c 0
 138 640 125 642 111 645 c 1
333 593 m 1
 272 363 l 1
 335 365 374 371 400 388 c 0
 442 415 472 476 472 542 c 0
 472 602 439 637 382 637 c 0
 352 637 341 628 333 593 c 1
EndSplineSet
MinimumDistance: x14,17 
EndChar
StartChar: S
Encoding: 83 83 52
Width: 555
Flags: HW
HStem: -18 34<219 239> 650 36<303 327>
VStem: 103 120<491 545> 347 122<142 185>
Fore
1 -18 m 1
 38 207 l 1
 67 204 l 1
 70 144 79 114 98 83 c 0
 123 41 168 16 221 16 c 0
 270 16 305 35 328 75 c 0
 340 97 347 120 347 142 c 0
 347 187 312 234 234 294 c 0
 179 338 138 382 116 425 c 0
 107 442 103 464 103 491 c 0
 103 601 189 686 303 686 c 0
 331 686 357 680 401 666 c 0
 426 659 442 655 453 655 c 0
 473 655 486 664 497 681 c 1
 526 681 l 1
 486 480 l 1
 458 483 l 1
 445 601 407 650 327 650 c 0
 264 650 223 609 223 545 c 0
 223 499 237 478 300 431 c 0
 422 338 469 271 469 185 c 0
 469 62 379 -18 239 -18 c 0
 199 -18 166 -12 116 6 c 0
 92 15 81 18 70 18 c 0
 51 18 44 12 32 -18 c 1
 1 -18 l 1
EndSplineSet
EndChar
StartChar: T
Encoding: 84 84 53
Width: 610
Flags: HW
HStem: 0 25<50 381 357.667 381> 634 35<100 470.67>
DStem: 303 634 450 634 155 97 309 127
Fore
650 669 m 1
 614 478 l 1
 587 479 l 1
 582 590 543 633 450 634 c 1
 309 127 l 2
 302 103 297 81 297 66 c 0
 297 34 311 28 381 25 c 1
 381 0 l 1
 50 0 l 1
 50 25 l 1
 64 25 l 2
 116 25 141 45 155 97 c 2
 303 634 l 1
 201 631 138 590 86 491 c 1
 62 498 l 1
 100 669 l 1
 650 669 l 1
EndSplineSet
MinimumDistance: x8,11 
EndChar
StartChar: U
Encoding: 85 85 54
Width: 720
Flags: HW
HStem: -18 56<290 327> 640 29<98 129>
VStem: 67 138<137 159>
DStem: 157 529 315 573 100 324 233 272 598 491 642 491 539 283 576 264
Fore
744 669 m 1
 744 645 l 1
 688 633 683 623 642 491 c 1
 576 264 l 2
 545 155 521 101 486 62 c 0
 442 9 375 -18 290 -18 c 0
 160 -18 67 50 67 148 c 0
 67 182 79 243 100 324 c 1
 157 529 l 2
 166 562 171 593 171 605 c 0
 171 627 161 636 129 640 c 0
 125 640 111 642 98 645 c 1
 98 669 l 1
 409 669 l 1
 409 645 l 1
 347 642 333 628 315 573 c 1
 233 272 l 2
 208 182 205 166 205 139 c 0
 205 76 250 38 327 38 c 0
 382 38 426 59 460 98 c 0
 491 135 513 185 539 283 c 2
 598 491 l 1
 608 532 617 571 617 587 c 0
 617 623 593 639 536 645 c 1
 536 669 l 1
 744 669 l 1
EndSplineSet
MinimumDistance: x3,0 x12,9 
EndChar
StartChar: V
Encoding: 86 86 55
Width: 666
Flags: HW
HStem: 642 27<523 548>
DStem: 529 483 656 603 338 182 264 -18
Fore
715 669 m 1
 715 645 l 1
 687 636 669 623 656 603 c 1
 264 -18 l 1
 231 -18 l 1
 155 491 l 1
 133 634 127 645 64 645 c 1
 64 669 l 1
 363 669 l 1
 363 645 l 1
 296 639 287 633 287 599 c 0
 287 593 287 589 289 583 c 1
 338 182 l 1
 529 483 l 2
 568 545 587 589 587 611 c 0
 587 630 576 639 548 642 c 0
 543 642 535 643 523 645 c 1
 523 669 l 1
 715 669 l 1
EndSplineSet
EndChar
StartChar: W
Encoding: 87 87 56
Width: 887
Flags: HW
HStem: 645 24<333.167 341 400 407.5 660.333 669 753 764.2>
VStem: 472 134<538 586>
DStem: 142 561 283 576 220 -18 321 226 472 538 482 472 321 226 249 -18 482 472 612 521 541 -18 645 226 801 554 855 573 645 226 570 -18
Fore
940 669 m 1
 940 645 l 1
 898 639 885 627 855 573 c 1
 570 -18 l 1
 541 -18 l 1
 482 472 l 1
 249 -18 l 1
 220 -18 l 1
 142 561 l 1
 132 631 130 634 64 645 c 1
 64 669 l 1
 341 669 l 1
 341 645 l 1
 294 639 281 627 281 590 c 0
 281 587 281 580 283 576 c 1
 321 226 l 1
 472 538 l 1
 470 623 460 637 400 645 c 1
 400 669 l 1
 669 669 l 1
 669 645 l 1
 617 639 606 630 606 586 c 0
 606 576 606 573 612 521 c 1
 645 226 l 1
 801 554 l 2
 813 579 816 587 816 599 c 0
 816 636 809 640 753 645 c 1
 753 669 l 1
 940 669 l 1
EndSplineSet
EndChar
StartChar: X
Encoding: 88 88 57
Width: 666
Flags: HW
HStem: 0 25<178.75 190 278 291.75 578 586> 642 27<100 392.531 491 513>
DStem: 275 309 289 264 207 234 155 116 476 520 595 583 382 420 395 378
Fore
586 25 m 1
 586 0 l 1
 278 0 l 1
 278 25 l 1
 333 29 346 38 346 63 c 0
 346 83 335 127 308 204 c 0
 294 243 293 250 289 264 c 1
 155 116 l 2
 133 92 125 78 125 64 c 0
 125 42 145 29 190 25 c 1
 190 0 l 1
 -23 0 l 1
 -23 25 l 1
 18 34 48 62 207 234 c 0
 245 275 249 281 275 309 c 1
 190 582 l 1
 174 627 160 639 100 645 c 1
 100 669 l 1
 404 669 l 1
 404 645 l 1
 391 642 379 642 375 642 c 0
 341 637 331 628 331 605 c 0
 331 590 341 549 365 476 c 0
 368 472 369 464 371 458 c 2
 382 420 l 1
 476 520 l 2
 527 574 546 601 546 618 c 0
 546 633 536 640 513 642 c 0
 508 642 501 643 491 645 c 1
 491 669 l 1
 694 669 l 1
 694 645 l 1
 658 639 639 627 595 583 c 1
 395 378 l 1
 470 141 l 2
 499 47 514 34 586 25 c 1
EndSplineSet
EndChar
StartChar: Y
Encoding: 89 89 58
Width: 610
Flags: HW
HStem: 0 25<73 90.25 373.333 395> 645 24<328 356 451 468.667>
DStem: 234 313 378 308 174 97 327 117 492 538 568 576 363 352 378 308
Fore
234 313 m 1
 146 582 l 1
 127 634 125 637 73 645 c 1
 73 669 l 1
 356 669 l 1
 356 645 l 1
 300 643 286 636 286 606 c 0
 286 590 296 554 319 488 c 0
 322 478 330 458 338 429 c 0
 341 417 356 374 363 352 c 1
 492 538 l 2
 513 567 519 580 519 598 c 0
 519 633 504 642 451 645 c 1
 451 669 l 1
 659 669 l 1
 659 645 l 1
 621 636 602 621 568 576 c 1
 378 308 l 1
 327 117 l 2
 319 94 318 83 318 72 c 0
 318 35 330 28 395 25 c 1
 395 0 l 1
 73 0 l 1
 73 25 l 1
 142 29 157 40 174 97 c 1
 234 313 l 1
EndSplineSet
MinimumDistance: x16,19 
EndChar
StartChar: Z
Encoding: 90 90 59
Width: 610
Flags: HW
HStem: 0 35<157 495> 634 35<122 423>
DStem: 423 634 590 640 -12 29 157 35
Fore
554 193 m 1
 495 0 l 1
 -12 0 l 1
 -12 29 l 1
 423 634 l 1
 346 634 l 2
 234 634 171 598 92 486 c 1
 64 491 l 1
 122 669 l 1
 590 669 l 1
 590 640 l 1
 157 35 l 1
 226 35 l 2
 313 35 374 48 417 81 c 0
 458 107 497 149 527 199 c 1
 554 193 l 1
EndSplineSet
EndChar
StartChar: bracketleft
Encoding: 91 91 60
Width: 332
Flags: HW
HStem: -160 35<106 182> 639 35<163 354>
DStem: 163 674 234 576 -37 -160 76 -100
Fore
354 639 m 1
 286 639 l 2
 250 639 248 636 234 576 c 2
 76 -100 l 2
 75 -104 79 -113 83 -117 c 0
 88 -122 97 -125 111 -125 c 2
 189 -125 l 1
 182 -160 l 1
 -37 -160 l 1
 163 674 l 1
 362 674 l 1
 354 639 l 1
EndSplineSet
EndChar
StartChar: backslash
Encoding: 92 92 61
Width: 276
Flags: HW
DStem: -1 686 83 686 195 -18 278 -18
Fore
-1 686 m 1
 83 686 l 1
 278 -18 l 1
 195 -18 l 1
 -1 686 l 1
EndSplineSet
EndChar
StartChar: bracketright
Encoding: 93 93 62
Width: 332
Flags: HW
HStem: -157 35<-49 144> 639 35<122 201>
DStem: 229 617 343 674 70 -62 144 -157
Fore
-48 -122 m 1
 19 -122 l 2
 56 -122 57 -119 70 -62 c 1
 229 617 l 2
 231 628 215 639 193 639 c 2
 116 639 l 1
 123 674 l 1
 343 674 l 1
 144 -157 l 1
 -56 -157 l 1
 -48 -122 l 1
EndSplineSet
EndChar
StartChar: asciicircum
Encoding: 94 94 63
Width: 569
Flags: HW
DStem: 245 669 286 576 67 305 157 305 286 576 325 669 415 305 502 305
Fore
157 305 m 1
 67 305 l 1
 245 669 l 1
 325 669 l 1
 502 305 l 1
 415 305 l 1
 286 576 l 1
 157 305 l 1
EndSplineSet
EndChar
StartChar: underscore
Encoding: 95 95 64
Width: 499
Flags: HW
HStem: -125 50<0 499>
Fore
499 -125 m 1
 0 -125 l 1
 0 -75 l 1
 499 -75 l 1
 499 -125 l 1
EndSplineSet
EndChar
StartChar: grave
Encoding: 96 96 65
Width: 292
Flags: HW
Fore
315 413 m 1
 277 467 215 557 208 577 c 0
 195 614 212 652 252 672 c 0
 291 691 324 680 335 642 c 0
 343 623 352 504 354 434 c 1
 315 413 l 1
EndSplineSet
EndChar
StartChar: a
Encoding: 97 97 66
Width: 499
Flags: HW
HStem: -13 72<86 146> 441 20G<190.5 273>
VStem: -21 124<99.3428 129> 237 113<53 72>
Fore
434 127 m 1
 456 111 l 1
 398 25 352 -15 305 -15 c 0
 267 -15 237 15 237 53 c 0
 237 66 240 81 250 119 c 1
 193 23 148 -13 86 -13 c 0
 22 -13 -21 38 -21 114 c 0
 -21 270 129 461 252 461 c 0
 294 461 316 441 327 390 c 1
 344 450 l 1
 456 456 l 1
 384 220 l 2
 360 139 350 97 350 72 c 0
 350 63 354 57 362 57 c 0
 378 57 393 72 434 127 c 1
267 420 m 0
 239 422 207 391 176 338 c 0
 135 264 103 164 103 111 c 0
 103 81 122 59 146 59 c 0
 174 59 204 85 231 133 c 0
 270 201 303 313 303 374 c 0
 303 400 289 417 267 420 c 0
EndSplineSet
EndChar
StartChar: b
Encoding: 98 98 67
Width: 499
Flags: HW
HStem: -13 34<125 146> 394 67<275 333> 642 27<76 84.1818>
VStem: -15 123<47 52> 319 125<322 340>
Fore
76 642 m 1
 76 669 l 1
 166 680 214 686 284 699 c 1
 193 371 l 1
 245 438 281 461 333 461 c 0
 398 461 444 412 444 338 c 0
 444 160 287 -13 125 -13 c 0
 59 -13 -15 19 -15 47 c 0
 -15 53 -3 97 6 127 c 2
 100 456 l 2
 126 546 139 599 139 612 c 0
 139 636 125 642 76 642 c 1
275 394 m 0
 242 394 209 365 185 308 c 0
 168 272 146 209 135 170 c 0
 127 138 108 56 108 47 c 0
 108 32 122 21 141 21 c 0
 183 21 223 51 256 111 c 0
 291 173 319 267 319 325 c 0
 319 371 305 394 275 394 c 0
EndSplineSet
EndChar
StartChar: c
Encoding: 99 99 68
Width: 443
Flags: HW
HStem: -13 64<148 196> 429 32<267 280>
VStem: -4 127<123 148> 272 121<354 372>
Fore
318 141 m 1
 346 123 l 1
 311 73 294 54 270 32 c 0
 234 3 192 -13 148 -13 c 0
 59 -13 -4 48 -4 138 c 0
 -4 297 139 461 280 461 c 0
 346 461 393 425 393 372 c 0
 393 331 366 302 330 302 c 0
 297 302 272 324 272 354 c 0
 272 366 275 376 286 393 c 0
 291 401 293 409 293 412 c 0
 293 422 283 429 271 429 c 0
 242 429 211 404 185 357 c 0
 149 293 123 204 123 141 c 0
 123 86 152 51 196 51 c 0
 239 51 270 75 318 141 c 1
EndSplineSet
EndChar
StartChar: d
Encoding: 100 100 69
Width: 499
Flags: HW
HStem: -13 72<85 144> 441 20G<189.5 265> 643 26<308 319.222>
VStem: 240 109<51 70>
Fore
428 130 m 1
 450 116 l 1
 394 26 349 -12 300 -12 c 0
 262 -12 240 12 240 51 c 0
 240 66 243 81 250 119 c 1
 193 23 148 -13 85 -13 c 0
 23 -13 -21 40 -21 111 c 0
 -21 270 129 461 250 461 c 0
 280 461 299 453 324 429 c 1
 341 497 l 1
 365 582 371 606 371 615 c 0
 371 633 354 643 330 643 c 2
 308 643 l 1
 308 669 l 1
 409 678 457 686 517 699 c 1
 406 294 l 2
 371 167 349 81 349 70 c 0
 349 64 354 59 360 59 c 0
 375 59 400 86 428 130 c 1
271 420 m 0
 242 422 205 390 173 333 c 0
 138 268 105 176 103 122 c 0
 101 86 119 59 144 59 c 0
 173 59 202 83 230 133 c 0
 264 196 308 328 308 371 c 0
 308 398 293 419 271 420 c 0
EndSplineSet
EndChar
StartChar: e
Encoding: 101 101 70
Width: 443
Flags: HW
HStem: -13 64<157 201> 429 32<275 293>
VStem: 4 131<133 148> 306 92<375 395>
Fore
316 142 m 1
 346 125 l 1
 286 26 231 -13 157 -13 c 0
 69 -13 4 50 4 133 c 0
 4 299 149 461 293 461 c 0
 354 461 398 426 398 375 c 0
 398 340 379 302 344 270 c 0
 294 224 245 202 141 182 c 1
 138 163 135 149 135 133 c 0
 135 79 157 51 201 51 c 0
 242 51 270 73 316 142 c 1
148 214 m 1
 160 218 174 223 182 226 c 0
 258 253 306 319 306 395 c 0
 306 417 297 429 278 429 c 0
 230 429 185 352 148 214 c 1
EndSplineSet
EndChar
StartChar: f
Encoding: 102 102 71
Width: 332
Flags: HW
HStem: -205 31<-73 -55> 407 43<47 111 236 319> 669 30<343 349>
VStem: -168 85<-163 -126> -168 101<-128 -118> 346 99<610 620>
Fore
328 450 m 1xf4
 319 407 l 1
 229 407 l 1
 174 154 164 108 141 29 c 0
 107 -73 81 -126 40 -163 c 0
 9 -190 -28 -205 -70 -205 c 0
 -130 -205 -168 -174 -168 -126 c 0xf4
 -168 -97 -145 -72 -117 -72 c 0
 -92 -72 -67 -97 -67 -120 c 0xec
 -67 -130 -72 -144 -81 -154 c 0
 -83 -158 -83 -161 -83 -163 c 0
 -83 -168 -76 -174 -66 -174 c 0
 -26 -174 -7 -133 23 15 c 0
 29 44 59 168 111 407 c 1
 40 407 l 1
 48 450 l 1
 122 450 l 1
 149 549 168 590 211 637 c 0
 248 677 294 699 347 699 c 0
 407 699 445 666 445 618 c 0
 445 587 425 565 395 565 c 0
 368 565 346 587 346 614 c 0
 346 624 349 633 357 645 c 0
 360 650 362 653 362 656 c 0
 362 664 354 669 346 669 c 0
 311 669 278 620 253 520 c 2
 236 450 l 1
 328 450 l 1xf4
EndSplineSet
MinimumDistance: x8,11 
EndChar
StartChar: g
Encoding: 103 103 72
Width: 499
Flags: HW
HStem: -204 36<134 156> 152 33<188 203> 374 55<368 478> 431 30<250 258>
VStem: -53 88<-102 -89> 35 116<243 280> 267 108<-100 -53> 300 117<331 372> 300 178<374 385.29>
Fore
478 429 m 1xfc80
 478 374 l 1xfc80
 412 374 l 1
 416 357 417 347 417 331 c 0xfd
 417 271 387 220 328 187 c 0
 289 166 245 152 201 152 c 0
 190 152 182 154 170 157 c 0
 163 160 155 161 149 161 c 0
 138 161 122 141 122 125 c 0
 122 110 141 97 173 86 c 2
 226 72 l 2
 335 41 375 7 375 -53 c 0xfe
 375 -141 275 -204 136 -204 c 0
 21 -204 -53 -163 -53 -97 c 0
 -53 -73 -41 -48 -23 -35 c 0
 -1 -16 19 -7 81 7 c 1
 37 22 19 42 19 73 c 0
 19 110 34 125 116 170 c 1
 62 193 35 229 35 280 c 0
 35 381 133 461 256 461 c 0
 303 461 334 453 368 429 c 1
 478 429 l 1xfc80
116 -6 m 0
 108 -4 78 -23 64 -35 c 0
 44 -56 35 -70 35 -91 c 0
 35 -138 81 -168 146 -168 c 0
 223 -168 267 -144 267 -100 c 0xfe
 267 -75 253 -56 226 -42 c 0
 205 -34 126 -7 116 -6 c 0
255 431 m 0
 229 431 208 415 189 382 c 0
 168 344 151 283 151 243 c 0
 151 205 166 185 193 185 c 0
 224 185 249 207 271 252 c 0
 289 289 300 338 300 372 c 0xfd
 300 406 281 431 255 431 c 0
EndSplineSet
EndChar
StartChar: h
Encoding: 104 104 73
Width: 555
Flags: HW
HStem: 0 21G<-13 108> 390 71<331 398>
VStem: 353 122<369 387>
DStem: 141 567 294 699 -13 0 187 283
Fore
476 142 m 1
 498 127 l 1
 432 23 393 -9 331 -9 c 0
 291 -9 265 15 265 48 c 0
 265 89 278 141 327 280 c 0
 330 290 333 300 337 313 c 0
 344 333 349 344 349 346 c 0
 352 354 353 363 353 369 c 0
 353 379 343 390 331 390 c 0
 305 390 272 360 230 300 c 0
 180 229 160 179 108 0 c 1
 -13 0 l 1
 141 567 l 2
 146 586 149 601 149 609 c 0
 149 631 135 643 108 643 c 0
 103 643 94 643 86 642 c 1
 86 669 l 1
 167 677 217 684 294 699 c 1
 187 283 l 1
 243 363 267 393 297 419 c 0
 334 450 363 461 398 461 c 0
 445 461 475 434 475 387 c 0
 475 368 464 327 445 265 c 1
 387 86 l 2
 384 78 384 78 384 75 c 0
 384 67 394 59 401 59 c 0
 415 59 434 81 476 142 c 1
EndSplineSet
MinimumDistance: x21,1 x12,15 
EndChar
StartChar: i
Encoding: 105 105 74
Width: 276
Flags: HW
HStem: -9 71<70 138> 407 27<21 36.8> 549 137<182.896 204>
DStem: 73 338 223 461 15 123 132 127
Fore
215 141 m 1
 237 127 l 1
 168 22 130 -9 70 -9 c 0
 29 -9 1 18 1 54 c 0
 1 67 7 95 15 123 c 1
 73 338 l 1
 78 354 81 371 81 378 c 0
 81 398 64 407 21 407 c 1
 21 434 l 1
 100 439 168 450 223 461 c 1
 132 127 l 2
 129 116 123 82 123 76 c 0
 123 67 130 62 138 62 c 0
 152 62 176 82 202 122 c 2
 215 141 l 1
193 686 m 0
 231 686 264 653 264 617 c 0
 264 580 231 549 193 549 c 0
 157 549 127 580 127 620 c 0
 127 653 160 686 193 686 c 0
EndSplineSet
MinimumDistance: x8,1 
EndChar
StartChar: j
Encoding: 106 106 75
Width: 276
Flags: HW
HStem: -207 31<-85 -76> 407 27<31 42.3> 549 137<198.433 212>
VStem: -189 84<-164 -130> -189 98<-132 -124> 144 134<608 626>
DStem: 81 311 239 461 -12 -45 125 23
Fore
31 407 m 1xf4
 31 434 l 1
 144 444 180 450 239 461 c 1
 125 23 l 2
 85 -130 16 -207 -83 -207 c 0
 -146 -207 -189 -176 -189 -130 c 0xf4
 -189 -101 -166 -78 -141 -78 c 0
 -113 -78 -91 -100 -91 -126 c 0xec
 -91 -138 -92 -142 -104 -158 c 0
 -105 -160 -105 -163 -105 -164 c 0
 -105 -168 -92 -176 -82 -176 c 0
 -54 -176 -37 -145 -12 -45 c 2
 81 311 l 1
 88 338 92 365 92 376 c 0
 92 401 81 407 31 407 c 1xf4
209 686 m 0
 248 686 278 653 278 617 c 0
 278 580 248 549 209 549 c 0
 173 549 144 580 144 620 c 0
 144 653 174 686 209 686 c 0
EndSplineSet
EndChar
StartChar: k
Encoding: 107 107 76
Width: 499
Flags: HW
HStem: -7 70<311 363> 423 27<275 315 475.333 483>
DStem: 133 567 286 699 -23 0 163 239 133 567 149 187 -23 0 100 0
Fore
149 187 m 1
 100 0 l 1
 -23 0 l 1
 133 567 l 2
 138 586 141 601 141 609 c 0
 141 631 127 643 100 643 c 0
 95 643 86 643 78 642 c 1
 78 669 l 1
 157 677 209 686 286 699 c 1
 163 239 l 1
 289 338 327 375 327 401 c 0
 327 417 315 422 275 423 c 1
 275 450 l 1
 483 450 l 1
 483 423 l 1
 437 417 416 406 349 349 c 2
 286 293 l 1
 324 98 335 63 363 63 c 0
 382 63 398 81 425 127 c 1
 447 116 l 1
 397 25 360 -7 311 -7 c 0
 249 -7 220 45 187 215 c 1
 149 187 l 1
EndSplineSet
MinimumDistance: x17,20 
EndChar
StartChar: l
Encoding: 108 108 77
Width: 276
Flags: HW
HStem: -9 71<69 138>
DStem: 110 473 290 699 37 209 145 176
Fore
215 141 m 1
 237 127 l 1
 168 22 130 -9 69 -9 c 0
 29 -9 1 15 1 51 c 0
 1 75 15 133 37 209 c 1
 110 473 l 1
 130 541 144 602 144 615 c 0
 144 633 129 643 103 643 c 0
 98 643 92 643 81 642 c 1
 81 669 l 1
 157 677 204 683 290 699 c 1
 145 176 l 1
 130 125 123 89 123 76 c 0
 123 67 130 62 138 62 c 0
 155 62 176 82 215 141 c 1
EndSplineSet
MinimumDistance: x8,1 
EndChar
StartChar: m
Encoding: 109 109 78
Width: 777
Flags: HW
HStem: 0 21G<-15 107 227 347> 370 20G<311.5 323 545 566.5> 407 27<34 48.375> 441 20G<374 409.5 593.5 649>
VStem: 337 119<366 394> 495 120<54 73> 583 122<368 391>
DStem: 576 338 681 284 532 207 636 151
Fore
34 407 m 1xfa
 34 434 l 1
 149 442 170 445 234 461 c 1
 170 262 l 1
 234 362 265 400 302 428 c 1
 330 451 360 461 388 461 c 0
 431 461 456 437 456 394 c 0
 456 366 448 340 429 290 c 1
 513 422 560 461 627 461 c 0
 671 461 705 431 705 391 c 0xfa
 705 365 696 327 681 284 c 1
 636 151 l 1
 615 83 615 83 615 73 c 0
 615 66 623 59 631 59 c 0
 645 59 665 81 688 117 c 0
 690 120 694 127 700 135 c 1
 722 122 l 1
 664 23 624 -9 562 -9 c 0
 519 -9 495 13 495 54 c 0xfc
 495 82 508 144 532 207 c 2
 576 338 l 1
 580 352 583 362 583 368 c 0
 583 379 573 390 560 390 c 0
 530 390 491 347 448 272 c 0
 412 209 406 192 347 0 c 1
 227 0 l 1
 262 113 275 155 291 207 c 0
 325 309 337 352 337 366 c 0
 337 379 328 390 318 390 c 0
 305 390 275 368 253 343 c 0
 198 275 160 190 107 0 c 1
 -15 0 l 1
 53 237 l 2
 81 333 88 368 88 381 c 0
 88 398 75 407 42 407 c 2
 34 407 l 1xfa
EndSplineSet
MinimumDistance: x32,1 x23,26 x20,29 x14,17 
EndChar
StartChar: n
Encoding: 110 110 79
Width: 555
Flags: HW
HStem: 0 21G<-6 116> 370 20G<320.5 335.5> 441 20G<383 424.5>
VStem: 354 121<369 387>
Fore
472 135 m 1
 494 122 l 1
 435 25 393 -9 334 -9 c 0
 291 -9 267 15 267 51 c 0
 267 78 278 133 294 182 c 2
 349 349 l 2
 352 357 354 366 354 369 c 0
 354 379 341 390 330 390 c 0
 311 390 280 368 261 341 c 0
 198 261 163 173 116 0 c 1
 -6 0 l 1
 4 37 12 62 23 108 c 1
 50 204 l 2
 83 324 97 371 97 382 c 0
 97 401 83 406 42 407 c 1
 42 434 l 1
 98 437 179 447 242 461 c 1
 179 264 l 1
 245 362 264 387 300 420 c 0
 328 447 365 461 401 461 c 0
 448 461 475 435 475 387 c 0
 475 363 464 318 448 272 c 1
 412 163 l 2
 394 108 387 86 387 76 c 0
 387 66 393 59 401 59 c 0
 417 59 431 73 472 135 c 1
EndSplineSet
MinimumDistance: x20,1 x11,14 
EndChar
StartChar: o
Encoding: 111 111 80
Width: 499
Flags: HW
HStem: -13 29<155 174> 434 27<268 286>
VStem: -3 119<78 135> 322 119<311 375>
Fore
284 461 m 0
 375 461 441 398 441 311 c 0
 441 142 305 -13 157 -13 c 0
 64 -13 -3 50 -3 135 c 0
 -3 303 138 461 284 461 c 0
275 434 m 0
 243 434 214 410 187 365 c 0
 152 302 116 157 116 78 c 0
 116 40 135 16 166 16 c 0
 201 16 230 45 259 107 c 0
 291 177 322 308 322 375 c 0
 322 412 305 434 275 434 c 0
EndSplineSet
EndChar
StartChar: p
Encoding: 112 112 81
Width: 499
Flags: HW
HStem: -205 26<-120 129 105 129> -13 35<152 168> 441 20G<309.5 371>
Fore
23 407 m 1
 23 434 l 1
 75 439 114 445 215 461 c 1
 179 347 l 1
 237 431 281 461 338 461 c 0
 404 461 445 415 445 341 c 0
 445 168 305 -13 168 -13 c 0
 148 -13 136 -9 101 9 c 1
 98 -4 l 1
 97 -12 92 -22 89 -32 c 0
 72 -100 64 -133 64 -145 c 0
 64 -168 81 -177 129 -179 c 1
 129 -205 l 1
 -120 -205 l 1
 -120 -179 l 1
 -114 -179 l 2
 -73 -179 -62 -166 -45 -104 c 2
 56 284 l 1
 67 333 78 374 78 382 c 0
 78 401 67 404 23 407 c 1
283 391 m 0
 256 393 223 368 198 330 c 0
 182 305 171 277 148 195 c 0
 122 104 113 75 113 59 c 0
 113 38 130 22 152 22 c 0
 185 22 218 50 249 104 c 0
 286 168 316 270 321 334 c 0
 324 366 308 390 283 391 c 0
EndSplineSet
EndChar
StartChar: q
Encoding: 113 113 82
Width: 499
Flags: HW
HStem: -205 26<104 116.4 345 371> -13 72<105 166> 441 20G<238 287>
VStem: 1 125<99 136>
Fore
371 -179 m 1
 371 -205 l 1
 104 -205 l 1
 104 -179 l 1
 166 -174 177 -167 193 -116 c 1
 256 98 l 1
 205 16 166 -13 105 -13 c 0
 41 -13 1 37 1 117 c 0
 1 171 19 231 53 291 c 0
 111 394 201 461 275 461 c 0
 299 461 319 454 330 439 c 0
 338 429 341 417 347 390 c 1
 362 450 l 1
 472 450 l 1
 429 294 410 223 387 145 c 0
 344 4 306 -133 306 -149 c 0
 306 -170 321 -179 357 -179 c 2
 371 -179 l 1
290 419 m 0
 262 420 227 390 195 334 c 0
 155 262 126 171 126 116 c 0
 126 78 139 59 166 59 c 0
 196 59 226 83 253 133 c 0
 289 195 325 318 325 371 c 0
 325 398 312 417 290 419 c 0
EndSplineSet
EndChar
StartChar: r
Encoding: 114 114 83
Width: 388
Flags: HW
HStem: 0 21G<-21 100> 360 101<270 333>
Fore
26 407 m 1
 26 434 l 1
 148 444 167 447 227 461 c 1
 161 253 l 1
 240 412 281 461 333 461 c 0
 366 461 390 437 390 395 c 0
 390 354 365 324 330 324 c 0
 313 324 300 331 286 349 c 0
 278 357 274 360 270 360 c 0
 256 360 234 335 209 291 c 0
 180 243 166 205 133 104 c 0
 129 89 116 45 100 0 c 1
 -21 0 l 1
 47 229 81 357 81 382 c 0
 81 401 72 404 26 407 c 1
EndSplineSet
MinimumDistance: x8,11 
EndChar
StartChar: s
Encoding: 115 115 84
Width: 388
Flags: HW
HStem: -13 31<124 132> 429 32<182 199>
VStem: 47 95<335 376> 183 95<70 119>
Fore
333 461 m 1
 311 308 l 1
 283 311 l 1
 267 393 242 429 195 429 c 0
 163 429 142 409 142 376 c 0
 142 354 160 324 198 278 c 0
 253 212 278 164 278 119 c 0
 278 44 215 -13 130 -13 c 0
 111 -13 92 -9 67 -1 c 0
 56 4 44 7 37 7 c 0
 23 7 12 -1 7 -13 c 1
 -19 -13 l 1
 3 152 l 1
 29 149 l 1
 38 97 45 73 66 48 c 0
 82 28 103 18 126 18 c 0
 158 18 183 41 183 70 c 0
 183 97 166 130 127 174 c 0
 62 253 47 283 47 335 c 0
 47 412 100 461 182 461 c 0
 201 461 214 458 239 450 c 0
 256 442 267 439 275 439 c 0
 290 439 293 442 305 461 c 1
 333 461 l 1
EndSplineSet
EndChar
StartChar: t
Encoding: 116 116 85
Width: 276
Flags: HW
HStem: -9 71<59 127> 407 43<209 281>
Fore
281 450 m 1
 281 407 l 1
 198 407 l 1
 182 346 170 306 166 289 c 0
 129 167 111 94 111 76 c 0
 111 69 119 62 127 62 c 0
 144 62 168 88 204 141 c 1
 226 127 l 1
 160 23 119 -9 59 -9 c 0
 18 -9 -12 18 -12 56 c 0
 -12 73 -1 119 13 168 c 1
 81 407 l 1
 29 407 l 1
 29 442 l 1
 108 472 160 513 212 595 c 1
 248 595 l 1
 209 450 l 1
 281 450 l 1
EndSplineSet
EndChar
StartChar: u
Encoding: 117 117 86
Width: 555
Flags: HW
HStem: -9 72<89 155>
VStem: 15 118<64 88> 267 118<51 76>
DStem: 76 306 243 461 37 173 149 154
Fore
472 133 m 1
 492 120 l 1
 439 31 391 -9 331 -9 c 0
 287 -9 267 12 267 51 c 0
 267 79 272 105 290 161 c 1
 187 18 157 -9 89 -9 c 0
 41 -9 15 16 15 64 c 0
 15 89 22 125 37 173 c 1
 76 306 l 2
 85 335 89 363 89 379 c 0
 89 398 81 404 34 407 c 1
 34 434 l 1
 82 437 141 444 215 457 c 0
 231 460 237 461 243 461 c 1
 149 154 l 2
 136 111 133 103 133 88 c 0
 133 70 141 63 155 63 c 0
 174 63 196 81 229 119 c 0
 286 190 313 256 371 450 c 1
 488 450 l 1
 410 182 l 1
 385 86 385 86 385 76 c 0
 385 67 391 59 398 59 c 0
 416 59 437 81 472 133 c 1
EndSplineSet
EndChar
StartChar: v
Encoding: 118 118 87
Width: 443
Flags: HW
HStem: -13 21G<85 111> 407 27<16 23.6364> 441 20G<325.5 355.5>
VStem: 89 113<123 166> 284 117<393 406>
Fore
16 407 m 1
 16 434 l 1
 100 445 122 450 171 461 c 1
 192 382 198 324 202 127 c 1
 300 240 328 281 328 316 c 0
 328 327 324 335 308 353 c 0
 291 374 284 387 284 404 c 0
 284 434 311 461 340 461 c 0
 371 461 401 431 401 395 c 0
 401 353 379 299 340 242 c 0
 286 161 237 108 111 -13 c 1
 85 -13 l 1
 89 123 l 1
 89 144 89 160 89 164 c 0
 89 271 79 359 62 391 c 0
 56 404 47 407 16 407 c 1
EndSplineSet
MinimumDistance: x10,7 
EndChar
StartChar: w
Encoding: 119 119 88
Width: 666
Flags: HW
HStem: -13 21G<95 122 315 341> 441 20G<360 387 538.5 569>
VStem: 95 109<149 187> 497 117<396 409>
DStem: 291 272 387 461 315 -13 419 130
Fore
16 407 m 1
 16 434 l 1
 100 448 130 453 171 461 c 1
 193 376 201 312 204 187 c 1
 261 289 275 316 360 461 c 1
 387 461 l 1
 419 130 l 1
 508 234 538 281 538 311 c 0
 538 321 532 334 519 353 c 0
 502 374 497 388 497 401 c 0
 497 434 523 461 554 461 c 0
 584 461 614 434 614 400 c 0
 614 316 527 183 341 -13 c 1
 315 -13 l 1
 291 272 l 1
 284 256 283 253 272 237 c 0
 229 158 185 81 179 73 c 2
 122 -13 l 1
 95 -13 l 1
 97 32 l 1
 97 67 97 67 97 72 c 1
 95 149 l 1
 92 289 78 381 59 398 c 0
 50 406 41 407 16 407 c 1
EndSplineSet
EndChar
StartChar: x
Encoding: 120 120 89
Width: 499
Flags: HW
HStem: -13 116<7 18> 349 112<400 422>
DStem: 132 346 264 272 163 192 296 117 163 192 173 142 119 122 149 103
Fore
400 123 m 1
 420 108 l 1
 360 21 318 -13 270 -13 c 0
 250 -13 230 -3 218 13 c 0
 196 41 187 67 173 142 c 1
 149 103 l 2
 91 7 67 -13 18 -13 c 0
 -21 -13 -45 12 -45 45 c 0
 -45 78 -22 103 9 103 c 0
 21 103 34 98 48 89 c 0
 59 83 64 81 70 81 c 0
 86 81 98 89 119 122 c 2
 163 192 l 1
 132 346 l 1
 122 395 108 413 76 413 c 0
 67 413 62 413 41 412 c 1
 41 438 l 1
 208 461 l 1
 227 434 234 409 253 324 c 1
 333 435 365 461 412 461 c 0
 441 461 469 434 469 400 c 0
 469 372 442 349 413 349 c 0
 401 349 395 350 381 359 c 0
 369 365 362 368 356 368 c 0
 333 368 308 344 272 286 c 0
 268 278 267 277 264 272 c 1
 296 117 l 2
 305 79 313 64 333 64 c 0
 352 64 360 73 400 123 c 1
EndSplineSet
MinimumDistance: x26,1 x19,22 
EndChar
StartChar: y
Encoding: 121 121 90
Width: 443
Flags: HW
HStem: -205 116<-44 -32> 412 26<15 25.6667> 441 20G<315 346.5>
VStem: 272 121<396 408>
Fore
15 412 m 1
 15 438 l 1
 79 444 116 450 163 461 c 1
 182 415 207 303 229 185 c 1
 242 110 l 1
 311 243 328 286 328 315 c 0
 328 328 322 335 305 350 c 0
 280 368 272 379 272 404 c 0
 272 435 300 461 330 461 c 0
 363 461 393 432 393 398 c 0
 393 297 272 60 144 -100 c 0
 88 -166 23 -205 -32 -205 c 0
 -67 -205 -94 -179 -94 -145 c 0
 -94 -116 -70 -89 -44 -89 c 0
 -26 -89 -1 -100 16 -111 c 0
 23 -119 42 -125 50 -125 c 0
 67 -125 94 -104 116 -76 c 0
 133 -51 142 -26 142 -4 c 0
 142 26 125 125 92 284 c 0
 78 354 62 395 44 406 c 0
 37 410 32 412 15 412 c 1
EndSplineSet
EndChar
StartChar: z
Encoding: 122 122 91
Width: 388
Flags: HW
HStem: -78 30<235 249> 353 97<56 249>
VStem: 243 103<13 19>
DStem: 249 353 368 439 -42 -1 86 104
Fore
13 294 m 1
 56 450 l 1
 368 450 l 1
 368 439 l 1
 86 104 l 1
 138 82 163 59 193 -1 c 0
 211 -37 223 -48 242 -48 c 0
 253 -48 264 -42 264 -34 c 0
 264 -29 261 -25 256 -18 c 0
 248 -6 243 1 243 13 c 0
 243 41 267 64 293 64 c 0
 321 64 346 41 346 13 c 0
 346 -38 299 -78 237 -78 c 0
 198 -78 161 -64 107 -28 c 0
 72 -4 53 4 34 4 c 0
 23 4 16 1 1 -9 c 0
 -1 -12 -10 -18 -18 -23 c 1
 -42 -1 l 1
 249 353 l 1
 104 353 l 2
 75 353 59 338 41 291 c 1
 13 294 l 1
EndSplineSet
EndChar
StartChar: braceleft
Encoding: 123 123 92
Width: 347
Flags: HW
VStem: 28 104<-97 -90> 89 101<164 181>
DStem: 187 543 294 549 142 365 250 379
Fore
437 686 m 1x40
 434 674 l 1
 352 659 315 625 294 549 c 2
 250 379 l 1
 227 294 196 268 100 249 c 1
 174 229 190 215 190 173 c 0x40
 190 149 182 103 163 42 c 0
 144 -21 132 -70 132 -97 c 0
 132 -144 154 -164 212 -174 c 1
 209 -187 l 1
 117 -185 78 -177 53 -157 c 0
 37 -141 28 -122 28 -97 c 0x80
 28 -67 44 7 63 63 c 0
 79 111 89 155 89 179 c 0
 89 214 67 233 4 249 c 1
 94 268 122 293 142 365 c 1
 187 543 l 1
 220 653 277 686 437 686 c 1x40
EndSplineSet
EndChar
StartChar: bar
Encoding: 124 124 93
Width: 219
Flags: HW
VStem: 66 88<-18 686>
Fore
66 -18 m 1
 66 686 l 1
 154 686 l 1
 154 -18 l 1
 66 -18 l 1
EndSplineSet
EndChar
StartChar: braceright
Encoding: 125 125 94
Width: 347
Flags: HW
VStem: 116 102<317 329> 174 104<598 600>
DStem: 57 120 166 133 12 -51 119 -45
Fore
-129 -187 m 1x80
 -126 -174 l 1
 -45 -160 -7 -127 12 -51 c 2
 57 120 l 1
 81 205 110 231 208 250 c 1
 133 270 116 284 116 327 c 0x80
 116 349 125 390 144 456 c 0
 166 526 174 573 174 598 c 0
 174 642 151 664 94 674 c 1
 97 686 l 1
 190 684 229 677 253 655 c 0
 271 640 278 621 278 598 c 0x40
 278 567 264 494 245 437 c 0
 229 388 218 344 218 319 c 0
 218 286 240 267 302 250 c 1
 212 230 185 207 166 133 c 1
 119 -45 l 1
 88 -154 29 -187 -129 -187 c 1x80
EndSplineSet
EndChar
StartChar: asciitilde
Encoding: 126 126 95
Width: 569
Flags: HW
Fore
461 308 m 1
 516 261 l 1
 470 196 439 174 393 174 c 0
 360 174 334 183 289 208 c 0
 242 233 211 243 176 243 c 0
 146 243 130 233 107 201 c 1
 54 248 l 1
 86 305 125 331 174 331 c 0
 212 331 233 324 311 290 c 0
 360 268 375 264 393 264 c 0
 416 264 437 275 461 308 c 1
EndSplineSet
EndChar
StartChar: uni0E10.descless
Encoding: 128 63232 96
Width: 484
Flags: W
HStem: -5 50<278 297> 315 43<202 217> 489 76<467 505>
VStem: 113 43<256 269>
DStem: 139 445 215 478 387 370 454 407 396 333 495 335 325 74 431 106
Fore
577 558 m 4
 542 505 505 489 467 489 c 4
 408 489 348 528 295 528 c 4
 265 528 238 516 215 478 c 5
 454 407 l 6
 467 402 512 395 495 335 c 6
 431 106 l 6
 411 34 360 -5 278 -5 c 4
 210 -5 169 38 187 106 c 6
 204 166 l 5
 196 167 189 166 181 169 c 4
 142 182 113 212 113 269 c 4
 113 316 155 358 211 358 c 4
 296 358 342 313 327 258 c 6
 276 75 l 6
 272 61 274 45 291 45 c 4
 310 45 321 61 325 74 c 6
 396 333 l 6
 403 358 398 367 387 370 c 6
 139 445 l 5
 168 493 235 601 346 598 c 4
 389 598 452 565 505 565 c 4
 526 565 545 570 561 585 c 4
 577 601 604 599 577 558 c 4
207 210 m 4
 240 210 256 236 256 262 c 4
 256 288 239 315 206 315 c 4
 172 315 155 289 156 263 c 4
 156 237 173 210 207 210 c 4
EndSplineSet
KernsSLIF: 212 31 0 0 215 31 0 0 214 31 0 0 213 31 0 0
EndChar
StartChar: uni0E34.left
Encoding: 129 63233 97
Width: 0
Flags: W
HStem: 726 45<-351 -318> 839 55<-222 -200>
Fore
-46 636 m 0
 -46 636 l 0
 -159 694 -248 726 -350 726 c 0
 -388 726 -427 722 -470 713 c 1
 -408 833 -295 894 -200 894 c 0
 -87 894 2 808 -46 636 c 0
-83 708 m 1
 -88 788 -148 839 -222 839 c 0
 -270 839 -325 818 -374 768 c 1
 -355 770 -337 771 -318 771 c 0
 -236 771 -151 750 -83 708 c 1
EndSplineSet
EndChar
StartChar: uni0E35.left
Encoding: 130 63234 98
Width: 0
Flags: W
HStem: 726 46<-350 -315> 827 55<-233 -213>
DStem: -76 948 17 948 -104 849 -38 751
Fore
-46 636 m 1
 -159 694 -247 726 -350 726 c 0
 -387 726 -427 722 -470 713 c 1
 -410 829 -306 882 -215 882 c 0
 -174 882 -134 870 -104 849 c 1
 -76 948 l 1
 17 948 l 1
 -38 751 l 1
 -31 739 -31 690 -46 636 c 1
-85 710 m 1
 -88 781 -154 827 -231 827 c 0
 -279 827 -331 809 -374 768 c 1
 -355 770 -335 772 -315 772 c 0
 -235 772 -153 752 -85 710 c 1
EndSplineSet
EndChar
StartChar: uni0E36.left
Encoding: 131 63235 99
Width: 0
Flags: W
HStem: 726 46<-350 -315> 827 54<-233 -213> 914 39<-71 -64>
VStem: -19 38<863.062 865.969>
Fore
-46 636 m 1
 -159 694 -247 726 -350 726 c 0
 -387 726 -427 722 -470 713 c 1
 -408 832 -303 881 -218 881 c 0
 -196 881 -175 878 -157 872 c 1
 -154 909 -125 953 -66 953 c 0
 -12 953 20 907 19 863 c 0
 20 828 -1 794 -47 786 c 1
 -27 764 -31 688 -46 636 c 1
-68 819 m 0
 -68 819 l 0
 -35 819 -18 843 -19 866 c 0
 -18 890 -35 914 -68 914 c 0
 -101 914 -117 890 -118 866 c 0
 -117 843 -101 819 -68 819 c 0
-85 710 m 1
 -88 781 -154 827 -231 827 c 0
 -279 827 -331 809 -374 768 c 1
 -355 770 -335 772 -315 772 c 0
 -235 772 -153 752 -85 710 c 1
EndSplineSet
EndChar
StartChar: uni0E37.left
Encoding: 132 63236 100
Width: 0
Flags: W
HStem: 726 46<-350 -315> 827 55<-234 -209>
DStem: -190 948 -120 948 -209 882 -141 869 -57 948 15 948 -89 839 -40 743
Fore
-85 710 m 1
 -88 781 -155 827 -232 827 c 0
 -279 827 -331 809 -374 768 c 1
 -354 770 -335 772 -315 772 c 0
 -235 772 -152 752 -85 710 c 1
-40 743 m 1
 -32 733 -32 684 -46 636 c 1
 -159 694 -248 726 -350 726 c 0
 -388 726 -427 722 -470 713 c 1
 -409 831 -301 883 -209 882 c 1
 -190 948 l 1
 -120 948 l 1
 -141 869 l 1
 -129 866 -100 851 -89 839 c 1
 -57 948 l 1
 15 948 l 1
 -40 743 l 1
EndSplineSet
EndChar
StartChar: ellipsis
Encoding: 133 8230 101
Width: 951
Flags: W
HStem: -14 21G<136.5 172.5 454 489.5 771 807>
Fore
876 57 m 0
 876 57 l 0
 865 18 825 -14 789 -14 c 0
 753 -14 734 20 744 57 c 0
 754 92 794 126 828 126 c 0
 863 126 886 94 876 57 c 0
560 57 m 0
 560 57 l 0
 549 18 507 -14 472 -14 c 0
 436 -14 416 20 426 57 c 0
 436 92 476 126 511 126 c 0
 546 126 570 94 560 57 c 0
242 57 m 0
 231 18 191 -14 154 -14 c 0
 119 -14 99 20 109 57 c 0
 119 92 160 126 193 126 c 0
 229 126 252 94 242 57 c 0
EndSplineSet
EndChar
StartChar: uni0E48.low_left
Encoding: 134 63237 102
Width: 0
Flags: W
DStem: -93 926 -0 926 -159 688 -66 688
Fore
-0 926 m 1
 -66 688 l 1
 -159 688 l 5
 -93 926 l 1
 -0 926 l 1
EndSplineSet
EndChar
StartChar: uni0E49.low_left
Encoding: 135 63238 103
Width: 0
Flags: W
HStem: 892 48<-298 -287>
VStem: -387 48<840 858>
Fore
43 940 m 1
 43 940 l 0
 -80 627 -360 665 -409 670 c 1
 -398 710 l 1
 -352 716 -329 736 -315 757 c 1
 -314 760 l 1
 -314 760 -324 762 -339 768 c 0
 -369 781 -387 814 -387 849 c 0
 -387 894 -357 940 -289 940 c 0
 -207 940 -186 847 -211 808 c 0
 -259 736 -278 725 -278 725 c 1
 -279 722 l 1
 -279 722 -107 737 -54 940 c 1
 43 940 l 1
-295 800 m 0
 -266 800 -252 823 -252 845 c 0
 -252 869 -267 892 -296 892 c 0
 -325 892 -339 869 -339 847 c 0
 -339 823 -324 800 -295 800 c 0
EndSplineSet
EndChar
StartChar: uni0E4A.low_left
Encoding: 136 63239 104
Width: 0
Flags: W
HStem: 676 32<-324 -312> 785 31<-324 -312>
VStem: -281 32<746 749>
Fore
28 917 m 17
 3 790 -105 677 -238 677 c 1
 -228 713 l 1
 -191 731 -170 763 -161 793 c 0
 -152 827 -159 858 -178 866 c 1
 -240 828 l 1
 -289 869 l 1
 -321 863 -340 826 -343 814 c 1
 -341 812 l 1
 -341 812 -333 816 -314 816 c 0
 -275 816 -248 788 -249 748 c 0
 -249 704 -282 676 -321 676 c 0
 -383 676 -417 734 -397 806 c 0
 -385 851 -330 919 -269 923 c 1
 -228 874 l 1
 -159 923 l 1
 -100 904 -90 858 -102 814 c 0
 -109 789 -124 764 -140 746 c 1
 -137 745 l 1
 -90 771 -46 833 -42 917 c 1
 28 917 l 17
-318 708 m 0
 -293 708 -280 727 -281 746 c 0
 -281 766 -293 785 -318 785 c 0
 -342 785 -354 766 -354 746 c 0
 -354 727 -342 708 -318 708 c 0
EndSplineSet
EndChar
StartChar: uni0E4B.low_left
Encoding: 137 63240 105
Width: 0
Flags: W
HStem: 691 21G<-210 -141> 773 75<-259 -190 -96 -26>
DStem: -190 773 -117 773 -210 691 -141 691 -169 849 -96 849 -259 848 -6 848 -147 931 -72 931 -169 849 -96 849
Fore
-26 774 m 1
 -117 773 l 1
 -141 691 l 1
 -210 691 l 1
 -190 773 l 1
 -279 774 l 1
 -259 848 l 1
 -169 849 l 1
 -147 931 l 1
 -72 931 l 1
 -96 849 l 1
 -6 848 l 1
 -26 774 l 1
EndSplineSet
MinimumDistance: x6,11 x5,0 
EndChar
StartChar: uni0E4C.low_left
Encoding: 138 63241 106
Width: 0
Flags: W
HStem: 679 43<-212 -201>
VStem: -290 46<764 766> -165 42<758 763>
Fore
38 954 m 17
 -14 857 -131 834 -162 826 c 1
 -163 823 l 1
 -144 816 -123 803 -123 760 c 0
 -123 715 -158 679 -210 679 c 0
 -260 679 -290 727 -290 764 c 0
 -290 815 -234 859 -142 876 c 0
 -96 885 -56 919 -31 975 c 1
 38 954 l 17
-203 722 m 0
 -178 722 -165 742 -165 763 c 0
 -166 784 -178 805 -204 805 c 0
 -231 805 -244 785 -244 764 c 0
 -244 743 -230 722 -203 722 c 0
EndSplineSet
EndChar
StartChar: uni0E48.low
Encoding: 139 63242 107
Width: 0
Flags: W
DStem: 73 926 166 926 7 688 100 688
AnchorPoint: "AboveBase" 85.2891 629.76 mark 0
Fore
166 926 m 1
 100 688 l 1
 7 688 l 5
 73 926 l 1
 166 926 l 1
EndSplineSet
Substitution: 0 65534 'amni' uni0E4D
EndChar
StartChar: uni0E49.low
Encoding: 140 63243 108
Width: 0
Flags: W
HStem: 925 53<-53 -39>
VStem: -147 51<873 881>
AnchorPoint: "AboveBase" 85.2891 629.76 mark 0
Fore
324 972 m 17
 197 631 -130 673 -172 677 c 1
 -158 727 l 1
 -131 730 -93 741 -70 776 c 1
 -69 779 l 1
 -69 779 -82 781 -96 788 c 0
 -129 804 -148 841 -147 879 c 0
 -148 928 -115 978 -39 978 c 0
 30 978 83 894 41 826 c 0
 -5 752 -36 736 -36 736 c 1
 -35 733 l 1
 -35 733 173 763 221 972 c 1
 324 972 l 17
-51 823 m 0
 -17 823 -1 849 -0 875 c 0
 -0 900 -16 925 -50 925 c 0
 -80 925 -96 899 -96 873 c 0
 -96 848 -81 823 -51 823 c 0
EndSplineSet
Substitution: 0 65534 'amni' uni0E4D
EndChar
StartChar: uni0E4A.low
Encoding: 141 63244 109
Width: 0
Flags: W
HStem: 671 40<-135 -124> 794 39<-135 -125>
VStem: -91 41<747 756>
AnchorPoint: "AboveBase" 85.2891 629.76 mark 0
Fore
284 954 m 17
 247 803 121 671 -36 671 c 1
 -24 713 l 1
 20 734 46 773 56 809 c 0
 67 849 60 885 37 894 c 1
 -41 848 l 1
 -96 899 l 1
 -134 891 -159 845 -162 833 c 1
 -159 826 l 1
 -159 826 -150 833 -127 833 c 0
 -73 833 -50 789 -50 749 c 0
 -50 703 -88 671 -132 671 c 0
 -204 671 -247 737 -223 823 c 0
 -208 877 -144 955 -73 963 c 1
 -25 906 l 1
 59 963 l 1
 129 940 140 884 126 833 c 0
 117 802 100 773 81 753 c 1
 83 750 l 1
 140 782 191 856 197 954 c 1
 284 954 l 17
-128 711 m 0
 -103 711 -91 731 -91 752 c 0
 -91 773 -104 794 -129 794 c 0
 -156 794 -169 774 -169 753 c 0
 -169 732 -155 711 -128 711 c 0
EndSplineSet
Substitution: 0 65534 'amni' uni0E4D
EndChar
StartChar: uni0E4B.low
Encoding: 142 63245 110
Width: 0
Flags: W
HStem: 768 83<-42 33 145 219>
DStem: 33 768 120 768 10 677 95 677 55 852 145 852 -42 851 241 851 78 942 171 942 55 852 145 852
AnchorPoint: "AboveBase" 85.2891 629.76 mark 0
Fore
219 770 m 1
 120 768 l 1
 95 677 l 1
 10 677 l 1
 33 768 l 1
 -64 770 l 1
 -42 851 l 1
 55 852 l 1
 78 942 l 1
 171 942 l 1
 145 852 l 1
 241 851 l 1
 219 770 l 1
EndSplineSet
MinimumDistance: x6,11 x5,0 
Substitution: 0 65534 'amni' uni0E4D
EndChar
StartChar: uni0E4C.low
Encoding: 143 63246 111
Width: 0
Flags: W
HStem: 671 48<36 47>
VStem: -50 49<763 770> 84 49<760 770>
AnchorPoint: "AboveBase" 85.2891 629.76 mark 0
Fore
308 974 m 17
 250 866 124 840 90 834 c 1
 90 834 l 1
 109 824 133 809 133 760 c 0
 133 706 93 671 38 671 c 0
 -18 671 -50 719 -50 768 c 0
 -50 816 10 865 111 889 c 0
 160 902 207 935 234 998 c 1
 308 974 l 17
41 719 m 0
 69 719 85 742 84 765 c 0
 84 787 70 809 42 809 c 0
 13 809 -1 786 -1 763 c 0
 -2 741 12 719 41 719 c 0
EndSplineSet
EndChar
StartChar: uni0E0D.descless
Encoding: 144 63247 112
Width: 762
Flags: W
HStem: -8 49<515 530> 143 44<227 239> 378 44<201 217 201 369> 545 53<382 424>
VStem: 279 43<81 92>
DStem: 166 315 267 326 113 124 229 187 472 401 571 401 395 124 488 101 741 596 839 596 604 100 706 117
Fore
706 117 m 2
 691 61 607 -8 515 -8 c 0
 426 -8 376 54 395 124 c 2
 472 401 l 2
 498 496 449 545 382 545 c 0
 321 545 247 505 201 422 c 1
 380 422 l 1
 368 378 l 1
 346 378 321 378 321 378 c 2
 294 378 275 355 267 326 c 2
 229 187 l 1
 290 186 322 139 322 92 c 0
 321 44 290 -3 226 -6 c 0
 124 -11 101 80 113 124 c 2
 166 315 l 2
 172 336 196 373 217 378 c 1
 137 378 l 1
 181 522 315 598 424 598 c 0
 523 598 601 534 571 401 c 1
 488 101 l 2
 479 68 495 41 528 41 c 0
 563 41 594 66 604 100 c 2
 741 596 l 1
 839 596 l 1
 706 117 l 2
228 38 m 0
 262 38 279 64 279 90 c 0
 278 116 262 143 227 143 c 0
 194 143 176 117 176 91 c 0
 177 65 194 38 228 38 c 0
EndSplineSet
EndChar
StartChar: quoteleft
Encoding: 145 8216 113
Width: 317
Flags: W
Fore
381 524 m 0
 369 479 333 452 292 452 c 0
 229 452 225 504 240 559 c 0
 262 637 348 713 410 731 c 1
 414 703 l 1
 359 680 308 622 299 588 c 0
 298 585 297 579 300 581 c 0
 314 587 318 588 336 588 c 0
 370 588 392 564 381 524 c 0
EndSplineSet
EndChar
StartChar: quoteright
Encoding: 146 8217 114
Width: 317
Flags: W
Fore
405 624 m 0
 383 545 297 470 235 452 c 1
 229 479 l 1
 286 502 336 561 345 594 c 0
 346 598 348 604 344 602 c 0
 331 596 326 594 309 594 c 0
 275 594 252 619 263 659 c 0
 275 703 312 731 353 731 c 0
 416 731 420 679 405 624 c 0
EndSplineSet
EndChar
StartChar: quotedblleft
Encoding: 147 8220 115
Width: 451
Flags: W
Fore
550 524 m 0
 550 524 l 0
 538 479 503 452 462 452 c 0
 399 452 395 504 410 559 c 0
 432 637 517 713 580 731 c 1
 585 703 l 1
 529 680 478 622 469 588 c 0
 468 585 467 579 470 581 c 0
 483 587 488 588 505 588 c 0
 540 588 561 564 550 524 c 0
330 524 m 0
 318 479 281 452 240 452 c 0
 177 452 173 504 188 559 c 0
 210 637 296 713 358 731 c 1
 364 703 l 1
 307 680 257 622 248 588 c 0
 247 585 246 579 249 581 c 0
 262 587 267 588 284 588 c 0
 318 588 341 564 330 524 c 0
EndSplineSet
EndChar
StartChar: quotedblright
Encoding: 148 8221 116
Width: 451
Flags: W
Fore
587 621 m 0
 587 621 l 0
 565 542 480 467 418 449 c 1
 411 476 l 1
 468 499 518 558 527 591 c 0
 528 594 530 601 526 599 c 0
 513 593 508 591 491 591 c 0
 457 591 434 616 445 656 c 0
 457 700 494 728 535 728 c 0
 598 728 602 676 587 621 c 0
366 621 m 0
 344 542 259 467 197 449 c 1
 190 476 l 1
 247 499 297 558 306 591 c 0
 307 594 309 601 305 599 c 0
 292 593 287 591 270 591 c 0
 236 591 214 616 225 656 c 0
 237 700 273 728 314 728 c 0
 377 728 381 676 366 621 c 0
EndSplineSet
EndChar
StartChar: bullet
Encoding: 149 8226 117
Width: 367
Flags: W
Fore
407 319 m 0
 386 241 309 177 232 177 c 0
 159 177 116 241 137 319 c 0
 157 398 237 462 311 462 c 0
 388 462 429 398 407 319 c 0
EndSplineSet
EndChar
StartChar: endash
Encoding: 150 8211 118
Width: 732
Flags: W
HStem: 201 72<96 767>
Fore
767 201 m 1
 77 201 l 1
 97 273 l 1
 787 273 l 1
 767 201 l 1
EndSplineSet
EndChar
StartChar: emdash
Encoding: 151 8212 119
Width: 1464
Flags: W
HStem: 201 72<84 1512>
Fore
1512 201 m 1
 65 201 l 1
 85 273 l 1
 1532 273 l 1
 1512 201 l 1
EndSplineSet
EndChar
StartChar: uni0E31.left
Encoding: 152 63248 120
Width: 0
Flags: W
HStem: 676 50<-83 -50> 880 50<-161 -143>
VStem: -256 51<819 827> -104 52<826 837>
Fore
344 923 m 17
 256 737 59 676 -81 676 c 0
 -194 676 -256 733 -256 823 c 0
 -256 882 -206 930 -149 930 c 0
 -107 930 -52 894 -52 826 c 0
 -52 790 -75 750 -119 733 c 1
 -102 728 -82 726 -61 726 c 0
 38 726 174 777 247 923 c 1
 344 923 l 17
-154 776 m 0
 -121 776 -105 802 -104 829 c 0
 -104 854 -120 880 -153 880 c 0
 -187 880 -204 854 -205 827 c 0
 -205 802 -188 776 -154 776 c 0
EndSplineSet
EndChar
StartChar: uni0E4D.left
Encoding: 153 63249 121
Width: 0
Flags: W
HStem: 673 54<-103 -94> 831 57<-104 -94>
VStem: -207 52<780 786> -54 51<768 786>
Fore
-103 673 m 0
 -172 673 -207 727 -207 781 c 0
 -207 835 -174 888 -104 888 c 0
 -37 888 -2 834 -3 780 c 0
 -3 726 -35 673 -103 673 c 0
-103 727 m 0
 -70 727 -54 753 -54 778 c 0
 -54 805 -71 831 -104 831 c 0
 -138 831 -155 805 -155 780 c 0
 -154 753 -137 727 -103 727 c 0
EndSplineSet
EndChar
StartChar: uni0E47.left
Encoding: 154 63250 122
Width: 0
Flags: W
HStem: 655 45<-102 -88> 787 43<-103 -89>
VStem: -171 37<740 754> -51 41<743 753>
Fore
72 1008 m 17
 39 897 -42 872 -110 876 c 0
 -142 877 -199 886 -236 888 c 0
 -274 891 -308 860 -320 816 c 0
 -326 796 -326 773 -321 748 c 1
 -276 813 -208 777 -185 742 c 1
 -185 742 -171 732 -171 746 c 0
 -171 802 -131 830 -91 830 c 0
 -50 830 -10 802 -10 743 c 0
 -10 682 -58 655 -101 655 c 0
 -178 655 -218 733 -270 733 c 0
 -310 733 -317 687 -299 656 c 1
 -364 657 l 1
 -397 698 -403 754 -388 806 c 0
 -367 882 -301 949 -218 940 c 0
 -188 937 -132 931 -104 928 c 0
 -82 925 -29 928 -15 1008 c 1
 72 1008 l 17
-51 743 m 0
 -51 772 -72 787 -93 787 c 0
 -114 787 -134 772 -134 743 c 0
 -134 714 -113 700 -92 700 c 0
 -72 700 -51 714 -51 743 c 0
EndSplineSet
EndChar
StartChar: uni0E48.left
Encoding: 155 63251 123
Width: 0
Flags: W
DStem: 15 1227 108 1227 -42 1021 51 1021
Fore
108 1227 m 1
 51 1021 l 1
 -42 1021 l 5
 15 1227 l 1
 108 1227 l 1
EndSplineSet
EndChar
StartChar: uni0E49.left
Encoding: 156 63252 124
Width: 0
Flags: W
HStem: 1187 43<-15 -5>
VStem: -90 40<1145 1153>
Fore
289 1229 m 17
 183 957 -66 991 -109 994 c 1
 -100 1029 l 1
 -60 1034 -44 1050 -27 1069 c 1
 -26 1072 l 1
 -26 1072 -34 1073 -45 1078 c 0
 -74 1089 -90 1120 -90 1151 c 0
 -90 1190 -64 1230 -7 1230 c 0
 56 1230 97 1157 55 1098 c 0
 25 1058 5 1043 5 1043 c 1
 4 1040 l 1
 4 1040 160 1054 205 1229 c 1
 289 1229 l 17
-12 1109 m 0
 15 1109 27 1128 27 1147 c 0
 28 1167 14 1187 -13 1187 c 0
 -38 1187 -50 1168 -50 1149 c 0
 -50 1129 -37 1109 -12 1109 c 0
EndSplineSet
EndChar
StartChar: uni0E4A.left
Encoding: 157 63253 125
Width: 0
Flags: W
HStem: 984 37<-69 -55> 1089 35<-69 -51>
VStem: -27 33<1047 1057>
Fore
285 1226 m 17
 258 1098 150 986 16 986 c 1
 26 1021 l 1
 64 1039 86 1071 94 1102 c 0
 103 1136 97 1167 78 1175 c 1
 15 1137 l 1
 -33 1178 l 1
 -65 1172 -82 1136 -89 1122 c 1
 -87 1118 l 1
 -87 1118 -76 1124 -58 1124 c 0
 -20 1124 5 1094 6 1057 c 0
 6 1012 -24 984 -63 984 c 0
 -125 984 -162 1043 -142 1115 c 0
 -129 1160 -75 1227 -14 1232 c 1
 28 1183 l 1
 97 1232 l 1
 156 1213 165 1167 153 1123 c 0
 146 1098 132 1073 116 1055 c 1
 117 1054 l 1
 166 1080 209 1141 214 1226 c 1
 285 1226 l 17
-61 1021 m 0
 -39 1021 -27 1038 -27 1056 c 0
 -28 1072 -38 1089 -60 1089 c 0
 -82 1089 -93 1072 -93 1054 c 0
 -93 1038 -82 1021 -61 1021 c 0
EndSplineSet
EndChar
StartChar: uni0E4B.left
Encoding: 158 63254 126
Width: 0
Flags: W
HStem: 1074 75<-90 -21 73 142>
DStem: -21 1074 52 1074 -42 995 28 995 -0 1150 73 1150 -90 1149 163 1149 21 1229 96 1229 -0 1150 73 1150
Fore
142 1075 m 1
 52 1074 l 1
 28 995 l 1
 -42 995 l 1
 -21 1074 l 1
 -111 1075 l 1
 -90 1149 l 1
 -0 1150 l 1
 21 1229 l 1
 96 1229 l 1
 73 1150 l 1
 163 1149 l 1
 142 1075 l 1
EndSplineSet
MinimumDistance: x6,11 x5,0 
EndChar
StartChar: uni0E4C.left
Encoding: 159 63255 127
Width: 0
Flags: W
HStem: 926 42<-22 -13>
VStem: -101 45<1010 1012> 22 44<1005 1013>
Fore
226 1201 m 17
 174 1104 61 1084 28 1078 c 1
 27 1074 l 1
 48 1066 66 1046 66 1007 c 0
 66 959 30 926 -19 926 c 0
 -58 926 -101 962 -101 1010 c 0
 -101 1062 -45 1106 46 1123 c 0
 93 1132 132 1166 158 1223 c 1
 226 1201 l 17
-15 968 m 0
 9 968 22 988 22 1009 c 0
 22 1030 9 1051 -16 1051 c 0
 -43 1051 -56 1031 -56 1010 c 0
 -56 989 -43 968 -15 968 c 0
EndSplineSet
EndChar
StartChar: uni0E01
Encoding: 161 3585 129
Width: 574
Flags: W
HStem: 0 21G<79 178 391 487> 378 44<202 217 202 368> 544 54<396 440>
DStem: 166 315 268 326 79 0 178 0 502 399 599 404 391 0 487 0
Fore
487 0 m 1
 391 0 l 1
 502 399 l 2
 528 495 471 544 396 544 c 0
 329 544 246 503 202 422 c 1
 380 422 l 1
 368 378 l 1
 346 378 321 378 321 378 c 2
 296 378 276 355 268 326 c 2
 178 0 l 1
 79 0 l 1
 166 315 l 2
 172 336 196 373 217 378 c 1
 137 378 l 1
 182 522 324 598 440 598 c 0
 545 598 629 536 599 404 c 1
 487 0 l 1
EndSplineSet
EndChar
StartChar: uni0E02
Encoding: 162 3586 130
Width: 557
Flags: W
HStem: -8 46<340 355> 298 35<216 225> 432 34<216 225> 542 56<292 328>
VStem: 268 35<375 393>
DStem: 345 472 433 436 247 118 331 69 539 596 637 596 393 68 505 118
Fore
505 118 m 2
 485 46 424 -8 340 -8 c 0
 265 -8 227 48 247 118 c 2
 345 472 l 2
 357 517 329 542 292 542 c 0
 253 542 205 515 185 456 c 1
 204 466 203 466 223 466 c 0
 277 466 303 428 303 380 c 0
 303 336 272 298 218 298 c 0
 118 298 116 386 141 458 c 0
 169 535 238 598 328 598 c 0
 423 598 458 527 433 436 c 2
 331 69 l 2
 327 54 336 38 353 38 c 0
 370 38 389 54 393 68 c 2
 539 596 l 1
 637 596 l 1
 505 118 l 2
221 333 m 0
 252 333 268 358 268 382 c 0
 268 407 253 432 221 432 c 0
 190 432 174 407 174 382 c 0
 174 358 189 333 221 333 c 0
EndSplineSet
EndChar
StartChar: uni0E03
Encoding: 163 3587 131
Width: 607
Flags: W
HStem: -8 46<389 404> 254 38<216 224> 390 36<216 223> 576 20G<587 685>
VStem: 266 39<340 345>
DStem: 256 536 278 599 304 459 323 525 395 485 486 455 293 118 379 69 587 596 685 596 441 68 553 118
Fore
553 118 m 2
 533 46 473 -8 389 -8 c 0
 313 -8 274 51 293 118 c 2
 395 485 l 2
 400 505 399 521 384 525 c 1
 304 459 l 1
 256 536 l 1
 220 515 190 480 176 414 c 1
 192 426 203 426 221 426 c 0
 277 425 304 384 305 342 c 0
 305 298 275 254 218 254 c 0
 131 254 112 346 132 427 c 0
 146 478 188 559 278 599 c 1
 323 525 l 1
 411 599 l 1
 500 588 504 521 486 455 c 2
 379 69 l 2
 375 54 382 38 402 38 c 0
 421 38 437 54 441 68 c 2
 587 596 l 1
 685 596 l 1
 553 118 l 2
220 292 m 0
 251 292 267 316 266 340 c 0
 266 365 251 390 219 390 c 0
 188 390 173 366 173 342 c 0
 172 317 188 292 220 292 c 0
EndSplineSet
EndChar
StartChar: uni0E04
Encoding: 164 3588 132
Width: 561
Flags: W
HStem: 0 21G<85 183 381 478> 248 45<340 348> 398 46<340 348> 547 52<379 406>
VStem: 394 45<345 353>
DStem: 150 233 240 206 85 0 183 0 489 389 590 404 381 0 478 0
Fore
478 0 m 1
 381 0 l 1
 489 389 l 2
 515 484 486 547 389 547 c 0
 286 547 205 482 182 401 c 0
 171 361 188 333 197 319 c 1
 200 319 l 1
 236 384 272 444 346 444 c 0
 408 444 440 396 439 347 c 0
 440 298 408 248 342 248 c 0
 318 248 288 262 274 280 c 1
 260 270 248 233 240 206 c 2
 183 0 l 1
 85 0 l 1
 150 233 l 2
 161 275 108 304 135 401 c 0
 170 525 283 599 402 599 c 0
 534 599 631 550 590 404 c 2
 478 0 l 1
344 293 m 0
 377 293 393 319 394 345 c 0
 394 371 376 398 343 398 c 0
 309 398 292 372 293 346 c 0
 293 320 309 293 344 293 c 0
EndSplineSet
EndChar
StartChar: uni0E05
Encoding: 165 3589 133
Width: 563
Flags: W
HStem: 0 21G<85 183 380 476> 218 45<324 342> 367 45<330 342>
VStem: 388 42<314 326.524>
DStem: 149 229 235 186 85 0 183 0 309 535 332 598 372 459 389 521 487 387 583 387 380 0 476 0 490 596 478 535 389 521 372 459
Fore
476 0 m 1
 380 0 l 1
 487 387 l 2
 503 444 522 504 478 535 c 1
 372 459 l 1
 309 535 l 1
 275 527 203 475 182 401 c 0
 171 362 182 327 199 295 c 1
 202 295 l 1
 231 341 260 412 340 412 c 0
 398 412 431 363 430 314 c 0
 431 266 399 218 332 218 c 0
 308 218 275 232 266 248 c 1
 251 238 238 197 235 186 c 2
 183 0 l 1
 85 0 l 1
 149 229 l 2
 158 264 108 304 135 401 c 0
 170 525 267 576 332 598 c 1
 389 521 l 1
 490 596 l 1
 544 581 628 548 583 387 c 2
 476 0 l 1
336 263 m 0
 370 263 387 289 388 316 c 0
 388 341 371 367 337 367 c 0
 303 367 286 341 285 314 c 0
 285 289 302 263 336 263 c 0
EndSplineSet
EndChar
StartChar: uni0E06
Encoding: 166 3590 134
Width: 721
Flags: W
HStem: -8 66<255 270> 254 38<216 224> 390 36<216 223> 576 20G<700 796>
VStem: 266 39<340 345>
DStem: 256 536 278 599 304 459 323 525 395 485 486 455 322 223 419 214 700 596 796 596 568 120 631 0
Fore
132 427 m 0
 146 479 188 559 278 599 c 1
 323 525 l 1
 411 599 l 1
 500 588 504 521 486 455 c 2
 419 214 l 1
 447 206 524 183 568 120 c 1
 700 596 l 1
 796 596 l 1
 631 0 l 25
 549 0 l 17
 522 120 438 152 406 163 c 1
 384 77 357 -8 268 -8 c 0
 195 -8 176 47 192 104 c 0
 207 160 256 217 322 223 c 1
 395 485 l 2
 400 505 399 521 384 525 c 1
 304 459 l 1
 256 536 l 1
 220 515 190 480 176 414 c 1
 192 426 203 426 221 426 c 0
 277 425 304 384 305 342 c 0
 305 298 275 254 218 254 c 0
 131 254 112 346 132 427 c 0
220 292 m 0
 251 292 267 316 266 340 c 0
 266 365 251 390 219 390 c 0
 188 390 173 366 173 342 c 0
 172 317 188 292 220 292 c 0
282 80 m 0
 308 174 l 0
 274 170 248 136 239 106 c 0
 232 81 238 58 265 58 c 0
 273 58 278 66 282 80 c 0
EndSplineSet
EndChar
StartChar: uni0E07
Encoding: 167 3591 135
Width: 416
Flags: W
HStem: 0 21G<237 332> 545 48<330 345>
VStem: 389 75<476 494>
Fore
332 0 m 1
 237 0 l 1
 127 338 l 1
 145 395 l 1
 265 117 l 1
 343 395 l 1
 330 394 324 396 315 398 c 0
 268 411 245 452 246 494 c 0
 246 543 278 593 341 593 c 0
 470 593 468 490 464 476 c 2
 464 475 332 0 332 0 c 1
337 441 m 0
 371 441 389 467 389 494 c 0
 388 519 372 545 338 545 c 0
 305 545 288 519 287 492 c 0
 289 467 304 441 337 441 c 0
EndSplineSet
EndChar
StartChar: uni0E08
Encoding: 168 3592 136
Width: 538
Flags: W
HStem: -5 50<321 340> 386 46<257 268> 540 57<374 409>
VStem: 168 43<321.571 333.937 334 345.186>
DStem: 259 236 383 327 228 121 313 75 468 415 568 413 374 74 487 121
Fore
487 121 m 2
 467 49 404 -5 321 -5 c 0
 253 -5 209 54 228 121 c 2
 259 236 l 1
 249 238 242 239 235 242 c 0
 215 248 168 276 168 334 c 0
 167 386 208 432 266 432 c 0
 354 432 398 381 383 327 c 2
 313 75 l 2
 309 60 315 45 334 45 c 0
 354 45 370 60 374 74 c 2
 468 415 l 2
 491 498 442 540 374 540 c 0
 311 540 230 503 177 430 c 1
 147 450 l 1
 221 553 323 597 409 597 c 0
 517 597 599 527 568 413 c 2
 487 121 l 2
262 281 m 0
 295 281 312 307 311 333 c 0
 312 359 295 386 261 386 c 0
 227 386 211 360 211 334 c 0
 210 308 228 281 262 281 c 0
EndSplineSet
EndChar
StartChar: uni0E09
Encoding: 169 3593 137
Width: 586
Flags: W
HStem: -8 43<468 473> 0 240<209 236> 194 46<208 212> 344 45<208 217> 542 57<404 440>
VStem: 120 41<284 298> 378 43<83 88> 521 46<87 92>
DStem: 517 421 612 412 451 183 558 215
Fore
558 215 m 2x3f
 549 183 532 173 532 173 c 1
 531 170 l 1
 554 152 567 121 567 90 c 0
 566 41 537 -8 470 -8 c 0xbf
 417 -8 377 34 378 85 c 0
 377 95 379 106 382 116 c 1
 303 86 246 20 236 0 c 1
 156 0 l 1x5f
 210 194 l 1
 204 194 192 197 184 200 c 0
 155 208 120 241 120 296 c 0
 120 340 154 389 213 389 c 0
 302 389 348 339 333 286 c 2
 297 154 l 2
 290 131 279 109 279 109 c 1
 303 131 363 175 451 183 c 1
 517 421 l 2
 538 499 481 542 404 542 c 0
 334 542 248 506 190 430 c 1
 158 450 l 1
 229 552 343 599 440 599 c 0
 555 599 646 532 612 412 c 2
 558 215 l 2x3f
212 240 m 0x5f
 212 240 l 0
 245 240 262 266 262 292 c 0
 261 318 245 344 212 344 c 0
 178 344 161 318 161 292 c 0
 161 266 178 240 212 240 c 0x5f
471 35 m 0x9f
 505 35 522 61 521 87 c 0
 521 113 504 140 470 140 c 0
 437 140 421 114 421 88 c 0
 421 62 438 35 471 35 c 0x9f
EndSplineSet
EndChar
StartChar: uni0E0A
Encoding: 170 3594 138
Width: 556
Flags: W
HStem: 0 45<161 354> 298 35<216 229> 432 34<216 229> 542 56<292 328>
VStem: 268 35<378 393>
DStem: 345 472 420 393 226 45 323 45
Fore
141 458 m 0
 170 536 238 598 328 598 c 0
 423 598 457 524 435 445 c 1
 508 449 565 531 584 594 c 1
 692 594 l 1
 692 594 l 0
 645 476 572 435 506 418 c 1
 571 415 582 316 554 215 c 0
 525 108 452 0 352 0 c 2
 150 0 l 1
 162 45 l 1
 226 45 l 1
 345 472 l 2
 357 517 329 542 292 542 c 0
 253 542 205 515 185 456 c 1
 204 466 203 466 223 466 c 0
 277 466 303 428 303 380 c 0
 303 336 272 298 218 298 c 0
 118 298 116 386 141 458 c 0
221 333 m 0
 252 333 268 358 268 382 c 0
 268 407 253 432 221 432 c 0
 190 432 174 407 174 382 c 0
 174 358 189 333 221 333 c 0
456 386 m 0
 448 392 429 393 420 393 c 1
 323 45 l 1
 351 45 l 2
 391 45 432 124 454 206 c 0
 476 283 481 363 456 386 c 0
EndSplineSet
EndChar
StartChar: uni0E0B
Encoding: 171 3595 139
Width: 618
Flags: W
HStem: 0 45<211 404> 254 38<210 224> 390 36<210 223>
VStem: 266 39<340 345>
DStem: 256 536 278 599 304 459 323 525 395 485 469 393 272 45 372 45
Fore
132 427 m 0
 146 479 188 559 278 599 c 1
 323 525 l 1
 411 599 l 1
 500 588 504 521 486 455 c 2
 485 450 l 1
 563 453 614 531 634 594 c 1
 742 594 l 1
 742 594 l 0
 695 476 622 435 556 418 c 1
 621 415 633 316 605 215 c 0
 575 109 502 0 402 0 c 2
 200 0 l 1
 212 45 l 1
 272 45 l 1
 395 485 l 2
 400 505 399 521 384 525 c 1
 304 459 l 1
 256 536 l 1
 220 515 190 480 176 414 c 1
 192 426 203 426 221 426 c 0
 277 425 304 384 305 342 c 0
 305 298 275 254 218 254 c 0
 131 254 112 346 132 427 c 0
220 292 m 0
 251 292 267 316 266 340 c 0
 266 365 251 390 219 390 c 0
 188 390 173 366 173 342 c 0
 172 317 188 292 220 292 c 0
506 386 m 0
 497 392 480 393 469 393 c 1
 372 45 l 1
 400 45 l 2
 440 45 481 124 504 207 c 0
 525 283 531 363 506 386 c 0
EndSplineSet
EndChar
StartChar: uni0E0C
Encoding: 172 3596 140
Width: 762
Flags: W
HStem: -6 43<200 217> 378 44<202 217 202 368> 543 56<396 439>
VStem: 257 44<87 92>
DStem: 166 315 267 326 113 121 227 181 503 404 598 402 444 190 538 184 755 596 854 596 627 132 689 0
Fore
413 71 m 0
 433 144 l 0
 406 142 384 115 377 90 c 0
 374 78 373 66 379 58 c 0
 386 49 407 51 413 71 c 0
267 326 m 2
 227 181 l 1
 275 173 301 130 301 87 c 0
 301 40 270 -6 203 -6 c 0
 113 -6 100 77 113 121 c 2
 166 315 l 2
 172 336 196 373 217 378 c 1
 137 378 l 1
 182 522 323 599 439 599 c 0
 545 599 628 535 598 402 c 1
 538 184 l 1
 555 180 606 167 627 132 c 1
 755 596 l 1
 854 596 l 1
 689 0 l 1
 609 0 l 1
 627 78 566 129 524 135 c 1
 501 52 479 -8 397 -8 c 0
 334 -8 317 41 331 90 c 0
 344 138 387 187 444 190 c 1
 503 404 l 2
 529 496 471 543 396 543 c 0
 328 543 247 504 202 422 c 1
 380 422 l 1
 368 378 l 1
 346 378 321 378 321 378 c 2
 294 378 274 355 267 326 c 2
205 37 m 0
 239 37 256 63 257 90 c 0
 257 115 240 141 206 141 c 0
 172 141 155 115 155 88 c 0
 155 63 171 37 205 37 c 0
EndSplineSet
EndChar
StartChar: uni0E0D
Encoding: 173 3597 141
Width: 762
Flags: W
HStem: -62 31<413 431> -8 49<515 530> 143 44<227 239> 378 44<201 217 201 369> 545 53<382 424>
VStem: 279 43<81 92> 465 30<-116 -104>
DStem: 166 315 267 326 113 124 229 187 472 401 571 401 395 124 488 101 741 596 839 596 604 100 706 117
Fore
706 117 m 2
 691 61 607 -8 515 -8 c 0
 426 -8 376 54 395 124 c 2
 472 401 l 2
 498 496 449 545 382 545 c 0
 321 545 247 505 201 422 c 1
 380 422 l 1
 368 378 l 1
 346 378 321 378 321 378 c 2
 294 378 275 355 267 326 c 2
 229 187 l 1
 290 186 322 139 322 92 c 0
 321 44 290 -3 226 -6 c 0
 124 -11 101 80 113 124 c 2
 166 315 l 2
 172 336 196 373 217 378 c 1
 137 378 l 1
 181 522 315 598 424 598 c 0
 523 598 601 534 571 401 c 1
 488 101 l 2
 479 68 495 41 528 41 c 0
 563 41 594 66 604 100 c 2
 741 596 l 1
 839 596 l 1
 706 117 l 2
228 38 m 0
 262 38 279 64 279 90 c 0
 278 116 262 143 227 143 c 0
 194 143 176 117 176 91 c 0
 177 65 194 38 228 38 c 0
644 -109 m 2
 596 -283 280 -303 333 -112 c 0
 341 -83 368 -31 421 -31 c 0
 472 -31 495 -74 495 -108 c 0
 495 -165 442 -186 404 -177 c 1
 403 -181 l 1
 444 -220 532 -183 551 -114 c 2
 571 -43 l 1
 662 -43 l 1
 644 -109 l 2
465 -106 m 0
 465 -106 l 0
 465 -77 444 -62 422 -62 c 0
 400 -62 378 -77 378 -106 c 0
 378 -136 400 -152 422 -152 c 0
 443 -152 465 -136 465 -106 c 0
EndSplineSet
Substitution: 0 65534 'nds0' uni0E0D.descless
Substitution: 0 65534 'ndsc' uni0E0D.descless
EndChar
StartChar: uni0E0E
Encoding: 174 3598 142
Width: 583
Flags: W
HStem: -241 114<367 367.195> -223 51<102 117> -90 52<155 175> -6 44<115 126> 143 44<115 126> 378 44<215 228 215 383> 544 55<409 453>
VStem: 29 41<91 95>
DStem: 175 304 276 318 142 184 214 92 515 413 611 407 379 -77 431 -241
AnchorPoint: "BelowBase" 428.255 -241.152 basechar 0
Fore
431 -241 m 1xbf
 351 -241 l 17xbf
 340 -183 300 -146 254 -118 c 1
 216 -190 152 -223 102 -223 c 0x7f
 53 -223 18 -191 34 -132 c 0
 49 -78 105 -38 175 -38 c 0
 197 -38 221 -42 245 -51 c 1
 277 -5 301 6 316 15 c 1
 357 -9 l 1
 330 -22 307 -41 286 -71 c 1
 314 -80 351 -104 367 -127 c 1
 367 -127 372 -101 379 -77 c 2
 515 413 l 2
 538 499 482 544 409 544 c 0
 341 544 258 504 215 422 c 1
 394 422 l 1
 382 378 l 1
 332 378 l 2
 305 378 284 346 276 318 c 2
 214 92 l 2
 196 29 181 -6 119 -6 c 0
 59 -6 29 43 29 91 c 0
 30 139 59 187 117 187 c 0
 125 187 134 186 142 184 c 1
 175 304 l 2
 182 329 207 373 228 378 c 1
 151 378 l 1
 195 522 337 599 453 599 c 0
 557 599 639 537 611 407 c 1
 431 -241 l 1xbf
213 -100 m 17
 193 -93 173 -90 155 -90 c 0
 120 -90 91 -103 83 -135 c 0
 76 -158 93 -172 117 -172 c 1x7f
 147 -177 191 -141 213 -100 c 17
121 38 m 0
 155 38 171 64 171 90 c 0
 170 116 154 143 120 143 c 0
 87 143 70 117 70 91 c 0
 70 65 88 38 121 38 c 0
EndSplineSet
EndChar
StartChar: uni0E0F
Encoding: 175 3599 143
Width: 583
Flags: W
HStem: -158 58<294 308> -99 48<44 57> -6 44<115 130> 143 44<115 130> 378 44<215 228 215 382> 544 55<409 453>
VStem: 29 41<91 97>
DStem: 174 304 276 318 141 184 214 92 515 413 611 407 366 -123 431 -240
AnchorPoint: "BelowBase" 428.254 -241.152 basechar 0
Fore
141 184 m 1
 174 304 l 2
 181 329 207 373 228 378 c 1
 151 378 l 1
 195 522 337 599 453 599 c 0
 557 599 639 537 611 407 c 1
 431 -240 l 1
 352 -240 l 17
 352 -188 328 -158 295 -158 c 0
 264 -158 226 -183 190 -240 c 1
 149 -240 l 1
 153 -207 140 -172 126 -154 c 1
 94 -214 42 -240 0 -240 c 0
 -48 -240 -84 -207 -69 -151 c 0
 -51 -85 4 -51 57 -51 c 0
 82 -51 107 -58 127 -74 c 1
 147 -45 180 -20 223 -5 c 1
 245 -43 l 1
 215 -51 176 -75 159 -104 c 1
 176 -115 188 -147 191 -169 c 1
 222 -126 268 -100 308 -100 c 0
 330 -100 350 -107 366 -123 c 1
 515 413 l 2
 538 499 482 544 409 544 c 0
 341 544 258 504 215 422 c 1
 394 422 l 1
 382 378 l 1
 332 378 l 2
 305 378 284 346 276 318 c 2
 214 92 l 2
 196 29 181 -6 119 -6 c 0
 59 -6 29 43 29 91 c 0
 30 139 59 187 117 187 c 0
 125 187 133 186 141 184 c 1
121 38 m 0
 155 38 171 64 171 90 c 0
 170 116 154 143 120 143 c 0
 87 143 70 117 70 91 c 0
 70 65 88 38 121 38 c 0
96 -120 m 1
 79 -105 62 -99 46 -99 c 0
 14 -99 -13 -122 -20 -147 c 0
 -34 -200 50 -215 96 -120 c 1
EndSplineSet
EndChar
StartChar: uni0E10
Encoding: 176 3600 144
Width: 484
Flags: W
HStem: -289 48<144 259> -289 123<256 267> -243 42<13 26> -202 36<252 263> -74 40<251 266> -5 50<278 297> 315 43<196 217> 489 76<467 505>
VStem: 113 43<254 269> 177 40<-131.104 -108.845>
DStem: 139 445 215 478 387 370 454 407 396 333 495 335 325 74 431 106
Fore
577 558 m 4x0fc0
 542 505 505 489 467 489 c 4
 408 489 348 528 295 528 c 4
 265 528 238 516 215 478 c 5
 454 407 l 6
 467 402 512 395 495 335 c 6
 431 106 l 6
 411 34 360 -5 278 -5 c 4
 210 -5 169 38 187 106 c 6
 204 166 l 5
 196 167 189 166 181 169 c 4
 142 182 113 212 113 269 c 4
 113 316 155 358 211 358 c 4
 296 358 342 313 327 258 c 6
 276 75 l 6
 272 61 274 45 291 45 c 4
 310 45 321 61 325 74 c 6
 396 333 l 6
 403 358 398 367 387 370 c 6
 139 445 l 5
 168 493 235 601 346 598 c 4
 389 598 452 565 505 565 c 4
 526 565 545 570 561 585 c 4
 577 601 604 599 577 558 c 4x0fc0
340 -218 m 2
 331 -249 307 -289 259 -289 c 2x9fc0
 84 -289 l 1x4fc0
 101 -226 l 2
 108 -203 117 -178 110 -166 c 1x1fc0
 97 -210 61 -243 13 -243 c 0x2fc0
 -23 -243 -45 -223 -43 -183 c 0
 -43 -132 22 -63 91 -84 c 1
 95 -71 101 -58 113 -46 c 1
 158 -52 l 1
 141 -66 131 -88 127 -106 c 1
 179 -134 151 -217 144 -241 c 1
 232 -241 l 2
 248 -241 254 -219 257 -202 c 1
 251 -202 l 2x9fc0
 243 -201 235 -200 222 -195 c 0
 193 -184 177 -152 177 -120 c 0
 176 -78 205 -34 264 -34 c 0
 330 -34 381 -68 364 -129 c 2
 340 -218 l 2
263 -166 m 0x4fc0
 263 -166 l 0
 291 -166 304 -143 304 -121 c 0
 305 -97 290 -74 262 -74 c 0
 231 -74 217 -97 217 -119 c 0
 216 -143 232 -166 263 -166 c 0x4fc0
81 -124 m 0
 58 -117 12 -124 1 -163 c 0
 -5 -183 1 -201 24 -201 c 0x2fc0
 54 -201 81 -160 81 -124 c 0
207 210 m 4
 240 210 256 236 256 262 c 4
 256 288 239 315 206 315 c 4
 172 315 155 289 156 263 c 4
 156 237 173 210 207 210 c 4
EndSplineSet
KernsSLIF: 212 31 1 0 215 31 1 0 214 31 1 0 213 31 1 0
Substitution: 0 65534 'nds0' uni0E10.descless
Substitution: 0 65534 'ndsc' uni0E10.descless
EndChar
StartChar: uni0E11
Encoding: 177 3601 145
Width: 743
Flags: W
HStem: 0 21G<262 359 556 654> 254 38<216 224> 390 36<216 223> 507 85<673 742>
VStem: 266 39<340 349>
DStem: 256 536 278 599 304 459 323 525 397 485 485 455 262 0 455 347 397 485 419 216 262 0 359 0 582 490 619 470 455 347 481 308 687 473 788 482 556 0 654 0
Fore
132 427 m 0
 146 479 188 559 278 599 c 1
 323 525 l 1
 411 599 l 1
 500 588 503 521 485 455 c 2
 455 347 l 1
 582 490 l 2
 643 559 702 592 742 592 c 0
 786 592 807 553 788 482 c 2
 654 0 l 1
 556 0 l 1
 687 473 l 2
 693 494 687 507 673 507 c 0
 661 507 642 496 619 470 c 2
 481 308 l 18
 459 282 427 246 419 216 c 2
 359 0 l 1
 262 0 l 1
 397 485 l 2
 402 505 399 521 384 525 c 1
 304 459 l 1
 256 536 l 1
 220 515 190 480 176 414 c 1
 192 426 203 426 221 426 c 0
 277 425 304 384 305 342 c 0
 305 298 275 254 218 254 c 0
 131 254 112 346 132 427 c 0
220 292 m 0
 251 292 267 316 266 340 c 0
 266 365 251 390 219 390 c 0
 188 390 173 366 173 342 c 0
 172 317 188 292 220 292 c 0
EndSplineSet
EndChar
StartChar: uni0E12
Encoding: 178 3602 146
Width: 761
Flags: W
HStem: 0 21G<85 183 598 677> 379 43<324 342> 576 20G<745 842>
VStem: 245 39<324 330> 386 45<328 333>
DStem: 309 535 332 598 372 459 389 521 491 401 586 396 433 190 527 184 493 598 478 535 389 521 372 459 745 596 842 596 616 132 677 0
Fore
842 596 m 1
 677 0 l 1
 598 0 l 0
 615 78 555 129 513 135 c 1
 490 52 467 -8 385 -8 c 0
 322 -8 305 40 319 89 c 0
 332 137 375 187 433 190 c 1
 491 401 l 2
 514 482 508 511 478 535 c 1
 372 459 l 1
 309 535 l 1
 273 524 204 476 183 402 c 0
 155 300 214 227 209 164 c 1
 253 214 299 228 308 238 c 1
 267 249 245 284 245 330 c 0
 245 358 259 422 340 422 c 0
 386 422 431 380 431 329 c 0
 431 305 422 280 399 255 c 0
 336 187 232 146 201 65 c 1
 183 0 l 1
 85 0 l 1
 115 109 l 2
 129 158 96 261 130 384 c 0
 172 535 279 581 332 598 c 1
 389 521 l 1
 493 598 l 1
 549 581 625 539 586 396 c 2
 527 184 l 1
 544 180 593 167 616 132 c 1
 745 596 l 1
 842 596 l 1
399 68 m 0
 420 146 l 17
 393 144 368 116 361 90 c 0
 357 77 358 64 364 55 c 0
 371 45 393 46 399 68 c 0
335 275 m 0
 368 275 385 301 386 328 c 0
 386 353 369 379 336 379 c 0
 302 379 285 353 284 326 c 0
 284 301 301 275 335 275 c 0
EndSplineSet
EndChar
StartChar: uni0E13
Encoding: 179 3603 147
Width: 762
Flags: W
HStem: -10 44<645 655> 132 51<627 649> 143 44<227 239> 378 44<201 217 201 369> 545 53<382 424>
VStem: 279 43<79 92> 696 43<83 94>
DStem: 166 315 267 326 113 124 229 187 472 401 571 401 361 0 495 126 742 596 839 596 627 183 727 192
Fore
727 192 m 2xde
 725 183 712 164 704 158 c 1
 726 144 739 114 739 83 c 0
 739 38 711 -10 647 -10 c 0
 600 -10 571 16 561 60 c 0
 556 81 560 108 568 121 c 1
 507 86 469 23 457 0 c 1
 361 0 l 1
 472 401 l 2
 498 496 449 545 382 545 c 0
 321 545 247 505 201 422 c 1
 380 422 l 1
 368 378 l 1
 346 378 321 378 321 378 c 2
 294 378 275 355 267 326 c 2
 229 187 l 1xbe
 290 186 322 139 322 92 c 0
 321 44 290 -3 226 -6 c 0
 124 -11 101 80 113 124 c 2
 166 315 l 2
 172 336 196 373 217 378 c 1
 137 378 l 1
 181 522 315 598 424 598 c 0
 523 598 601 534 571 401 c 1
 495 126 l 1
 522 147 571 184 627 183 c 1
 742 596 l 1
 839 596 l 1
 727 192 l 2xde
649 34 m 0
 649 34 l 0
 680 34 696 58 696 83 c 0
 696 108 681 132 649 132 c 0xde
 618 132 602 108 602 83 c 0
 602 58 617 34 649 34 c 0
228 38 m 0
 262 38 279 64 279 90 c 0
 278 116 262 143 227 143 c 0xbe
 194 143 176 117 176 91 c 0
 177 65 194 38 228 38 c 0
EndSplineSet
KernsSLIF: 212 -15 1 0 215 -15 1 0 214 -15 1 0 213 -15 1 0
EndChar
StartChar: uni0E14
Encoding: 180 3604 148
Width: 579
Flags: W
HStem: 0 21G<96 194 399 495> 407 43<351 369> 548 50<407 433>
VStem: 266 41<350 358> 409 45<356 361>
DStem: 513 412 609 412 399 0 495 0
Fore
495 0 m 1
 399 0 l 1
 513 412 l 2
 529 470 515 548 417 548 c 0
 302 548 220 487 196 399 c 0
 175 323 217 240 220 163 c 1
 263 212 310 240 330 266 c 1
 289 277 266 310 266 358 c 0
 266 386 280 450 362 450 c 0
 410 450 454 408 454 357 c 0
 454 335 445 311 425 288 c 0
 354 210 228 115 212 65 c 1
 194 0 l 1
 96 0 l 1
 122 94 l 2
 145 177 111 270 142 384 c 0
 195 574 358 598 431 598 c 0
 547 598 646 545 609 412 c 2
 495 0 l 1
357 303 m 0
 391 303 408 329 409 356 c 0
 409 381 392 407 358 407 c 0
 324 407 308 381 307 354 c 0
 307 329 324 303 357 303 c 0
EndSplineSet
EndChar
StartChar: uni0E15
Encoding: 181 3605 149
Width: 582
Flags: W
HStem: 0 21G<98 196 399 495> 379 43<337 355>
DStem: 323 535 344 598 384 459 401 521 510 401 605 396 399 0 495 0 511 598 497 535 401 521 384 459
Fore
495 0 m 1
 399 0 l 1
 510 401 l 2
 533 482 527 511 497 535 c 1
 384 459 l 1
 323 535 l 1
 285 524 217 476 196 402 c 0
 172 315 228 224 223 161 c 1
 266 210 308 223 321 238 c 1
 264 255 257 307 257 330 c 0
 257 358 274 422 353 422 c 0
 407 422 445 376 446 328 c 0
 446 305 437 282 418 262 c 0
 352 194 245 146 214 65 c 1
 196 0 l 1
 98 0 l 1
 124 94 l 2
 151 192 107 255 142 384 c 0
 184 535 293 581 344 598 c 1
 401 521 l 1
 511 598 l 1
 568 581 644 539 605 396 c 2
 495 0 l 1
347 275 m 0
 381 275 398 301 399 328 c 0
 399 353 382 379 348 379 c 0
 315 379 298 353 297 326 c 0
 298 301 314 275 347 275 c 0
EndSplineSet
EndChar
StartChar: uni0E16
Encoding: 182 3606 150
Width: 574
Flags: W
HStem: 0 21G<391 487> 143 44<227 239> 378 44<202 217 202 369> 543 56<396 439>
VStem: 279 43<88 92>
DStem: 166 315 267 326 113 124 229 187 503 404 598 402 391 0 487 0
Fore
229 187 m 1
 290 186 322 139 322 92 c 0
 321 44 290 -3 226 -6 c 0
 124 -11 101 80 113 124 c 2
 166 315 l 2
 172 336 196 373 217 378 c 1
 137 378 l 1
 181 522 323 599 439 599 c 0
 545 599 629 535 598 402 c 1
 487 0 l 1
 391 0 l 1
 503 404 l 2
 528 496 470 543 396 543 c 0
 328 543 247 504 202 422 c 1
 380 422 l 1
 368 378 l 1
 346 378 321 378 321 378 c 2
 294 378 275 355 267 326 c 2
 267 326 241 232 229 187 c 1
228 38 m 0
 262 38 279 64 279 90 c 0
 278 116 262 143 227 143 c 0
 194 143 176 117 176 91 c 0
 177 65 194 38 228 38 c 0
EndSplineSet
EndChar
StartChar: uni0E17
Encoding: 183 3607 151
Width: 624
Flags: W
HStem: 0 21G<147 243 441 539> 545 51<242 260>
VStem: 157 46<492 498>
DStem: 256 392 303 216 147 0 243 0 467 490 504 470 339 347 365 308 572 473 673 482 441 0 539 0
Fore
504 470 m 2
 365 308 l 18
 343 282 311 246 303 216 c 2
 243 0 l 1
 147 0 l 1
 256 392 l 1
 250 391 246 393 232 396 c 0
 182 405 157 450 157 495 c 0
 157 545 189 596 258 596 c 0
 385 596 379 492 376 479 c 2
 339 347 l 1
 467 490 l 2
 528 559 587 592 627 592 c 0
 671 592 692 553 673 482 c 2
 539 0 l 1
 441 0 l 1
 572 473 l 2
 578 494 572 507 558 507 c 0
 546 507 527 496 504 470 c 2
253 441 m 0
 287 441 305 467 305 494 c 0
 304 519 288 545 254 545 c 0
 220 545 203 519 203 492 c 0
 204 467 219 441 253 441 c 0
EndSplineSet
EndChar
StartChar: uni0E18
Encoding: 184 3608 152
Width: 484
Flags: W
HStem: 0 45<49 292> 489 76<466 503>
DStem: 137 445 213 478 385 370 453 407 181 364 279 364 92 45 190 45 395 333 493 335 331 101 433 120
Fore
576 558 m 0
 541 505 504 489 466 489 c 0
 407 489 347 528 294 528 c 0
 264 528 237 516 213 478 c 1
 453 407 l 2
 466 402 510 395 493 335 c 2
 433 120 l 2
 411 38 360 0 292 0 c 2
 38 0 l 1
 50 45 l 1
 92 45 l 1
 181 364 l 1
 279 364 l 1
 190 45 l 1
 250 45 l 2
 293 45 320 61 331 101 c 2
 395 333 l 2
 402 358 397 367 385 370 c 2
 137 445 l 1
 167 493 233 601 344 598 c 0
 388 598 451 565 503 565 c 0
 524 565 543 570 559 585 c 0
 576 601 603 599 576 558 c 0
EndSplineSet
EndChar
StartChar: uni0E19
Encoding: 185 3609 153
Width: 632
Flags: W
HStem: -8 46<498 516> 137 49<487 505> 545 51<242 260>
VStem: 157 46<492 498> 410 48<85 92> 553 49<87 92>
DStem: 256 392 376 479 147 0 284 147 600 596 698 596 487 186 588 201
Fore
698 596 m 1
 588 201 l 2
 586 193 573 176 566 170 c 1
 589 152 602 121 602 90 c 0
 601 41 571 -8 504 -8 c 0
 442 -8 410 43 410 87 c 0
 410 103 414 118 422 130 c 1
 325 119 244 34 224 0 c 1
 147 0 l 1
 256 392 l 1
 250 391 246 393 232 396 c 0
 182 405 157 450 157 495 c 0
 157 545 189 596 258 596 c 0
 385 596 379 492 376 479 c 2
 284 147 l 2
 280 135 275 123 271 111 c 1
 321 152 379 184 487 186 c 1
 600 596 l 1
 698 596 l 1
253 441 m 0
 287 441 305 467 305 494 c 0
 304 519 288 545 254 545 c 0
 220 545 203 519 203 492 c 0
 204 467 219 441 253 441 c 0
506 38 m 0
 506 38 l 0
 538 38 552 62 553 87 c 0
 553 112 537 137 505 137 c 0
 474 137 458 113 458 88 c 0
 458 63 475 38 506 38 c 0
EndSplineSet
KernsSLIF: 212 -46 1 0 215 -46 1 0 214 -46 1 0 213 -46 1 0
EndChar
StartChar: uni0E1A
Encoding: 186 3610 154
Width: 618
Flags: W
HStem: 0 45<104 421> 545 51<251 260>
VStem: 157 46<492 498>
DStem: 256 392 376 479 159 45 255 45 599 596 697 596 463 106 565 120
Fore
256 392 m 1
 250 391 246 393 232 396 c 0
 182 405 157 450 157 495 c 0
 157 545 189 596 258 596 c 0
 385 596 379 492 376 479 c 2
 376 479 275 117 255 45 c 1
 393 45 l 2
 419 45 454 63 463 106 c 2
 599 596 l 1
 697 596 l 1
 565 120 l 2
 556 74 506 0 421 0 c 2
 93 0 l 1
 105 45 l 1
 159 45 l 1
 256 392 l 1
253 441 m 0
 287 441 305 467 305 494 c 0
 304 519 288 545 254 545 c 0
 220 545 203 519 203 492 c 0
 204 467 219 441 253 441 c 0
EndSplineSet
EndChar
StartChar: uni0E1B
Encoding: 187 3611 155
Width: 634
Flags: W
HStem: 0 45<104 435> 545 51<251 260>
VStem: 157 46<492 498>
DStem: 256 392 376 479 159 45 255 45 715 964 813 964 477 106 579 120
AnchorPoint: "AboveBase" 562.842 629.76 basechar 0
Fore
256 392 m 1
 250 391 246 393 232 396 c 0
 182 405 157 450 157 495 c 0
 157 545 189 596 258 596 c 0
 385 596 379 492 376 479 c 2
 376 479 275 117 255 45 c 1
 408 45 l 2
 434 45 468 63 477 106 c 2
 715 964 l 1
 813 964 l 1
 579 120 l 2
 570 74 522 0 435 0 c 2
 93 0 l 1
 105 45 l 1
 159 45 l 1
 256 392 l 1
253 441 m 0
 287 441 305 467 305 494 c 0
 304 519 288 545 254 545 c 0
 220 545 203 519 203 492 c 0
 204 467 219 441 253 441 c 0
EndSplineSet
EndChar
StartChar: uni0E1C
Encoding: 188 3612 156
Width: 618
Flags: W
HStem: 0 132<477 477.093> 397 48<331 345> 550 48<331 346>
VStem: 386 47<494 500>
DStem: 209 478 287 409 76 0 225 187 389 287 415 382 441 66 468 187 415 382 389 287 245 183 203 66 600 596 697 596 487 190 532 0
Fore
697 596 m 1
 532 0 l 1
 434 0 l 1
 443 34 l 2
 448 52 441 60 441 66 c 2
 389 287 l 1
 203 66 l 2
 200 60 190 54 184 34 c 2
 175 0 l 1
 76 0 l 1
 209 478 l 2
 225 539 246 598 340 598 c 0
 402 598 433 547 433 496 c 0
 433 446 403 397 343 397 c 0
 326 397 308 401 287 409 c 1
 287 409 235 223 225 187 c 2
 218 163 203 129 203 129 c 1
 203 129 233 169 245 183 c 2
 415 382 l 1
 468 187 l 2
 472 172 477 132 477 132 c 1
 477 132 480 166 487 190 c 0
 497 226 600 596 600 596 c 1
 697 596 l 1
335 445 m 0
 369 445 386 471 386 498 c 0
 386 524 369 550 335 550 c 0
 302 550 285 524 286 498 c 0
 286 471 302 445 335 445 c 0
EndSplineSet
EndChar
StartChar: uni0E1D
Encoding: 189 3613 157
Width: 631
Flags: W
HStem: 0 132<491 491.093> 397 48<331 345> 550 48<331 346>
VStem: 386 47<494 500>
DStem: 209 478 287 409 76 0 225 187 399 295 425 390 456 66 483 187 425 390 399 295 245 183 203 66 715 964 813 964 501 190 546 0
AnchorPoint: "AboveBase" 559.913 629.76 basechar 0
Fore
287 409 m 1
 287 409 235 223 225 187 c 2
 218 163 203 129 203 129 c 1
 203 129 233 169 245 183 c 2
 425 390 l 1
 483 187 l 2
 488 172 491 132 491 132 c 1
 491 132 494 166 501 190 c 2
 715 964 l 1
 813 964 l 1
 546 0 l 1
 448 0 l 1
 457 34 l 2
 462 52 457 60 456 66 c 2
 399 295 l 1
 203 66 l 2
 200 60 190 54 184 34 c 2
 175 0 l 1
 76 0 l 1
 209 478 l 2
 225 539 246 598 340 598 c 0
 402 598 433 547 433 496 c 0
 433 446 403 397 343 397 c 0
 326 397 308 401 287 409 c 1
335 445 m 0
 369 445 386 471 386 498 c 0
 386 524 369 550 335 550 c 0
 302 550 285 524 286 498 c 0
 286 471 302 445 335 445 c 0
EndSplineSet
EndChar
StartChar: uni0E1E
Encoding: 190 3614 158
Width: 689
Flags: W
HStem: 0 21G<148 238 510 602> 545 51<243 260>
VStem: 157 46<492 498> 500 58<220.506 249>
DStem: 256 392 378 479 148 0 315 253 500 450 544 588 510 0 558 249 532 588 500 450 329 249 238 0 670 596 767 596 575 253 602 0
Fore
378 479 m 2
 315 253 l 2
 308 226 280 160 280 160 c 1
 285 160 l 1
 285 160 312 217 329 249 c 2
 532 588 l 1
 544 588 l 1
 558 249 l 2
 558 217 552 160 552 160 c 1
 558 160 l 1
 558 160 568 226 575 253 c 2
 670 596 l 1
 767 596 l 1
 602 0 l 1
 510 0 l 1
 500 450 l 1
 238 0 l 1
 148 0 l 1
 256 392 l 1
 250 391 246 393 232 396 c 0
 182 405 157 450 157 495 c 0
 157 545 189 596 258 596 c 0
 385 596 381 492 378 479 c 2
253 441 m 0
 287 441 305 467 305 494 c 0
 304 519 288 545 254 545 c 0
 220 545 203 519 203 492 c 0
 204 467 219 441 253 441 c 0
EndSplineSet
EndChar
StartChar: uni0E1F
Encoding: 191 3615 159
Width: 689
Flags: W
HStem: 0 21G<148 238 510 602> 545 51<243 260>
VStem: 157 46<492 498> 500 58<220.506 249>
DStem: 256 392 378 479 148 0 315 253 500 450 544 588 510 0 558 249 532 588 500 450 329 249 238 0 773 964 869 964 575 253 602 0
AnchorPoint: "AboveBase" 618.507 629.76 basechar 0
Fore
378 479 m 2
 315 253 l 2
 308 226 280 160 280 160 c 1
 285 160 l 1
 285 160 312 217 329 249 c 2
 532 588 l 1
 544 588 l 1
 558 249 l 2
 558 217 552 160 552 160 c 1
 558 160 l 1
 558 160 568 226 575 253 c 2
 773 964 l 1
 869 964 l 1
 602 0 l 1
 510 0 l 1
 500 450 l 1
 238 0 l 1
 148 0 l 1
 256 392 l 1
 250 391 246 393 232 396 c 0
 182 405 157 450 157 495 c 0
 157 545 189 596 258 596 c 0
 385 596 381 492 378 479 c 2
253 441 m 0
 287 441 305 467 305 494 c 0
 304 519 288 545 254 545 c 0
 220 545 203 519 203 492 c 0
 204 467 219 441 253 441 c 0
EndSplineSet
EndChar
StartChar: uni0E20
Encoding: 192 3616 160
Width: 588
Flags: W
HStem: -8 45<120 129> 141 45<126 130> 378 44<221 234 221 388> 544 55<415 459>
VStem: 33 41<86 92>
DStem: 179 304 282 318 146 185 220 92 520 413 617 407 405 0 504 0
Fore
504 0 m 1
 405 0 l 1
 520 413 l 2
 543 499 487 544 415 544 c 0
 347 544 264 504 221 422 c 1
 399 422 l 1
 387 378 l 1
 338 378 l 2
 312 378 290 346 282 318 c 2
 220 92 l 2
 202 29 188 -8 122 -8 c 0
 65 -8 33 43 33 92 c 0
 33 140 62 186 126 186 c 0
 132 186 139 186 146 185 c 1
 179 304 l 2
 186 329 213 373 234 378 c 1
 157 378 l 1
 201 522 343 599 459 599 c 0
 562 599 645 537 617 407 c 1
 504 0 l 1
125 37 m 0
 159 37 176 63 177 90 c 0
 177 115 160 141 126 141 c 0
 92 141 75 115 74 88 c 0
 74 63 91 37 125 37 c 0
EndSplineSet
EndChar
StartChar: uni0E21
Encoding: 193 3617 161
Width: 621
Flags: W
HStem: 0 21G<448 538> 545 51<242 265>
VStem: 157 46<492 498>
DStem: 256 392 376 479 212 233 305 224 606 596 703 596 473 114 538 0
Fore
256 392 m 1
 250 391 246 393 232 396 c 0
 182 405 157 450 157 495 c 0
 157 545 189 596 258 596 c 0
 385 596 379 492 376 479 c 2
 376 479 319 275 305 224 c 1
 353 215 432 175 473 114 c 1
 606 596 l 1
 703 596 l 1
 538 0 l 25
 448 0 l 17
 431 80 395 141 292 177 c 1
 281 138 274 104 263 78 c 0
 239 22 208 -8 150 -8 c 0
 76 -8 57 50 73 109 c 0
 89 168 141 228 212 233 c 1
 256 392 l 1
253 441 m 0
 287 441 305 467 305 494 c 0
 304 519 288 545 254 545 c 0
 220 545 203 519 203 492 c 0
 204 467 219 441 253 441 c 0
168 75 m 0
 199 187 l 17
 164 186 127 150 117 113 c 0
 111 92 113 72 129 58 c 0
 137 52 161 52 168 75 c 0
EndSplineSet
EndChar
StartChar: uni0E22
Encoding: 194 3618 162
Width: 575
Flags: W
HStem: -8 46<271 301> 283 44<306 343> 398 47<331 346> 550 48<331 345>
VStem: 386 48<487 505>
DStem: 556 596 652 596 426 126 535 174
Fore
652 596 m 1
 535 174 l 2
 505 65 411 -8 276 -8 c 0
 152 -8 85 49 116 163 c 2
 123 187 l 2
 142 257 189 289 219 306 c 1
 200 318 168 349 189 424 c 2
 189 424 192 438 196 452 c 2
 215 521 262 598 339 598 c 0
 400 598 434 545 434 494 c 0
 434 446 403 398 336 398 c 0
 316 398 291 411 283 419 c 1
 262 355 279 327 318 327 c 2
 356 327 l 1
 343 283 l 1
 305 283 l 2
 272 283 241 258 225 203 c 2
 203 124 l 2
 187 66 233 38 290 38 c 0
 355 38 411 71 426 126 c 2
 426 126 549 570 556 596 c 1
 652 596 l 1
335 445 m 0
 369 445 386 471 386 498 c 0
 386 524 369 550 335 550 c 0
 302 550 285 524 286 498 c 0
 286 471 302 445 335 445 c 0
EndSplineSet
EndChar
StartChar: uni0E23
Encoding: 195 3619 163
Width: 427
Flags: W
HStem: -4 50<236 250> 151 49<232 250> 530 68<298 341>
DStem: 137 445 212 478 328 387 401 422 339 350 437 350 294 186 372 114
Fore
549 559 m 0
 549 559 l 0
 496 468 414 499 397 505 c 0
 356 521 324 530 298 530 c 0
 262 530 237 513 212 478 c 1
 401 422 l 2
 433 413 449 393 437 350 c 2
 372 114 l 2
 368 100 369 -4 238 -4 c 0
 178 -4 145 47 145 99 c 0
 145 149 177 200 246 200 c 0
 254 200 280 196 294 186 c 1
 339 350 l 2
 344 369 346 382 328 387 c 2
 137 445 l 1
 169 499 237 598 341 598 c 0
 392 598 450 566 491 566 c 0
 504 566 516 570 525 579 c 0
 549 604 570 599 549 559 c 0
244 46 m 0
 277 46 293 72 293 98 c 0
 293 124 276 151 243 151 c 0
 209 151 193 125 192 99 c 0
 192 73 210 46 244 46 c 0
EndSplineSet
KernsSLIF: 212 31 1 0 215 31 1 0 214 31 1 0 213 31 1 0
EndChar
StartChar: uni0E24
Encoding: 196 3620 164
Width: 571
Flags: W
HStem: 143 44<225 236> 378 44<199 214 199 366> 543 56<392 437>
VStem: 277 43<88 92>
DStem: 163 315 265 326 110 121 227 187 499 404 595 402 319 -246 416 -246
Fore
110 121 m 2
 163 315 l 2
 169 336 193 373 214 378 c 1
 135 378 l 1
 179 522 321 599 437 599 c 0
 542 599 626 535 595 402 c 0
 416 -246 l 1
 319 -246 l 1
 499 404 l 2
 524 496 467 543 392 543 c 0
 325 543 244 504 199 422 c 1
 377 422 l 1
 365 378 l 1
 343 378 318 378 318 378 c 2
 291 378 273 355 265 326 c 2
 265 326 239 232 227 187 c 1
 288 186 320 139 320 92 c 0
 319 44 288 -3 224 -6 c 0
 122 -11 98 77 110 121 c 2
226 38 m 0
 260 38 277 64 277 90 c 0
 276 116 260 143 225 143 c 0
 192 143 174 117 174 91 c 0
 175 65 192 38 226 38 c 0
EndSplineSet
EndChar
StartChar: uni0E25
Encoding: 197 3621 165
Width: 552
Flags: W
HStem: -6 47<209 222> 376 54<354 371> 540 58<390 420>
VStem: 266 46<89 95>
DStem: 447 283 580 413 369 0 465 0
Fore
465 0 m 1
 369 0 l 1
 447 283 l 2
 460 329 426 376 369 376 c 0
 308 376 258 329 244 276 c 2
 220 191 l 1
 281 189 312 143 312 95 c 0
 311 45 278 -6 211 -6 c 0
 117 -6 90 74 102 120 c 2
 143 266 l 2
 166 350 258 430 364 430 c 0
 423 430 459 410 476 379 c 1
 480 393 488 422 488 422 c 2
 509 498 460 540 390 540 c 0
 325 540 244 505 184 430 c 1
 155 450 l 1
 236 554 337 598 420 598 c 0
 530 598 610 523 580 413 c 2
 465 0 l 1
215 41 m 0
 248 41 266 67 266 93 c 0
 265 119 248 146 214 146 c 0
 180 146 163 120 163 94 c 0
 164 68 180 41 215 41 c 0
EndSplineSet
EndChar
StartChar: uni0E26
Encoding: 198 3622 166
Width: 583
Flags: W
HStem: -8 45<116 125> 141 46<116 124> 378 44<215 228 215 382> 544 55<409 453>
VStem: 27 42<81 94>
DStem: 174 304 276 318 142 186 211 83 515 413 611 407 332 -246 430 -246
Fore
332 -246 m 1
 515 413 l 2
 538 499 482 544 409 544 c 0
 341 544 258 504 215 422 c 1
 394 422 l 1
 382 378 l 1
 332 378 l 2
 305 378 284 346 276 318 c 2
 211 83 l 2
 194 20 185 -8 118 -8 c 0
 59 -8 27 42 27 92 c 0
 27 140 57 187 122 187 c 0
 128 187 135 187 142 186 c 1
 174 304 l 2
 181 329 207 373 228 378 c 1
 151 378 l 1
 195 522 337 599 453 599 c 0
 557 599 639 537 611 407 c 0
 430 -246 l 5
 332 -246 l 1
119 37 m 0
 152 37 169 63 170 90 c 0
 170 115 153 141 120 141 c 0
 86 141 69 115 69 88 c 0
 69 63 85 37 119 37 c 0
EndSplineSet
EndChar
StartChar: uni0E27
Encoding: 199 3623 167
Width: 478
Flags: W
HStem: -6 46<288 297> 144 46<294 296> 536 61<328 367>
VStem: 200 42<80.4764 92>
DStem: 414 429 511 421 343 173 430 131
Fore
511 421 m 2
 430 131 l 2
 407 46 388 -6 290 -6 c 0
 241 -6 200 34 200 91 c 0
 200 152 235 189 294 190 c 0
 309 190 333 182 343 173 c 1
 414 429 l 2
 432 495 388 536 328 536 c 0
 276 536 211 506 164 436 c 1
 132 458 l 1
 194 554 288 597 367 597 c 0
 465 597 542 532 511 421 c 2
293 40 m 0
 327 40 344 66 345 93 c 0
 345 118 328 144 294 144 c 0
 260 144 243 118 242 91 c 0
 242 66 259 40 293 40 c 0
EndSplineSet
EndChar
StartChar: uni0E28
Encoding: 200 3624 168
Width: 561
Flags: W
HStem: 0 21G<85 183 381 478> 249 44<332 342> 398 46<324 342> 545 54<379 406>
DStem: 150 233 240 206 85 0 183 0 488 386 588 396 381 0 478 0
Fore
340 444 m 0
 378 444 408 422 420 395 c 1
 440 400 482 436 497 452 c 1
 494 510 457 545 388 545 c 0
 285 545 205 482 182 401 c 0
 171 361 188 333 197 319 c 1
 200 319 l 1
 236 390 271 444 340 444 c 0
488 386 m 17
 468 375 443 360 430 355 c 1
 433 289 400 249 334 249 c 0
 310 249 288 264 273 277 c 1
 258 263 248 233 240 206 c 2
 183 0 l 1
 85 0 l 1
 150 233 l 2
 161 275 108 304 135 401 c 0
 170 525 283 599 402 599 c 0
 474 599 541 581 572 539 c 1
 586 554 612 601 617 627 c 1
 715 627 l 1
 688 561 629 498 595 468 c 1
 598 450 596 427 588 396 c 2
 478 0 l 1
 381 0 l 1
 488 386 l 17
336 293 m 0
 369 293 386 319 387 345 c 0
 387 371 369 398 335 398 c 0
 301 398 285 372 285 346 c 0
 286 320 302 293 336 293 c 0
EndSplineSet
EndChar
StartChar: uni0E29
Encoding: 201 3625 169
Width: 631
Flags: W
HStem: 0 45<104 435> 545 51<251 260>
VStem: 157 46<492 498>
DStem: 515 243 711 596 478 108 579 120 615 596 711 596 550 361 579 120
Fore
256 392 m 1
 250 391 246 393 232 396 c 0
 182 405 157 450 157 495 c 0
 157 545 189 596 258 596 c 0
 385 596 379 492 376 479 c 2
 354 399 l 1
 371 402 378 398 389 394 c 0
 428 380 444 347 444 315 c 0
 444 283 428 251 403 239 c 1
 457 237 536 296 550 361 c 1
 615 596 l 1
 711 596 l 1
 579 120 l 2
 570 74 522 0 435 0 c 2
 93 0 l 1
 105 45 l 1
 159 45 l 1
 256 392 l 1
253 441 m 0
 287 441 305 467 305 494 c 0
 304 519 288 545 254 545 c 0
 220 545 203 519 203 492 c 0
 204 467 219 441 253 441 c 0
478 108 m 2
 515 243 l 1
 422 161 329 194 304 224 c 1
 304 224 264 75 255 45 c 1
 408 45 l 2
 434 45 466 65 478 108 c 2
358 263 m 0
 389 263 405 287 404 311 c 0
 405 336 389 361 357 361 c 0
 326 361 310 337 311 313 c 0
 310 288 326 263 358 263 c 0
EndSplineSet
EndChar
StartChar: uni0E2A
Encoding: 202 3626 170
Width: 550
Flags: W
HStem: -6 47<209 222> 335 47<356 370> 540 57<393 421>
VStem: 266 46<89 95>
DStem: 432 226 580 413 369 0 465 0 487 415 580 413 462 326 465 0
Fore
220 191 m 1
 281 189 312 143 312 95 c 0
 311 45 278 -6 211 -6 c 0
 117 -6 90 74 102 120 c 2
 132 227 l 2
 159 324 251 372 287 381 c 1
 338 402 429 449 487 488 c 1
 473 523 437 540 393 540 c 0
 326 540 241 501 184 430 c 1
 155 450 l 1
 233 551 335 597 421 597 c 0
 475 597 523 579 556 544 c 1
 584 570 606 599 617 627 c 1
 715 627 l 1
 715 627 l 0
 698 584 643 528 584 490 c 1
 589 478 590 452 580 413 c 2
 465 0 l 1
 369 0 l 1
 432 226 l 2
 447 283 413 335 356 335 c 0
 295 335 247 290 233 238 c 2
 220 191 l 1
215 41 m 0
 248 41 266 67 266 93 c 0
 265 119 248 146 214 146 c 0
 180 146 163 120 163 94 c 0
 164 68 180 41 215 41 c 0
462 326 m 1
 487 415 l 2
 489 422 491 430 490 436 c 1
 458 419 408 396 368 382 c 1
 405 382 455 366 462 326 c 1
EndSplineSet
EndChar
StartChar: uni0E2B
Encoding: 203 3627 171
Width: 618
Flags: W
HStem: 0 21G<137 236 438 536> 545 48<232 250>
VStem: 506 45<490 497> 653 45<497 507.524>
DStem: 246 393 368 479 137 0 303 247 246 393 263 97 137 0 236 0 541 370 637 365 438 0 536 0
Fore
536 0 m 1
 438 0 l 1
 541 370 l 2
 544 384 546 392 542 398 c 1
 418 326 303 175 290 157 c 0
 275 134 268 114 263 97 c 2
 236 0 l 1
 137 0 l 1
 246 393 l 1
 236 392 225 394 217 397 c 0
 172 411 150 453 149 494 c 0
 149 544 181 593 246 593 c 0
 372 593 371 492 368 479 c 2
 303 247 l 1
 384 338 488 416 527 436 c 1
 513 455 506 476 506 497 c 0
 506 547 545 594 605 594 c 0
 665 594 698 546 698 497 c 0
 698 461 680 424 640 407 c 1
 644 393 644 388 637 365 c 2
 536 0 l 1
243 441 m 0
 277 441 295 467 295 494 c 0
 294 519 278 545 244 545 c 0
 210 545 193 519 192 492 c 0
 193 467 209 441 243 441 c 0
601 444 m 0
 635 444 652 470 653 497 c 0
 653 522 636 548 602 548 c 0
 568 548 552 522 551 495 c 0
 551 470 568 444 601 444 c 0
EndSplineSet
EndChar
StartChar: uni0E2C
Encoding: 204 3628 172
Width: 679
Flags: W
HStem: 0 21G<138 230 501 595> 545 51<233 251> 594 45<649 667>
VStem: 148 46<492 500> 565 43<546 551> 702 45<546 558>
DStem: 247 392 369 479 138 0 306 253 470 404 516 558 501 0 547 249 508 558 470 404 323 249 230 0 626 460 729 482 568 253 595 0
Fore
369 479 m 2xdc
 306 253 l 2
 299 226 271 160 271 160 c 1
 277 160 l 1
 277 160 305 217 323 249 c 2
 508 558 l 1
 516 558 l 1
 547 249 l 2
 550 219 544 160 544 160 c 1
 549 160 l 1
 549 160 561 226 568 253 c 2
 626 460 l 1
 586 473 566 511 565 549 c 0
 566 594 595 639 658 639 c 0xbc
 711 639 747 599 747 546 c 1
 768 559 802 598 810 644 c 1
 897 644 l 1
 897 644 l 0
 863 542 760 492 729 482 c 1
 595 0 l 1
 501 0 l 1
 470 404 l 1
 230 0 l 1
 138 0 l 1
 247 392 l 1
 241 391 237 393 223 396 c 0
 173 405 148 450 148 495 c 0
 148 545 180 596 249 596 c 0
 376 596 372 492 369 479 c 2xdc
244 441 m 0
 278 441 296 467 296 494 c 0
 295 519 279 545 245 545 c 0xdc
 211 545 194 519 194 492 c 0
 195 467 210 441 244 441 c 0
655 499 m 0
 686 499 702 523 702 547 c 0
 702 571 687 594 656 594 c 0xbc
 625 594 608 570 608 546 c 0
 608 522 623 499 655 499 c 0
EndSplineSet
EndChar
StartChar: uni0E2D
Encoding: 205 3629 173
Width: 539
Flags: W
HStem: -8 47<258 276> 247 48<285 298> 399 46<279 299> 540 58<375 407>
DStem: 155 315 239 262 112 160 200 124 473 422 571 413 390 124 500 158
Fore
500 158 m 2
 462 22 312 -8 260 -8 c 0
 192 -8 73 18 112 160 c 2
 155 315 l 2
 168 359 212 445 291 445 c 0
 353 445 383 394 383 344 c 0
 383 295 354 247 298 247 c 0
 281 247 262 251 239 262 c 1
 200 124 l 2
 185 68 226 39 274 39 c 0
 321 39 375 67 390 124 c 2
 473 422 l 2
 494 498 445 540 375 540 c 0
 310 540 229 505 169 430 c 1
 139 450 l 1
 221 554 322 598 407 598 c 0
 519 598 601 523 571 413 c 2
 500 158 l 2
287 295 m 0
 320 295 337 321 338 348 c 0
 336 373 321 399 288 399 c 0
 254 399 236 373 236 346 c 0
 237 321 253 295 287 295 c 0
EndSplineSet
EndChar
StartChar: uni0E2E
Encoding: 206 3630 174
Width: 539
Flags: W
HStem: -8 47<258 276> 176 47<259 276> 327 45<258 276> 543 51<369 409>
DStem: 473 422 571 413 390 124 500 158
Fore
642 602 m 17
 620 564 596 533 570 508 c 1
 579 484 581 452 571 413 c 2
 500 158 l 2
 462 22 312 -8 260 -8 c 0
 192 -8 73 18 112 160 c 2
 135 241 l 2
 147 286 192 372 270 372 c 0
 333 372 362 325 362 277 c 0
 362 227 331 176 274 176 c 0
 258 176 239 180 219 190 c 1
 200 124 l 2
 185 68 226 39 274 39 c 0
 321 39 375 67 390 124 c 2
 473 422 l 2
 475 430 477 438 478 445 c 1
 419 419 364 413 330 410 c 0
 218 407 154 409 169 469 c 0
 190 544 306 594 409 594 c 0
 454 594 496 585 527 564 c 1
 537 576 544 590 549 602 c 1
 642 602 l 17
469 501 m 1
 450 531 410 543 369 543 c 0
 310 543 248 518 238 485 c 0
 233 464 259 452 342 455 c 0
 392 458 433 475 469 501 c 1
267 223 m 0
 300 223 317 249 318 276 c 0
 316 301 301 327 268 327 c 0
 234 327 216 301 216 274 c 0
 217 249 233 223 267 223 c 0
EndSplineSet
EndChar
StartChar: uni0E2F
Encoding: 207 3631 175
Width: 514
Flags: W
HStem: 0 21G<319 418> 391 58<252 286> 553 45<246 257>
VStem: 151 51<492 503> 302 48<488.273 504>
DStem: 439 432 583 594 319 0 418 0
Fore
418 0 m 1
 319 0 l 1
 439 432 l 1
 388 402 333 391 286 391 c 0
 235 391 193 404 178 422 c 0
 159 443 151 469 151 494 c 0
 151 547 190 598 255 598 c 0
 313 598 350 550 350 500 c 0
 350 479 343 458 328 440 c 1
 436 450 480 525 499 594 c 1
 583 594 l 1
 418 0 l 1
252 449 m 0
 286 449 303 475 302 501 c 0
 302 527 285 553 252 553 c 0
 218 553 202 527 202 501 c 0
 202 475 219 449 252 449 c 0
EndSplineSet
EndChar
StartChar: uni0E30
Encoding: 208 3632 176
Width: 438
Flags: W
HStem: -6 54<179 203> 152 44<138 158> 396 60<261 291> 396 203<264 291> 554 45<250 268>
VStem: 170 44<505 511> 197 45<101 108> 309 45<503 510>
Fore
555 594 m 1xd5
 555 594 l 0
 497 444 389 396 291 396 c 0xe5
 175 396 170 464 170 508 c 0
 170 542 191 599 264 599 c 0
 320 599 354 562 354 508 c 0
 354 491 350 472 334 452 c 1
 416 462 455 521 471 594 c 1
 555 594 l 1xd5
261 456 m 0
 261 456 l 0
 293 456 309 480 309 505 c 0
 309 530 293 554 261 554 c 0xed
 230 554 214 530 214 505 c 0
 213 480 229 456 261 456 c 0
443 192 m 1
 443 192 l 0
 385 41 277 -6 179 -6 c 0
 63 -6 58 52 59 97 c 0
 59 146 83 196 156 196 c 0
 216 196 242 146 242 106 c 0xc3
 242 89 227 61 201 48 c 1
 301 49 344 118 359 192 c 1
 443 192 l 1
150 54 m 0
 182 54 198 78 197 102 c 0
 197 127 181 152 149 152 c 0
 118 152 102 128 103 104 c 0
 102 79 118 54 150 54 c 0
EndSplineSet
EndChar
StartChar: uni0E31
Encoding: 209 3633 177
Width: 0
Flags: W
HStem: 676 49<41 74> 880 49<-36 -18>
VStem: -131 52<819 827> 22 50<826 837>
AnchorPoint: "AboveMark" 183.263 983.04 basemark 0
AnchorPoint: "AboveBase" 85.2891 629.76 mark 0
Fore
406 923 m 1
 406 923 l 0
 314 740 166 674 43 676 c 0
 -70 676 -131 733 -131 823 c 0
 -131 881 -83 929 -25 929 c 0
 37 929 72 875 72 826 c 0
 72 785 49 750 4 733 c 1
 22 728 41 725 61 725 c 0
 149 725 255 779 308 923 c 1
 406 923 l 1
-28 776 m 0
 5 776 21 802 22 829 c 0
 22 854 6 880 -27 880 c 0
 -61 880 -78 854 -79 827 c 0
 -79 802 -62 776 -28 776 c 0
EndSplineSet
EndChar
StartChar: uni0E32
Encoding: 210 3634 178
Width: 407
Flags: W
HStem: 0 21G<224 322> 541 57<286 339>
DStem: 352 460 448 453 224 0 322 0
Fore
322 0 m 1
 224 0 l 1
 352 460 l 2
 366 513 333 541 286 541 c 0
 246 541 196 522 155 483 c 1
 135 509 l 1
 191 566 272 598 339 598 c 0
 418 598 476 554 448 453 c 2
 322 0 l 1
EndSplineSet
EndChar
StartChar: uni0E33
Encoding: 211 3635 179
Width: 407
Flags: W
HStem: 0 21G<224 322> 541 57<285 339> 673 54<91 101> 831 57<90 101>
VStem: -12 51<780 784> 142 50<767 780>
DStem: 352 460 448 453 224 0 322 0
Fore
91 673 m 0
 91 673 l 0
 23 673 -12 727 -12 781 c 0
 -12 835 21 888 90 888 c 0
 158 888 192 834 192 780 c 0
 192 726 159 673 91 673 c 0
322 0 m 1
 224 0 l 1
 352 460 l 2
 366 513 333 541 285 541 c 0
 246 541 196 522 155 483 c 1
 135 509 l 1
 190 566 272 598 339 598 c 0
 417 598 475 554 448 453 c 2
 322 0 l 1
91 727 m 0
 125 727 142 753 142 778 c 0
 141 805 124 831 90 831 c 0
 56 831 39 805 39 780 c 0
 40 753 57 727 91 727 c 0
EndSplineSet
MultipleSubs: 0 1 'ccmp' uni0E4D uni0E32
EndChar
StartChar: uni0E34
Encoding: 212 3636 180
Width: 0
Flags: W
HStem: 726 45<-209 -174> 839 55<-77 -54>
AnchorPoint: "AboveMark" 136.387 983.04 basemark 0
AnchorPoint: "AboveBase" 85.2891 629.76 mark 0
Fore
107 636 m 1
 -6 694 -101 726 -207 726 c 0
 -246 726 -286 722 -329 713 c 1
 -267 833 -152 894 -54 894 c 0
 62 894 155 808 107 636 c 1
70 708 m 1
 65 788 1 839 -77 839 c 0
 -127 839 -184 818 -233 768 c 1
 -214 770 -196 771 -176 771 c 0
 -91 771 2 750 70 708 c 1
EndSplineSet
EndChar
StartChar: uni0E35
Encoding: 213 3637 181
Width: 0
Flags: W
HStem: 726 45<-209 -174> 839 55<-77 -54>
AnchorPoint: "AboveMark" 136.387 983.04 basemark 0
AnchorPoint: "AboveBase" 85.2891 629.76 mark 0
Fore
107 636 m 1
 -6 694 -101 726 -207 726 c 0
 -246 726 -286 722 -329 713 c 1
 -267 833 -152 894 -54 894 c 0
 -13 894 24 883 54 862 c 1
 78 948 l 1
 173 948 l 1
 118 750 l 1
 123 717 119 679 107 636 c 1
70 708 m 1
 65 788 1 839 -77 839 c 0
 -127 839 -184 818 -233 768 c 1
 -214 770 -196 771 -176 771 c 0
 -91 771 2 750 70 708 c 1
EndSplineSet
EndChar
StartChar: uni0E36
Encoding: 214 3638 182
Width: 0
Flags: W
HStem: 726 45<-208 -174> 839 55<-78 -56> 906 48<90.1954 110>
VStem: 148 47<856 866.764>
AnchorPoint: "AboveMark" 136.387 983.04 basemark 0
AnchorPoint: "AboveBase" 85.2891 629.76 mark 0
Fore
107 636 m 1
 -5 694 -100 726 -206 726 c 0
 -245 726 -286 722 -329 713 c 1
 -267 835 -149 894 -56 894 c 0
 -33 894 -11 890 8 883 c 1
 16 915 42 954 103 954 c 0
 161 954 196 905 195 856 c 0
 196 816 172 776 118 763 c 1
 122 725 122 688 107 636 c 1
70 708 m 1
 65 788 -0 839 -77 839 c 0
 -128 839 -184 818 -233 768 c 1
 -215 770 -196 771 -176 771 c 0
 -91 771 2 750 70 708 c 1
102 808 m 0
 133 808 149 832 148 856 c 0
 148 881 132 906 101 906 c 0
 69 906 55 882 54 858 c 0
 54 833 70 808 102 808 c 0
EndSplineSet
EndChar
StartChar: uni0E37
Encoding: 215 3639 183
Width: 0
Flags: W
HStem: 726 45<-209 -174> 839 55<-77 -51>
DStem: 97 949 170 949 68 849 118 754
AnchorPoint: "AboveMark" 77.792 983.04 basemark 0
AnchorPoint: "AboveBase" 85.2891 629.76 mark 0
Fore
107 636 m 1
 -6 694 -101 726 -207 726 c 0
 -246 726 -286 722 -329 713 c 1
 -267 834 -149 895 -51 894 c 1
 -35 949 l 1
 34 949 l 1
 17 879 l 1
 38 872 53 860 68 849 c 1
 97 949 l 1
 170 949 l 1
 118 754 l 1
 123 720 120 680 107 636 c 1
70 708 m 1
 65 788 1 839 -77 839 c 0
 -127 839 -184 818 -233 768 c 1
 -214 770 -196 771 -176 771 c 0
 -91 771 2 750 70 708 c 1
EndSplineSet
EndChar
StartChar: uni0E38
Encoding: 216 3640 184
Width: 0
Flags: W
VStem: -329 44<-141 -130>
AnchorPoint: "BelowBase" -103.841 -52.2236 mark 0
Fore
-176 -307 m 1
 -268 -307 l 1
 -246 -227 l 1
 -252 -228 -264 -227 -272 -224 c 0
 -309 -212 -329 -177 -329 -141 c 0
 -328 -99 -302 -56 -243 -52 c 0
 -175 -47 -118 -83 -132 -149 c 1
 -176 -307 l 1
-200 -141 m 0
 -200 -117 -219 -97 -241 -97 c 0
 -271 -97 -285 -115 -285 -141 c 0
 -285 -164 -267 -186 -242 -186 c 0
 -215 -186 -200 -164 -200 -141 c 0
EndSplineSet
EndChar
StartChar: uni0E39
Encoding: 217 3641 185
Width: 0
Flags: W
HStem: -319 39<-285 -275> -88 38<-365 -349>
DStem: -199 -57 -106 -57 -254 -257 -149 -212
AnchorPoint: "BelowBase" -103.841 -52.2236 mark 0
Fore
-149 -212 m 2
 -165 -270 -211 -319 -277 -319 c 0
 -343 -319 -376 -281 -361 -226 c 2
 -357 -213 l 1
 -363 -214 -368 -213 -377 -210 c 0
 -415 -196 -433 -164 -434 -132 c 0
 -434 -91 -404 -50 -351 -50 c 0
 -285 -50 -250 -92 -268 -151 c 2
 -297 -257 l 2
 -302 -269 -294 -280 -283 -280 c 0
 -270 -280 -258 -272 -254 -257 c 2
 -199 -57 l 1
 -106 -57 l 1
 -149 -212 l 2
-314 -132 m 0
 -314 -108 -332 -88 -354 -88 c 0
 -381 -88 -397 -106 -398 -132 c 0
 -398 -155 -379 -177 -355 -177 c 0
 -329 -177 -314 -155 -314 -132 c 0
EndSplineSet
EndChar
StartChar: uni0E3A
Encoding: 218 3642 186
Width: 0
Flags: W
AnchorPoint: "BelowBase" -101.285 -43.0078 mark 0
Fore
-164 -174 m 0
 -208 -174 -230 -141 -230 -108 c 0
 -230 -76 -208 -43 -164 -43 c 0
 -122 -43 -101 -76 -101 -108 c 0
 -101 -141 -122 -174 -164 -174 c 0
EndSplineSet
EndChar
StartChar: zerospace
Encoding: 220 8203 187
Width: 776
Flags: W
HStem: 0 61<112 604>
DStem: 112 61 145 -49 43 -187 107 -187 634 -54 730 61 597 -187 661 -187
Fore
661 -187 m 1
 597 -187 l 1
 634 -54 l 2
 635.992 -46.6294 636.992 -40.0524 636.992 -34.2454 c 0
 636.992 -10.9016 620.833 -1.27157e-06 588 0 c 2
 210 0 l 2
 175 0 155 -15 145 -49 c 2
 107 -187 l 1
 43 -187 l 1
 112 61 l 1
 730 61 l 1
 661 -187 l 1
EndSplineSet
EndChar
StartChar: dottedcircle
Encoding: 221 9676 188
Width: 618
Flags: W
HStem: -14 77<332 343> 23 77<191.183 206> 34 77<474 478> 118 77<124 137> 131 75<572 590> 263 76<649 660> 270 77<127 142> 399 77<649 659> 406 76<214 222> 493 77<580 591> 501 77<333 350> 535 76<483 494>
VStem: 93 73<155 163> 162 73<53.6046 72> 180 72<445 453.579> 438 73<72 74> 449 73<574 580> 544 72<167 169> 616 74<301 308.966>
Fore
205 462 m 2
331 554 m 2
189 80 m 2
118 172 m 2
463 89 m 2
570 184 m 2
644 456 m 2
579 547 m 2
641 318 m 2
125 324 m 2
476 591 m 2
216 482 m 0,11,12
 237 482 252 465 252 445 c 0,13,14
 253 424 238 406 217 406 c 0,15,16
 197 406 181 424 180 445 c 0,17,18
 180 465 196 482 216 482 c 0,11,12
216 445 m 0,19,-1
 216 445 l 0,20,-1
 216 445 l 0,21,-1
 216 445 l 0,22,-1
 216 445 l 0,19,-1
341 578 m 0,23,24
 362 578 379 561 378 538 c 0,25,26
 379 518 363 501 342 501 c 0,27,28
 323 501 305 518 304 538 c 0,29,30
 305 561 322 578 341 578 c 0,23,24
341 538 m 0,31,-1
 341 538 l 0,32,-1
 341 538 l 0,33,-1
 341 538 l 0,34,-1
 341 538 l 0,31,-1
200 100 m 0,35,36
 219 100 235 83 235 63 c 0,37,38
 235 41 219 23 200 23 c 0,39,40
 178 23 162 41 162 63 c 0,41,42
 162 83 178 100 200 100 c 0,35,36
200 63 m 0,43,-1
 200 63 l 0,44,-1
 200 63 l 0,45,-1
 200 63 l 0,46,-1
 200 63 l 0,43,-1
128 195 m 0,47,48
 150 195 166 177 166 155 c 0,49,50
 166 135 151 118 129 118 c 0,51,52
 110 118 93 135 93 155 c 0,53,54
 93 177 109 195 128 195 c 0,47,48
128 155 m 0,55,-1
 128 155 l 0,56,-1
 128 155 l 0,57,-1
 128 155 l 0,58,-1
 128 155 l 0,55,-1
474 111 m 0,59,60
 495 111 511 94 511 72 c 0,61,62
 511 52 495 34 474 34 c 0,63,64
 454 34 438 52 438 72 c 0,65,66
 438 94 454 111 474 111 c 0,59,60
474 72 m 0,67,-1
 474 72 l 0,68,-1
 474 72 l 0,69,-1
 474 72 l 0,70,-1
 474 72 l 0,67,-1
582 206 m 0,71,72
 601 206 616 189 616 167 c 0,73,74
 616 146 600 131 581 131 c 0,75,76
 559 131 544 146 544 167 c 0,77,78
 544 189 560 206 582 206 c 0,71,72
581 167 m 0,79,-1
 581 167 l 0,80,-1
 581 167 l 0,81,-1
 581 167 l 0,82,-1
 581 167 l 0,79,-1
656 476 m 0,83,84
 675 476 691 459 692 439 c 0,85,86
 691 418 676 399 657 399 c 0,87,88
 635 399 619 418 620 439 c 0,89,90
 619 459 634 476 656 476 c 0,83,84
657 439 m 0,91,-1
 657 439 l 0,92,-1
 657 439 l 0,93,-1
 657 439 l 0,94,-1
 657 439 l 0,91,-1
588 570 m 0,95,96
 610 570 627 551 626 530 c 0,97,98
 626 510 611 493 589 493 c 0,99,100
 570 493 552 510 552 530 c 0,101,102
 553 551 569 570 588 570 c 0,95,96
588 530 m 0,103,-1
 588 530 l 0,104,-1
 588 530 l 0,105,-1
 588 530 l 0,106,-1
 588 530 l 0,103,-1
651 339 m 0,107,108
 671 339 690 321 690 301 c 0,109,110
 691 280 672 263 652 263 c 0,111,112
 633 263 617 280 616 301 c 0,113,114
 616 321 632 339 651 339 c 0,107,108
651 301 m 0,115,-1
 651 301 l 0,116,-1
 651 301 l 0,117,-1
 651 301 l 0,118,-1
 651 301 l 0,115,-1
135 347 m 0,119,120
 156 347 172 329 172 307 c 0,121,122
 173 287 157 270 136 270 c 0,123,124
 117 270 99 287 98 307 c 0,125,126
 98 329 116 347 135 347 c 0,119,120
135 307 m 0,127,-1
 135 307 l 0,128,-1
 135 307 l 0,129,-1
 135 307 l 0,130,-1
 135 307 l 0,127,-1
334 63 m 0,131,132
 355 63 371 46 370 23 c 0,133,134
 371 3 356 -14 335 -14 c 0,135,136
 316 -14 299 3 298 23 c 0,137,138
 299 46 315 63 334 63 c 0,131,132
334 23 m 0,139,-1
 334 23 l 0,140,-1
 334 23 l 0,141,-1
 334 23 l 0,142,-1
 334 23 l 0,139,-1
485 611 m 0,143,144
 505 611 522 594 522 574 c 0,145,146
 522 551 506 535 486 535 c 0,147,148
 465 535 449 551 449 574 c 0,149,150
 449 594 464 611 485 611 c 0,143,144
486 574 m 0,151,-1
 486 574 l 0,152,-1
 486 574 l 0,153,-1
 486 574 l 0,154,-1
 486 574 l 0,151,-1
EndSplineSet
EndChar
StartChar: uni0E3F
Encoding: 223 3647 189
Width: 717
Flags: W
HStem: -11 43<45 72.4216> 347 65<352 418> 667 167<556 615.727> 694 40<228 242>
DStem: 314 637 418 650 161 88 352 412 314 637 334 347 161 88 266 100 320 -11 411 -9 292 -118 379 -118 418 347 505 333 336 51 428 55 509 673 598 667 436 412 528 415 556 834 643 834 527 736 616 731
Fore
711 200 m 0xe0
 672 58 566 -8 411 -9 c 1
 379 -118 l 1
 292 -118 l 1
 320 -11 l 1
 34 -9 l 1
 45 32 l 1
 132 32 153 58 161 88 c 2
 314 637 l 2
 321 665 315 693 228 694 c 1
 240 734 l 1xd0
 278 734 478 736 527 736 c 1
 556 834 l 1
 643 834 l 1
 616 731 l 1
 748 731 811 677 773 541 c 0
 746 445 688 399 616 381 c 1
 688 367 743 312 711 200 c 0xe0
436 412 m 1
 509 673 l 0
 455 676 425 676 418 650 c 2
 352 412 l 1
 436 412 l 1
665 536 m 0
 690 627 660 668 598 667 c 1xe0
 528 415 l 1
 611 418 649 478 665 536 c 0
336 51 m 0
 418 347 l 0
 400 347 351 347 334 347 c 1
 266 100 l 2
 257 68 249 40 336 51 c 0
594 203 m 0
 615 278 583 330 505 333 c 1
 428 55 l 1
 521 65 570 114 594 203 c 0
EndSplineSet
EndChar
StartChar: uni0E40
Encoding: 224 3648 190
Width: 321
Flags: W
HStem: 143 44<227 239> 576 20G<245 343>
VStem: 279 44<88 92>
DStem: 245 596 343 596 113 124 230 187
Fore
113 124 m 2
 245 596 l 1
 343 596 l 1
 343 596 245 243 230 187 c 1
 291 186 322 140 323 92 c 0
 322 45 291 -3 226 -6 c 0
 124 -11 101 80 113 124 c 2
228 38 m 0
 262 38 279 64 279 90 c 0
 278 116 262 143 227 143 c 0
 194 143 176 117 176 91 c 0
 177 65 194 38 228 38 c 0
EndSplineSet
EndChar
StartChar: uni0E41
Encoding: 225 3649 191
Width: 580
Flags: W
HStem: 143 44<227 239 487 495> 576 20G<245 343 504 602>
VStem: 279 44<88 92> 539 43<88 92>
DStem: 245 596 343 596 113 124 230 187 504 596 602 596 373 124 489 187
Fore
489 187 m 1
 550 186 582 139 582 92 c 0
 581 44 550 -3 486 -6 c 0
 384 -11 361 80 373 124 c 2
 504 596 l 1
 602 596 l 1
 602 596 505 245 489 187 c 1
488 38 m 0
 522 38 539 64 539 90 c 0
 538 116 522 143 487 143 c 0
 454 143 436 117 436 91 c 0
 437 65 454 38 488 38 c 0
113 124 m 2
 245 596 l 1
 343 596 l 1
 343 596 246 244 230 187 c 1
 291 186 322 140 323 92 c 0
 322 45 291 -3 226 -6 c 0
 124 -11 101 80 113 124 c 2
228 38 m 0
 262 38 279 64 279 90 c 0
 278 116 262 143 227 143 c 0
 194 143 176 117 176 91 c 0
 177 65 194 38 228 38 c 0
EndSplineSet
EndChar
StartChar: uni0E42
Encoding: 226 3650 192
Width: 323
Flags: W
HStem: 143 44<266 278> 897 74<315 351>
VStem: 318 43<88 92>
DStem: 167 831 239 854 304 742 393 750 310 691 407 690 152 124 268 187
Fore
268 187 m 1
 329 186 361 139 361 92 c 0
 360 44 329 -3 265 -6 c 0
 163 -11 140 80 152 124 c 2
 310 691 l 2
 318 720 311 737 304 742 c 2
 167 831 l 1
 221 906 280 971 351 971 c 0
 393 971 468 913 520 913 c 0
 533 913 545 916 555 925 c 0
 578 948 602 945 581 905 c 0
 581 905 l 0
 534 828 485 834 449 848 c 0
 399 868 345 897 315 897 c 0
 293 897 279 897 239 854 c 1
 393 750 l 2
 415 734 415 717 407 690 c 2
 407 690 288 257 268 187 c 1
267 38 m 0
 301 38 318 64 318 90 c 0
 317 116 301 143 266 143 c 0
 233 143 215 117 215 91 c 0
 216 65 233 38 267 38 c 0
EndSplineSet
EndChar
StartChar: uni0E43
Encoding: 227 3651 193
Width: 345
Flags: W
HStem: 143 44<285 291> 671 46<241 255> 794 48<241 254> 912 59<324 353>
VStem: 288 45<746.835 763> 337 43<88 92>
DStem: 371 842 463 823 171 124 287 187
Fore
287 187 m 1
 348 186 380 139 380 92 c 0
 379 44 348 -3 284 -6 c 0
 182 -11 159 80 171 124 c 2
 371 842 l 2
 382 885 356 912 324 912 c 0
 284 912 247 896 219 836 c 1
 233 841 244 842 250 842 c 0
 305 842 333 799 333 757 c 0
 333 714 304 671 243 671 c 0
 164 671 146 765 167 829 c 0
 197 908 263 971 353 971 c 0
 449 971 485 903 463 823 c 2
 287 187 l 1
286 38 m 0
 320 38 337 64 337 90 c 0
 336 116 320 143 285 143 c 0
 252 143 234 117 234 91 c 0
 235 65 252 38 286 38 c 0
252 794 m 0
 226 794 212 777 213 756 c 0
 213 739 224 717 249 717 c 0
 275 717 288 737 288 756 c 0
 288 775 276 794 252 794 c 0
EndSplineSet
EndChar
StartChar: uni0E44
Encoding: 228 3652 194
Width: 370
Flags: W
HStem: 143 44<312 320> 662 41<236 252> 925 46<411 441>
VStem: 364 43<88 92>
DStem: 217 909 291 920 174 754 237 723 318 868 384 902 278 723 342 750
Fore
314 187 m 1
 375 186 407 139 407 92 c 0
 406 44 375 -3 311 -6 c 0
 209 -11 192 80 204 124 c 2
 420 902 l 2
 424 915 421 925 411 925 c 0
 397 925 387 912 384 902 c 2
 342 750 l 2
 329 702 296 662 236 662 c 0
 180 660 160 702 174 754 c 2
 217 909 l 2
 219 917 221 926 213 935 c 0
 206 948 201 951 191 963 c 2
 176 989 207 1012 229 995 c 2
 279 965 l 2
 297 952 297 940 291 920 c 2
 237 723 l 2
 234 714 242 703 252 703 c 0
 261 703 275 713 278 723 c 2
 318 868 l 2
 334 926 375 971 441 971 c 0
 506 971 517 920 504 871 c 2
 504 871 332 257 314 187 c 1
313 38 m 0
 347 38 364 64 364 90 c 0
 363 116 347 143 312 143 c 0
 279 143 261 117 261 91 c 0
 262 65 279 38 313 38 c 0
EndSplineSet
EndChar
StartChar: uni0E45
Encoding: 229 3653 195
Width: 289
Flags: W
HStem: 541 57<167 221>
DStem: 234 460 330 453 38 -246 136 -246
Fore
38 -246 m 1
 234 460 l 2
 248 513 215 541 167 541 c 0
 127 541 77 522 36 483 c 1
 16 509 l 1
 72 566 154 598 221 598 c 0
 300 598 358 554 330 453 c 2
 136 -246 l 1
 38 -246 l 1
EndSplineSet
EndChar
StartChar: uni0E46
Encoding: 230 3654 196
Width: 670
Flags: W
HStem: 254 38<426 434> 390 36<426 433>
VStem: 476 39<340 347>
DStem: 466 536 485 599 514 459 533 525 616 485 702 455 413 -246 508 -246
Fore
342 427 m 0
 355 478 396 559 485 599 c 1
 533 525 l 1
 620 599 l 1
 709 588 720 521 702 455 c 2
 508 -246 l 1
 413 -246 l 1
 616 485 l 2
 621 505 608 521 594 525 c 1
 514 459 l 1
 466 536 l 1
 430 515 400 480 386 414 c 1
 402 426 413 426 431 426 c 0
 487 425 514 384 515 342 c 0
 515 298 485 254 428 254 c 0
 341 254 322 346 342 427 c 0
430 292 m 0
 461 292 477 316 476 340 c 0
 476 365 461 390 429 390 c 0
 398 390 383 366 383 342 c 0
 382 317 398 292 430 292 c 0
EndSplineSet
EndChar
StartChar: uni0E47
Encoding: 231 3655 197
Width: 0
Flags: W
HStem: 656 49<33 47> 796 47<32 46>
VStem: 85 46<750 760>
AnchorPoint: "AboveMark" -100.749 629.76 mark 0
AnchorPoint: "AboveBase" 51.5977 629.76 mark 0
Fore
216 1025 m 17
 181 902 91 885 30 888 c 0
 -5 889 -40 892 -79 895 c 0
 -122 899 -166 866 -180 814 c 0
 -186 795 -187 773 -182 750 c 1
 -144 817 -72 793 -48 754 c 1
 -48 754 -40 742 -40 757 c 0
 -40 817 -0 843 44 843 c 0
 88 842 131 813 131 753 c 0
 131 686 88 656 40 656 c 0
 -63 656 -82 736 -126 736 c 0
 -162 736 -180 680 -165 656 c 1
 -223 657 l 1
 -260 704 -267 761 -253 812 c 0
 -230 893 -155 959 -65 948 c 0
 -34 943 4 940 34 938 c 0
 50 937 109 935 125 1025 c 1
 216 1025 l 17
43 705 m 0
 72 705 86 727 85 750 c 0
 85 773 71 796 42 796 c 0
 15 796 1 774 0 751 c 0
 1 728 15 705 43 705 c 0
EndSplineSet
EndChar
StartChar: uni0E48
Encoding: 232 3656 198
Width: 0
Flags: W
DStem: 157 1227 250 1227 100 1021 193 1021
AnchorPoint: "AboveMark" 136.387 983.04 mark 0
Fore
250 1227 m 1
 193 1021 l 1
 100 1021 l 5
 157 1227 l 1
 250 1227 l 1
EndSplineSet
Substitution: 0 65534 'loww' uni0E48.low
Substitution: 0 65534 'amni' uni0E4D
EndChar
StartChar: uni0E49
Encoding: 233 3657 199
Width: 0
Flags: W
HStem: 1187 43<138 147>
VStem: 63 40<1150.03 1159.76>
AnchorPoint: "AboveMark" 228.675 983.04 mark 0
Fore
486 1229 m 1
 486 1229 l 0
 379 957 86 991 43 994 c 1
 52 1029 l 1
 92 1034 109 1050 124 1069 c 1
 125 1072 l 1
 125 1072 118 1074 105 1078 c 0
 78 1088 62 1118 63 1150 c 0
 63 1189 87 1230 145 1230 c 0
 221 1230 230 1148 221 1129 c 0
 185 1059 157 1043 157 1043 c 1
 156 1040 l 1
 156 1040 334 1035 401 1229 c 1
 486 1229 l 1
141 1109 m 0
 167 1109 180 1128 179 1147 c 0
 180 1167 166 1187 140 1187 c 0
 115 1187 102 1168 103 1149 c 0
 102 1129 116 1109 141 1109 c 0
EndSplineSet
Substitution: 0 65534 'loww' uni0E49.low
Substitution: 0 65534 'amni' uni0E4D
EndChar
StartChar: uni0E4A
Encoding: 234 3658 200
Width: 0
Flags: W
HStem: 984 37<57 63> 1089 35<49 67>
VStem: 91 33<1047 1057>
AnchorPoint: "AboveMark" 105.624 983.04 mark 0
Fore
403 1226 m 17
 377 1098 268 986 136 986 c 1
 146 1021 l 1
 183 1039 204 1071 213 1102 c 0
 222 1136 216 1167 197 1175 c 1
 134 1137 l 1
 86 1178 l 1
 54 1172 37 1138 30 1122 c 1
 32 1118 l 1
 41 1122 42 1124 61 1124 c 0
 100 1124 124 1090 124 1057 c 0
 124 1016 97 984 57 984 c 0
 -4 984 -44 1043 -24 1115 c 0
 -11 1160 44 1227 105 1232 c 1
 147 1183 l 1
 216 1232 l 1
 275 1212 284 1166 272 1123 c 0
 265 1097 251 1073 235 1055 c 1
 237 1054 l 1
 284 1080 327 1141 332 1226 c 1
 403 1226 l 17
57 1021 m 0
 79 1021 91 1038 91 1056 c 0
 90 1072 80 1089 58 1089 c 0
 37 1089 26 1072 26 1054 c 0
 26 1038 36 1021 57 1021 c 0
EndSplineSet
Substitution: 0 65534 'loww' uni0E4A.low
Substitution: 0 65534 'amni' uni0E4D
EndChar
StartChar: uni0E4B
Encoding: 235 3659 201
Width: 0
Flags: W
HStem: 1071 75<56 124 219 287>
DStem: 124 1071 198 1071 103 992 174 992 145 1147 219 1147 56 1146 308 1146 165 1226 242 1226 145 1147 219 1147
AnchorPoint: "AboveMark" 136.387 983.04 mark 0
Fore
287 1072 m 5
 198 1071 l 1
 174 992 l 1
 103 992 l 1
 124 1071 l 1
 35 1072 l 1
 56 1146 l 1
 145 1147 l 1
 165 1226 l 1
 242 1226 l 1
 219 1147 l 1
 308 1146 l 1
 287 1072 l 5
EndSplineSet
MinimumDistance: x6,11 x5,0 
Substitution: 0 65534 'loww' uni0E4B.low
Substitution: 0 65534 'amni' uni0E4D
EndChar
StartChar: uni0E4C
Encoding: 236 3660 202
Width: 0
Flags: W
HStem: 895 42<111 129>
VStem: 32 46<974 984> 156 44<974 984>
AnchorPoint: "AboveMark" 94.7148 890.88 mark 0
Fore
359 1170 m 17
 308 1074 193 1052 162 1046 c 1
 161 1043 l 1
 178 1036 200 1018 200 977 c 0
 200 936 169 895 114 895 c 0
 67 895 32 934 32 982 c 0
 32 1044 88 1075 180 1092 c 0
 226 1101 266 1135 292 1192 c 1
 359 1170 l 17
119 937 m 0
 144 937 156 957 156 978 c 0
 156 999 143 1020 118 1020 c 0
 91 1020 78 1000 78 979 c 0
 78 958 92 937 119 937 c 0
EndSplineSet
Substitution: 0 65534 'loww' uni0E4C.low
EndChar
StartChar: uni0E4D
Encoding: 237 3661 203
Width: 0
Flags: W
HStem: 673 54<91 101> 831 57<90 101>
VStem: -12 51<780 786> 142 50<768 780>
AnchorPoint: "AboveMark" 90.4727 629.76 mark 0
AnchorPoint: "AboveMark" 90.4727 983.04 basemark 0
AnchorPoint: "AboveBase" 157.855 629.76 mark 0
Fore
91 673 m 0
 91 673 l 0
 23 673 -12 727 -12 781 c 0
 -12 835 21 888 90 888 c 0
 158 888 192 834 192 780 c 0
 192 726 159 673 91 673 c 0
91 727 m 0
 125 727 142 753 142 778 c 0
 141 805 124 831 90 831 c 0
 56 831 39 805 39 780 c 0
 40 753 57 727 91 727 c 0
EndSplineSet
Substitution: 0 65534 'G006' uni0E4B
Substitution: 0 65534 'G005' uni0E4A
Substitution: 0 65534 'G004' uni0E49
Substitution: 0 65534 'G003' uni0E48
EndChar
StartChar: uni0E4E
Encoding: 238 3662 204
Width: 0
Flags: W
AnchorPoint: "AboveBase" 85.2891 629.76 mark 0
Fore
243 909 m 1
 166 902 143 863 155 823 c 1
 98 760 l 1
 61 793 31 773 25 751 c 0
 19 730 35 717 65 717 c 1
 20 662 l 1
 -30 662 -54 703 -41 750 c 0
 -18 833 62 849 85 828 c 1
 88 831 l 1
 83 874 123 962 250 962 c 1
 243 909 l 1
EndSplineSet
EndChar
StartChar: uni0E4F
Encoding: 239 3663 205
Width: 702
Flags: W
HStem: -14 79<348 372> 152 77<394 416> 364 77<453 474> 527 80<496 520>
Fore
730 296 m 0
 730 296 l 0
 683 126 507 -14 348 -14 c 0
 184 -14 89 126 136 296 c 0
 184 468 356 607 520 607 c 0
 679 607 778 468 730 296 c 0
653 296 m 0
 653 296 l 0
 689 424 619 527 498 527 c 0
 373 527 249 424 213 296 c 0
 178 169 245 65 370 65 c 0
 491 65 618 169 653 296 c 0
569 296 m 0
 569 296 l 0
 547 217 466 152 394 152 c 0
 315 152 271 217 293 296 c 0
 316 379 395 441 474 441 c 0
 546 441 592 379 569 296 c 0
498 296 m 0
 508 333 488 364 453 364 c 0
 418 364 379 333 369 296 c 0
 359 260 381 229 416 229 c 0
 451 229 488 260 498 296 c 0
EndSplineSet
EndChar
StartChar: uni0E50
Encoding: 240 3664 206
Width: 615
Flags: W
HStem: -9 55<304 323> 430 60<425 444>
Fore
642 237 m 0
 642 237 l 0
 602 92 451 -9 306 -9 c 0
 156 -9 61 89 102 238 c 0
 142 384 294 490 444 490 c 0
 589 490 682 384 642 237 c 0
541 238 m 0
 568 336 524 430 427 430 c 0
 324 430 232 341 203 237 c 0
 175 137 224 46 321 46 c 0
 417 46 515 144 541 238 c 0
EndSplineSet
EndChar
StartChar: uni0E51
Encoding: 241 3665 207
Width: 615
Flags: W
HStem: -6 58<232 273> 98 53<342 354> 243 49<342 354> 427 57<420 442>
VStem: 251 50<187 204>
Fore
640 232 m 0
 640 232 l 0
 604 100 495 -8 370 -37 c 1
 318 -14 l 1
 481 32 522 149 546 233 c 0
 581 362 518 427 422 427 c 0
 317 427 230 346 198 232 c 0
 165 110 217 52 273 52 c 0
 303 52 334 68 354 98 c 1
 336 98 328 98 316 102 c 0
 267 116 251 164 251 194 c 0
 251 251 290 292 349 292 c 0
 420 292 463 217 447 164 c 0
 414 54 316 -6 232 -6 c 0
 136 -6 57 70 102 232 c 0
 147 392 298 484 438 484 c 0
 577 484 684 390 640 232 c 0
345 151 m 0
 374 151 389 174 388 196 c 0
 389 220 373 243 344 243 c 0
 315 243 301 220 301 198 c 0
 301 174 316 151 345 151 c 0
EndSplineSet
EndChar
StartChar: uni0E52
Encoding: 242 3666 208
Width: 615
Flags: W
HStem: -2 48<189 481> 86 43<328 342> 221 45<328 342>
VStem: 210 77<660 667> 379 44<163.814 179>
DStem: 191 561 279 561 72 134 155 117
Fore
660 252 m 0
 646 201 635 154 616 112 c 0
 588 49 560 -2 458 -2 c 2
 184 -2 l 2
 81 -2 51 57 72 134 c 2
 191 561 l 2
 215 648 210 667 210 667 c 2
 210 725 251 717 264 703 c 2
 264 703 287 662 287 660 c 0
 287 658 300 637 279 561 c 2
 155 117 l 2
 144 75 166 46 198 46 c 2
 473 46 l 2
 505 46 520 71 528 91 c 0
 542 127 561 182 576 236 c 0
 602 326 616 417 581 425 c 0
 555 432 509 366 489 321 c 0
 472 283 427 280 432 323 c 0
 437 362 437 430 402 425 c 0
 373 422 347 378 330 314 c 0
 325 299 322 282 318 264 c 1
 324 266 330 266 340 266 c 0
 396 266 424 222 423 177 c 0
 424 132 394 86 335 86 c 0
 273 86 231 132 234 192 c 0
 238 229 245 264 253 296 c 0
 286 414 349 490 414 490 c 0
 470 490 479 439 480 401 c 0
 481 396 479 390 479 390 c 1
 482 390 l 1
 482 390 484 396 486 401 c 0
 509 438 554 490 606 490 c 0
 694 490 696 384 660 252 c 0
336 129 m 0
 365 129 379 152 379 174 c 0
 379 198 364 221 335 221 c 0
 306 221 292 198 292 176 c 0
 292 152 307 129 336 129 c 0
EndSplineSet
EndChar
StartChar: uni0E53
Encoding: 243 3667 209
Width: 615
Flags: W
HStem: -8 49<198 216> 134 49<198 216> 424 64<318 335>
VStem: 252 48<75.4641 87.9374 88.0625 100.095>
Fore
547 8 m 0
 496 -5 l 0
 476 -6 447 -12 468 32 c 0
 513 121 543 197 560 258 c 0
 590 367 592 431 527 424 c 0
 479 418 432 316 412 244 c 0
 408 229 402 218 396 194 c 0
 379 138 316 140 332 194 c 0
 338 217 343 229 346 243 c 0
 373 338 363 424 320 424 c 0
 286 424 235 382 203 270 c 0
 196 243 190 213 185 178 c 1
 192 182 198 183 211 183 c 0
 264 183 300 137 300 88 c 0
 300 28 258 -8 204 -8 c 0
 145 -8 92 35 89 92 c 0
 85 139 91 197 107 255 c 0
 140 373 215 488 335 488 c 0
 397 488 416 432 420 402 c 1
 464 467 509 488 556 488 c 0
 665 488 685 386 645 241 c 0
 626 171 592 91 547 8 c 0
209 41 m 0
 238 41 253 64 252 88 c 0
 253 111 238 134 209 134 c 0
 179 134 165 111 164 88 c 0
 165 64 179 41 209 41 c 0
EndSplineSet
EndChar
StartChar: uni0E54
Encoding: 244 3668 210
Width: 615
Flags: W
HStem: 421 66<473 487> 424 66<404 414>
VStem: 468 48<260 270>
Fore
776 659 m 0xa0
 730 521 620 421 473 421 c 0xa0
 456 421 426 424 408 424 c 0
 301 424 232 332 209 252 c 0
 180 149 209 37 330 46 c 0
 344 48 369 49 382 49 c 1
 329 89 283 166 305 244 c 0
 327 324 374 368 432 363 c 0
 485 359 516 313 516 260 c 0
 516 183 430 141 372 185 c 1
 392 119 462 57 551 65 c 0
 557 65 576 68 582 68 c 0
 618 68 588 31 588 31 c 1
 559 -2 l 1
 559 -2 469 0 384 3 c 0
 331 5 315 0 275 -3 c 0
 159 -9 66 80 114 252 c 0
 159 413 292 490 414 490 c 0x60
 451 490 458 487 485 487 c 0
 572 487 651 551 696 713 c 1
 765 688 l 2
 776 685 784 679 776 659 c 0xa0
424 221 m 0
 453 221 469 244 468 267 c 0
 468 290 454 313 424 313 c 0
 395 313 380 290 380 267 c 0
 381 244 395 221 424 221 c 0
EndSplineSet
EndChar
StartChar: uni0E55
Encoding: 245 3669 211
Width: 615
Flags: W
HStem: 421 49<466 482> 562 46<466 482>
VStem: 379 49<515 520> 468 48<260 270>
Fore
551 65 m 0
 556 66 576 69 582 69 c 0
 618 69 588 32 588 32 c 1
 559 -2 l 1
 559 -2 470 0 386 3 c 0
 346 5 315 0 275 -3 c 0
 159 -9 66 81 114 253 c 0
 157 407 276 476 382 490 c 1
 381 498 379 514 379 520 c 0
 384 572 420 608 474 608 c 0
 527 608 566 567 564 511 c 0
 563 507 l 1
 606 530 665 590 695 714 c 1
 765 690 l 2
 777 687 785 680 776 660 c 0
 776 660 l 0
 730 519 612 422 480 421 c 0
 461 421 426 424 408 424 c 0
 301 424 232 333 209 253 c 0
 181 151 223 35 342 45 c 0
 357 46 366 49 382 49 c 1
 329 89 283 166 305 244 c 0
 327 324 374 368 432 363 c 0
 485 359 516 313 516 260 c 0
 516 183 430 141 372 185 c 1
 392 119 462 57 551 65 c 0
424 221 m 0
 453 221 469 244 468 267 c 0
 468 290 454 313 424 313 c 0
 395 313 380 290 380 267 c 0
 381 244 395 221 424 221 c 0
471 470 m 0
 500 470 516 493 515 516 c 0
 515 539 501 562 471 562 c 0
 443 562 428 539 428 516 c 0
 429 493 442 470 471 470 c 0
EndSplineSet
EndChar
StartChar: uni0E56
Encoding: 246 3670 212
Width: 615
Flags: W
HStem: -9 54<292 320> 102 52<228 245> 246 52<227 244> 429 64<409 429> 690 20G<255 334>
VStem: 282 50<196 203>
Fore
632 238 m 0
 632 238 l 0
 593 97 474 -9 294 -9 c 0
 3 -9 76 298 242 298 c 0
 297 298 332 246 332 198 c 0
 332 144 296 102 233 102 c 0
 222 102 208 108 192 114 c 1
 208 78 241 45 308 45 c 0
 409 45 507 132 536 238 c 0
 568 352 507 429 411 429 c 0
 371 429 322 424 275 399 c 0
 258 390 214 396 234 449 c 1
 263 556 252 614 232 677 c 0
 227 688 232 710 255 710 c 2
 334 710 l 1
 343 679 350 584 318 478 c 1
 349 488 394 493 429 493 c 0
 583 493 676 396 632 238 c 0
239 154 m 0
 268 154 282 177 282 199 c 0
 282 223 267 246 238 246 c 0
 209 246 195 223 195 201 c 0
 195 177 210 154 239 154 c 0
EndSplineSet
EndChar
StartChar: uni0E57
Encoding: 247 3671 213
Width: 615
Flags: W
HStem: -6 47<190 196> 134 51<180 196>
VStem: 76 206<91 103> 233 49<88.0313 90.9374>
Fore
759 682 m 0xe0
 763 606 750 516 725 426 c 0
 669 225 555 27 440 -5 c 1
 440 -5 359 -18 384 31 c 1
 384 31 420 106 442 154 c 0
 465 207 481 251 491 287 c 0
 518 386 501 424 476 424 c 0
 438 424 398 367 384 332 c 0
 377 316 369 296 362 273 c 0
 348 238 302 237 308 273 c 0
 314 296 317 318 319 333 c 0
 324 372 313 424 282 424 c 0xd0
 258 424 210 389 182 284 c 0
 173 255 167 219 162 178 c 1
 172 184 182 185 194 185 c 0
 250 185 282 130 282 91 c 0
 282 38 244 -6 190 -6 c 0
 121 -6 75 45 76 103 c 0
 76 160 83 217 98 269 c 0
 131 391 203 484 301 488 c 0
 338 490 369 455 372 406 c 1
 403 455 456 490 493 488 c 0
 575 484 595 397 562 277 c 0
 544 211 509 135 459 58 c 1
 473 61 492 84 502 97 c 0
 560 173 608 272 637 376 c 0
 662 467 672 562 661 648 c 1
 713 700 l 2
 735 722 756 737 759 682 c 0xe0
190 41 m 0
 219 41 234 64 233 88 c 0
 234 111 219 134 190 134 c 0
 160 134 146 111 145 88 c 0
 146 64 160 41 190 41 c 0
EndSplineSet
EndChar
StartChar: uni0E58
Encoding: 248 3672 214
Width: 615
Flags: W
HStem: -9 215<432 546> 298 52<535 554> 416 66<478 496.779>
VStem: 449 54<244 252>
Fore
763 651 m 0
 717 518 596 416 478 416 c 0
 451 416 428 418 405 418 c 0
 291 418 219 336 194 246 c 0
 175 175 174 117 204 83 c 1
 222 120 272 210 336 235 c 1
 385 227 l 1
 331 31 486 19 535 155 c 1
 486 161 449 199 449 250 c 0
 449 312 494 350 552 350 c 0
 622 350 654 279 647 246 c 0
 610 68 506 -9 432 -9 c 0
 380 -9 289 -2 302 132 c 1
 277 101 248 35 232 -11 c 1
 156 -12 48 66 98 247 c 0
 144 409 277 487 397 487 c 0
 425 487 459 482 481 482 c 0
 558 482 641 554 680 708 c 1
 753 684 l 2
 763 680 771 671 763 651 c 0
546 206 m 0
 575 206 591 229 590 252 c 0
 590 275 576 298 546 298 c 0
 517 298 502 275 503 252 c 0
 503 229 517 206 546 206 c 0
EndSplineSet
EndChar
StartChar: uni0E59
Encoding: 249 3673 215
Width: 615
Flags: W
HStem: -6 46<242 260> 132 49<242 260> 341 80<581 599> 418 63<291 315>
Fore
206 326 m 0xd0
 190 271 191 204 208 164 c 1
 220 174 232 181 258 181 c 0
 310 181 343 134 343 86 c 0
 343 36 304 -6 254 -6 c 0
 213 -7 151 12 130 57 c 0
 96 123 90 214 113 295 c 0
 131 362 189 481 315 481 c 0xd0
 350 481 388 470 418 433 c 1
 434 461 471 482 502 482 c 0
 574 484 557 421 599 421 c 0
 642 421 682 515 707 708 c 1
 790 680 l 2
 800 677 803 671 799 656 c 0
 752 447 672 341 581 341 c 0xe0
 516 341 524 416 488 418 c 0
 471 419 461 390 459 373 c 1
 460 362 471 338 473 330 c 0
 511 200 546 0 546 0 c 1
 473 0 l 2
 450 0 444 14 440 29 c 2
 440 29 410 180 384 275 c 0
 360 362 333 418 291 418 c 0
 252 418 221 382 206 326 c 0xd0
253 40 m 0
 282 40 296 63 297 86 c 0
 296 109 282 132 253 132 c 0
 224 132 209 109 209 86 c 0
 208 63 223 40 253 40 c 0
EndSplineSet
EndChar
StartChar: uni0E5A
Encoding: 250 3674 216
Width: 697
Flags: W
HStem: 0 21G<319 418 503 601> 391 58<252 286> 553 45<246 257>
VStem: 151 51<492 503> 302 48<488.273 504>
DStem: 439 432 583 594 319 0 418 0 668 594 766 594 503 0 601 0
Fore
418 0 m 1
 319 0 l 1
 439 432 l 1
 388 402 333 391 286 391 c 0
 235 391 193 404 178 422 c 0
 159 443 151 469 151 494 c 0
 151 547 190 598 255 598 c 0
 313 598 350 550 350 500 c 0
 350 479 343 458 328 440 c 1
 436 450 480 525 499 594 c 1
 583 594 l 1
 418 0 l 1
252 449 m 0
 286 449 303 475 302 501 c 0
 302 527 285 553 252 553 c 0
 218 553 202 527 202 501 c 0
 202 475 219 449 252 449 c 0
601 0 m 1
 503 0 l 1
 668 594 l 1
 766 594 l 1
 601 0 l 1
EndSplineSet
EndChar
StartChar: uni0E5B
Encoding: 251 3675 217
Width: 1233
Flags: W
HStem: 37 67<287 310> 190 93<325 342> 389 40<325 332> 562 68<397 420>
VStem: 370 43<324 342> 985 48<112 548>
DStem: 707 441 773 611 681 69 747 270 847 372 907 554 830 63 890 273 876 554 847 372 747 270 712 69 1035 548 987 367 890 273 830 63 1135 492 1105 350 1033 295 985 112
Fore
1314 247 m 1
 1314 247 l 1
 1314 247 1283 281 1246 246 c 0
 1200 201 1149 181 1130 243 c 0
 1129 247 1111 329 1105 350 c 1
 985 112 l 1
 987 367 l 1
 830 63 l 1
 847 372 l 1
 712 69 l 1
 681 69 l 1
 707 441 l 1
 685 402 644 309 629 283 c 0
 518 86 395 37 287 37 c 0
 144 37 50 160 100 338 c 0
 152 527 288 630 420 630 c 0
 722 630 560 190 342 190 c 0
 262 190 225 252 239 335 c 0
 248 389 279 429 330 429 c 0
 380 429 413 391 413 338 c 0
 413 279 382 257 355 252 c 1
 354 249 l 1
 488 245 620 562 399 562 c 0
 309 562 206 478 166 336 c 0
 128 200 199 108 307 104 c 0
 379 104 484 149 570 303 c 0
 605 364 631 404 742 611 c 1
 773 611 l 1
 747 270 l 1
 876 554 l 1
 907 554 l 1
 890 273 l 1
 1035 548 l 1
 1033 295 l 1
 1135 492 l 1
 1159 347 1173 295 1173 295 c 2
 1179 264 1194 249 1231 289 c 0
 1279 339 1331 306 1331 306 c 1
 1314 247 l 1
370 336 m 0
 370 361 353 389 329 389 c 0
 301 389 288 361 288 336 c 0
 288 306 306 283 329 283 c 0
 353 283 370 306 370 336 c 0
EndSplineSet
EndChar
StartChar: uni0E38.low
Encoding: 252 63256 218
Width: 0
Flags: W
HStem: -392 40<-266 -262>
VStem: -339 38<-323 -311>
Fore
-199 -458 m 1
 -282 -458 l 1
 -264 -392 l 1
 -270 -392 -282 -391 -290 -388 c 0
 -323 -377 -339 -346 -339 -315 c 0
 -339 -275 -311 -234 -254 -232 c 0
 -192 -230 -148 -261 -161 -321 c 1
 -199 -458 l 1
-227 -313 m 0
 -227 -293 -246 -275 -262 -275 c 0
 -286 -275 -301 -290 -301 -313 c 0
 -301 -336 -284 -352 -262 -352 c 0
 -241 -352 -227 -336 -227 -313 c 0
EndSplineSet
EndChar
StartChar: uni0E39.low
Encoding: 253 63257 219
Width: 0
Flags: W
HStem: -476 54<-295 -285>
VStem: -436 35<-317 -303>
DStem: -222 -240 -138 -240 -266 -402 -176 -379
Fore
-176 -379 m 2
 -191 -432 -233 -476 -293 -476 c 0
 -353 -476 -380 -444 -365 -392 c 2
 -363 -386 l 1
 -369 -388 -378 -386 -383 -385 c 0
 -417 -375 -436 -343 -436 -311 c 0
 -436 -275 -413 -241 -361 -239 c 0
 -301 -237 -271 -276 -287 -330 c 1
 -306 -402 l 2
 -310 -415 -303 -422 -292 -422 c 0
 -281 -422 -270 -416 -266 -402 c 2
 -222 -240 l 1
 -138 -240 l 1
 -176 -379 l 2
-327 -313 m 0
 -327 -293 -344 -275 -364 -275 c 0
 -388 -275 -401 -290 -401 -313 c 0
 -401 -336 -387 -352 -364 -352 c 0
 -341 -352 -327 -336 -327 -313 c 0
EndSplineSet
EndChar
StartChar: uni0E3A.low
Encoding: 254 63258 220
Width: 0
Flags: W
Fore
-194 -335 m 0
 -233 -335 -253 -306 -253 -277 c 0
 -252 -247 -233 -217 -193 -217 c 0
 -157 -217 -139 -246 -139 -275 c 0
 -140 -305 -158 -335 -194 -335 c 0
EndSplineSet
EndChar
StartChar: multiply
Encoding: 256 215 222
Width: 590
Flags: W
DStem: 199 458 276 521 311 286 393 352 311 286 356 220 102 118 146 51 356 220 437 286 473 49 551 117 600 521 644 458 393 352 437 286
Fore
551 117 m 1
 473 49 l 1
 356 220 l 1
 146 51 l 1
 102 118 l 1
 311 286 l 1
 199 458 l 1
 276 521 l 1
 393 352 l 1
 600 521 l 1
 644 458 l 1
 437 286 l 1
 551 117 l 1
EndSplineSet
EndChar
StartChar: divide
Encoding: 257 247 223
Width: 520
Flags: W
HStem: 2 129<261 296> 212 81<99 562> 375 130<364 400>
Fore
444 439 m 0
 444 439 l 0
 433 401 399 375 364 375 c 0
 336.536 375 318.768 397.165 318.768 423.047 c 0
 318.768 428.264 319.49 433.632 321 439 c 0
 331 475 364 505 400 505 c 0
 428.477 505 447.024 487.789 447.024 459.829 c 0
 447.024 453.424 446.05 446.455 444 439 c 0
562 212 m 1
 78 212 l 1
 100 293 l 1
 584 293 l 1
 562 212 l 1
340 66 m 0
 329 26 296 2 261 2 c 0
 233.361 2 214.841 22.3431 214.841 49.5161 c 0
 214.841 54.7867 215.538 60.3142 217 66 c 0
 226 98 260 131 296 131 c 0
 324.712 131 342.657 110.811 342.657 84.2339 c 0
 342.657 78.414 341.796 72.2877 340 66 c 0
EndSplineSet
EndChar
StartChar: registered
Encoding: 258 174 224
Width: 738
Flags: W
HStem: -25 70<360 387> 309 41<420 439> 485 39<360 382 361 475> 613 69<537 560>
DStem: 384 468 461 458 311 204 432 352 384 468 420 309 311 204 391 204
Fore
583 147 m 1
 513 147 l 0
 484 147 476 190 469 232 c 0
 457 296 469 309 420 309 c 1
 391 204 l 2
 389.928 200.785 389.431 198.215 389.431 196.138 c 0
 389.431 190.464 393.144 188.464 399 187 c 2
 423 184 l 1
 413 147 l 1
 255 147 l 1
 266 186 l 1
 287 187 l 2
 300 189 308 194 311 204 c 2
 384 468 l 2
 385.225 472.9 385.981 476.393 385.981 478.881 c 0
 385.981 484.519 382.1 485 371 485 c 2
 351 485 l 1
 361 524 l 1
 523 524 l 2
 592.176 524 626.765 504.332 626.765 460.528 c 0
 626.765 451.142 625.176 440.647 622 429 c 0
 608 378 562 330 519 326 c 1
 548 318 548 283 554 253 c 0
 561 221 555 187 594 186 c 1
 583 147 l 1
539 421 m 0
 539 421 l 0
 541.538 430.307 542.779 438.675 542.779 446.055 c 0
 542.779 471.543 527.983 485.261 500.729 485.261 c 0
 498.564 485.261 496.321 485.174 494 485 c 2
 475 484 l 2
 468 484 464 467 461 458 c 2
 432 352 l 1
 439 350 l 2
 484 350 523 364 539 421 c 0
190 329 m 0
 182.504 301.631 178.928 275.174 178.928 250.143 c 0
 178.928 131.581 259.148 45 383 45 c 0
 532 45 690 172 733 329 c 0
 740.749 356.473 744.435 383.077 744.435 408.267 c 0
 744.435 526.114 663.76 613 541 613 c 0
 391 613 234 485 190 329 c 0
 190 329 l 0
123 329 m 0
 177 524 372 682 558 682 c 0
 711.348 682 810.998 574.605 810.998 427.621 c 0
 810.998 396.324 806.48 363.232 797 329 c 0
 743 134 548 -25 362 -25 c 0
 208.652 -25 109.002 83.0752 109.002 230.297 c 0
 109.002 261.645 113.52 294.768 123 329 c 0
EndSplineSet
EndChar
StartChar: fi
Encoding: 259 64257 225
Width: 555
Flags: HW
HStem: -205 34<-100 -85> -9 21G<325 377> 407 43<25 92 221 360> 672 31<365 388>
VStem: -187 99<-129 -120> 275 123<57 78> 415 92<608 658>
DStem: 92 407 211 407 0 -4 117 22 360 407 494 458 291 138 420 176
Fore
18 407 m 1
 26 450 l 1
 103 450 l 1
 141 557 160 595 201 639 c 0
 239 680 300 703 365 703 c 0
 450 703 507 664 507 608 c 0
 507 576 483 551 450 551 c 0
 417 551 393 576 393 606 c 0
 393 620 395 630 407 642 c 0
 412 649 415 653 415 658 c 0
 415 668 404 672 388 672 c 0
 352 672 316 659 297 636 c 0
 267 598 253 568 221 450 c 1
 338 450 l 2
 354 450 391 451 447 456 c 0
 453 456 473 458 494 458 c 1
 420 176 l 1
 420 171 l 2
 407 123 398 88 398 78 c 0
 398 69 407 62 415 62 c 0
 431 62 453 83 492 141 c 1
 514 127 l 1
 445 22 407 -9 347 -9 c 0
 303 -9 275 15 275 57 c 0
 275 73 278 83 291 138 c 2
 360 407 l 1
 211 407 l 1
 117 22 l 1
 104 -29 70 -100 40 -138 c 0
 7 -180 -42 -205 -91 -205 c 0
 -146 -205 -187 -171 -187 -127 c 0
 -187 -95 -168 -73 -139 -73 c 0
 -110 -73 -88 -94 -88 -122 c 0
 -88 -133 -91 -139 -100 -149 c 0
 -105 -155 -107 -158 -107 -163 c 0
 -107 -168 -101 -171 -89 -171 c 0
 -45 -171 -31 -145 0 -4 c 1
 92 407 l 1
 18 407 l 1
EndSplineSet
LCarets: 0 65535 '    ' 1 0 
Ligature: 0 2 'liga' f i
EndChar
StartChar: fl
Encoding: 260 64258 226
Width: 555
Flags: HW
HStem: -205 35<-91 -73> -9 71<349 415> 407 43<28 94 221 360> 675 30<353 372>
VStem: -186 100<-126 -115> 275 123<48 79>
DStem: 94 407 212 407 1 4 133 81 360 407 554 702 281 86 401 100 401 568 554 702 372 450 401 100
Fore
21 407 m 1
 29 450 l 1
 104 450 l 1
 138 558 157 598 196 642 c 0
 231 680 291 705 353 705 c 0
 375 705 382 703 441 691 c 2
 454 688 l 1
 554 702 l 1
 401 100 l 1
 398 86 398 82 398 79 c 0
 398 70 406 62 415 62 c 0
 434 62 456 83 491 138 c 1
 511 126 l 1
 444 21 407 -9 349 -9 c 0
 306 -9 275 15 275 48 c 0
 275 60 278 73 281 86 c 2
 360 407 l 1
 212 407 l 1
 133 81 l 2
 88 -110 15 -205 -89 -205 c 0
 -146 -205 -186 -171 -186 -125 c 0
 -186 -91 -166 -70 -133 -70 c 0
 -105 -70 -86 -89 -86 -117 c 0
 -86 -127 -89 -133 -97 -145 c 0
 -101 -151 -103 -155 -103 -158 c 0
 -103 -166 -94 -170 -81 -170 c 0
 -45 -170 -31 -138 1 4 c 2
 94 407 l 1
 21 407 l 1
372 450 m 1
 401 568 l 1
 388 579 381 590 381 606 c 0
 381 620 385 628 398 649 c 0
 401 652 401 655 401 656 c 0
 401 666 384 675 366 675 c 0
 333 675 302 653 278 617 c 0
 256 582 242 539 221 450 c 1
 372 450 l 1
EndSplineSet
LCarets: 0 65535 '    ' 1 0 
Ligature: 0 2 'liga' f l
EndChar
StartChar: ff
Encoding: 261 64256 227
Width: 581
Flags: HW
HStem: -205 31<175 184> 407 43<25 92 221 360 485 568> 669 30<593 600>
VStem: -187 80<-163 -130> -187 99<-131 -120> 81 101<-122 -120> 595 99<606 620>
DStem: 92 407 211 407 0 -4 117 22
Fore
694 618 m 0xf6
 694 587 674 565 643 565 c 0
 615 565 595 587 595 615 c 0
 595 633 611 649 611 655 c 0
 611 665 603 669 595 669 c 0
 529 669 497 495 485 450 c 1
 577 450 l 1
 568 407 l 1
 478 407 l 1
 461 327 444 245 425 166 c 0
 395 37 349 -205 177 -205 c 0
 123 -205 81 -179 81 -122 c 0
 81 -97 107 -72 130 -72 c 0
 157 -72 182 -95 182 -122 c 0
 182 -141 166 -157 166 -163 c 0
 166 -171 174 -174 182 -174 c 0
 245 -174 264 -29 272 15 c 0
 302 146 330 277 360 407 c 1
 211 407 l 1
 117 22 l 2
 92 -76 25 -205 -89 -205 c 0
 -133 -205 -187 -182 -187 -130 c 0xf6
 -187 -101 -173 -73 -141 -73 c 0
 -111 -73 -88 -92 -88 -122 c 0xee
 -88 -146 -107 -149 -107 -163 c 0
 -107 -170 -92 -171 -89 -171 c 0
 -23 -171 -10 -50 0 -4 c 1
 92 407 l 1
 18 407 l 1
 26 450 l 1
 103 450 l 1
 151 589 202 703 372 703 c 0
 412 703 458 691 486 661 c 1
 519 686 557 699 598 699 c 0
 647 699 694 674 694 618 c 0xf6
415 656 m 0
 415 669 401 672 390 672 c 0
 272 672 245 539 221 450 c 1
 371 450 l 1
 381 488 393 529 412 565 c 1
 398 576 393 590 393 605 c 0
 393 634 415 645 415 656 c 0
EndSplineSet
LCarets: 0 65535 '    ' 1 0 
Ligature: 0 2 'liga' f f
EndChar
StartChar: ffi
Encoding: 262 64259 228
Width: 823
Flags: HW
HStem: -205 31<175 184> -9 21G<592.5 654> 407 43<25 92 221 360 485 628> 672 31<372 392 638 658>
VStem: -187 80<-163 -130> -187 99<-131 -120> 81 101<-122 -120> 659 114<603 612>
DStem: 92 407 211 407 0 -4 117 22 628 407 762 458 560 138 688 176
Fore
782 127 m 1xfb
 743 66 694 -9 614 -9 c 0
 571 -9 543 15 543 59 c 0
 543 83 554 113 560 138 c 1
 628 407 l 1
 478 407 l 1
 461 327 444 245 425 166 c 0
 395 37 349 -205 177 -205 c 0
 123 -205 81 -179 81 -122 c 0
 81 -97 107 -72 130 -72 c 0
 157 -72 182 -95 182 -122 c 0
 182 -141 166 -157 166 -163 c 0
 166 -171 174 -174 182 -174 c 0
 245 -174 264 -29 272 15 c 0
 302 146 330 277 360 407 c 1
 211 407 l 1
 117 22 l 2
 92 -76 25 -205 -89 -205 c 0
 -133 -205 -187 -182 -187 -130 c 0xfb
 -187 -101 -173 -73 -141 -73 c 0
 -111 -73 -88 -92 -88 -122 c 0xf7
 -88 -146 -107 -149 -107 -163 c 0
 -107 -170 -92 -171 -89 -171 c 0
 -23 -171 -10 -50 0 -4 c 1
 92 407 l 1
 18 407 l 1
 26 450 l 1
 103 450 l 1
 151 589 202 703 372 703 c 0
 413 703 461 691 489 658 c 1
 532 690 584 703 639 703 c 0
 694 703 773 677 773 608 c 0
 773 576 750 551 716 551 c 0
 686 551 659 573 659 605 c 0
 659 634 681 645 681 656 c 0
 681 669 669 672 656 672 c 0
 539 672 511 539 485 450 c 1
 606 450 l 2
 659 450 710 456 762 458 c 1
 688 176 l 2
 683 148 666 107 666 79 c 0
 666 70 675 62 683 62 c 0
 705 62 749 122 760 141 c 1
 782 127 l 1xfb
415 562 m 1
 400 573 393 587 393 605 c 0
 393 634 415 645 415 656 c 0
 415 669 401 672 390 672 c 0
 272 672 245 539 221 450 c 1
 371 450 l 1
 382 486 395 526 415 562 c 1
EndSplineSet
LCarets: 0 65535 '    ' 2 0 0 
Ligature: 0 2 'liga' ff i
Ligature: 0 2 'liga' f f i
EndChar
StartChar: ffl
Encoding: 263 64260 229
Width: 823
Flags: HW
HStem: -205 34<-89 -85 174 189> -9 71<615 683> 407 43<25 92 221 360 488 627> 672 31<372 392>
VStem: -187 80<-163 -130> -187 99<-131 -117> 81 99<-126 -115> 543 122<50 78>
DStem: 92 407 211 407 0 -4 117 22 360 407 480 407 270 4 401 81
Fore
820 702 m 1xfb
 803 633 665 110 665 78 c 0
 665 69 674 62 683 62 c 0
 707 62 746 117 757 138 c 1
 778 126 l 1
 740 67 694 -9 615 -9 c 0
 579 -9 543 10 543 50 c 0
 543 105 609 338 627 407 c 1
 480 407 l 1
 401 81 l 1
 374 -32 318 -205 174 -205 c 0
 126 -205 81 -177 81 -123 c 0
 81 -89 103 -70 133 -70 c 0
 161 -70 180 -89 180 -117 c 0
 180 -138 164 -146 164 -158 c 0
 164 -168 180 -170 187 -170 c 0
 240 -170 261 -32 270 4 c 1
 360 407 l 1
 211 407 l 1
 117 22 l 2
 92 -76 25 -205 -89 -205 c 0
 -133 -205 -187 -182 -187 -130 c 0xfb
 -187 -101 -173 -73 -141 -73 c 0
 -111 -73 -88 -92 -88 -122 c 0xf7
 -88 -146 -107 -149 -107 -163 c 0
 -107 -170 -92 -171 -89 -171 c 0
 -23 -171 -10 -50 0 -4 c 1
 92 407 l 1
 18 407 l 1
 26 450 l 1
 103 450 l 1
 151 589 202 703 372 703 c 0
 412 703 458 691 486 661 c 1
 526 691 577 705 627 705 c 0
 658 705 691 696 721 688 c 1
 820 702 l 1xfb
669 568 m 1
 655 579 647 592 647 609 c 0
 647 631 669 649 669 656 c 0
 669 669 645 675 636 675 c 0
 538 675 505 523 488 450 c 1
 639 450 l 1
 669 568 l 1
415 656 m 0
 415 669 401 672 390 672 c 0
 272 672 245 539 221 450 c 1
 371 450 l 1
 382 488 395 527 413 562 c 1
 400 573 393 589 393 605 c 0
 393 634 415 645 415 656 c 0
EndSplineSet
LCarets: 0 65535 '    ' 2 0 0 
Ligature: 0 2 'liga' ff l
Ligature: 0 2 'liga' f f l
EndChar
